%FSLAX45Y45*%
G04 Gerber Fmt 4.5, Leading zero omitted, Abs format (unit mm)*
G04 Created by KiCad (PCBNEW (5.1.6)-1) date 2022-08-18 21:09:07*
%MOMM*%
%LPD*%
G01*
G04 APERTURE LIST*
%TA.AperFunction,Profile*%
%ADD10C,0.050000*%
%TD*%
%ADD11C,0.200000*%
%ADD12C,0.300000*%
G04 APERTURE END LIST*
D10*
X1474982Y-2920904D02*
G75*
G02*
X1744880Y-2541000I372898J20905D01*
G01*
X1744880Y-2541000D02*
X6904120Y-1535250D01*
X6904120Y-1535250D02*
X8704120Y-1535250D01*
X8704120Y-1535250D02*
X14168359Y-2120516D01*
X14168359Y-2120516D02*
G75*
G02*
X14380000Y-2340000I-18359J-229484D01*
G01*
X14272653Y-9141681D02*
G75*
G02*
X14027000Y-9331000I-218653J29681D01*
G01*
X7070162Y-9226563D02*
G75*
G02*
X6990000Y-9220000I-20162J246563D01*
G01*
X1695213Y-7679229D02*
G75*
G02*
X1474880Y-7390000I79667J289229D01*
G01*
X1474880Y-7390000D02*
X1474982Y-2920904D01*
X6990000Y-9220000D02*
X1695213Y-7679229D01*
X8830000Y-9080000D02*
X7070162Y-9226563D01*
X10640000Y-9020000D02*
X8830000Y-9080000D01*
X12450000Y-9110000D02*
X10640000Y-9020000D01*
X14027000Y-9331000D02*
X12450000Y-9110000D01*
X14480000Y-7670000D02*
X14272653Y-9141681D01*
X14380000Y-2340000D02*
X14480000Y-7670000D01*
D11*
X3260000Y-3981510D02*
X3300000Y-4021510D01*
X3300000Y-3981510D02*
X3260000Y-4021510D01*
X3260000Y-4480000D02*
X3300000Y-4520000D01*
X3300000Y-4480000D02*
X3260000Y-4520000D01*
X3260000Y-5700000D02*
X3300000Y-5740000D01*
X3300000Y-5700000D02*
X3260000Y-5740000D01*
X3300000Y-4122000D02*
X3340000Y-4162000D01*
X3340000Y-4122000D02*
X3300000Y-4162000D01*
X3300000Y-4342000D02*
X3340000Y-4382000D01*
X3340000Y-4342000D02*
X3300000Y-4382000D01*
X3300000Y-5837000D02*
X3340000Y-5877000D01*
X3340000Y-5837000D02*
X3300000Y-5877000D01*
X3300360Y-6057000D02*
X3340360Y-6097000D01*
X3340360Y-6057000D02*
X3300360Y-6097000D01*
X3518350Y-5485640D02*
X3558350Y-5525640D01*
X3558350Y-5485640D02*
X3518350Y-5525640D01*
X5112000Y-5001950D02*
X5152000Y-5041950D01*
X5152000Y-5001950D02*
X5112000Y-5041950D01*
X6593010Y-3645190D02*
X6633010Y-3685190D01*
X6633010Y-3645190D02*
X6593010Y-3685190D01*
X6807110Y-5703260D02*
X6847110Y-5743260D01*
X6847110Y-5703260D02*
X6807110Y-5743260D01*
X6821830Y-3352400D02*
X6861830Y-3392400D01*
X6861830Y-3352400D02*
X6821830Y-3392400D01*
X6836000Y-5034000D02*
X6876000Y-5074000D01*
X6876000Y-5034000D02*
X6836000Y-5074000D01*
X6850000Y-3800000D02*
X6890000Y-3840000D01*
X6890000Y-3800000D02*
X6850000Y-3840000D01*
X6880000Y-3449000D02*
X6920000Y-3489000D01*
X6920000Y-3449000D02*
X6880000Y-3489000D01*
X6880000Y-3669000D02*
X6920000Y-3709000D01*
X6920000Y-3669000D02*
X6880000Y-3709000D01*
X6880000Y-5164000D02*
X6920000Y-5204000D01*
X6920000Y-5164000D02*
X6880000Y-5204000D01*
X6887150Y-5384000D02*
X6927150Y-5424000D01*
X6927150Y-5384000D02*
X6887150Y-5424000D01*
X7189920Y-6011530D02*
X7229920Y-6051530D01*
X7229920Y-6011530D02*
X7189920Y-6051530D01*
X7451070Y-4779970D02*
X7491070Y-4819970D01*
X7491070Y-4779970D02*
X7451070Y-4819970D01*
X7549810Y-3078690D02*
X7589810Y-3118690D01*
X7589810Y-3078690D02*
X7549810Y-3118690D01*
X9560000Y-3380000D02*
X9600000Y-3420000D01*
X9600000Y-3380000D02*
X9560000Y-3420000D01*
X9925880Y-6932650D02*
X9965880Y-6972650D01*
X9965880Y-6932650D02*
X9925880Y-6972650D01*
X10433060Y-4009450D02*
X10473060Y-4049450D01*
X10473060Y-4009450D02*
X10433060Y-4049450D01*
X10464240Y-4480000D02*
X10504240Y-4520000D01*
X10504240Y-4480000D02*
X10464240Y-4520000D01*
X10496590Y-5603360D02*
X10536590Y-5643360D01*
X10536590Y-5603360D02*
X10496590Y-5643360D01*
X10500000Y-3390000D02*
X10540000Y-3430000D01*
X10540000Y-3390000D02*
X10500000Y-3430000D01*
X10500000Y-5090000D02*
X10540000Y-5130000D01*
X10540000Y-5090000D02*
X10500000Y-5130000D01*
X10540000Y-3509000D02*
X10580000Y-3549000D01*
X10580000Y-3509000D02*
X10540000Y-3549000D01*
X10540000Y-3729000D02*
X10580000Y-3769000D01*
X10580000Y-3729000D02*
X10540000Y-3769000D01*
X10540000Y-5232000D02*
X10580000Y-5272000D01*
X10580000Y-5232000D02*
X10540000Y-5272000D01*
X10544400Y-5452000D02*
X10584400Y-5492000D01*
X10584400Y-5452000D02*
X10544400Y-5492000D01*
X10739250Y-2457630D02*
X10779250Y-2497630D01*
X10779250Y-2457630D02*
X10739250Y-2497630D01*
X11588620Y-5613440D02*
X11628620Y-5653440D01*
X11628620Y-5613440D02*
X11588620Y-5653440D01*
X12147900Y-6629810D02*
X12187900Y-6669810D01*
X12187900Y-6629810D02*
X12147900Y-6669810D01*
X12316770Y-5230890D02*
X12356770Y-5270890D01*
X12356770Y-5230890D02*
X12316770Y-5270890D01*
X12765050Y-5960180D02*
X12805050Y-6000180D01*
X12805050Y-5960180D02*
X12765050Y-6000180D01*
X12990000Y-6111890D02*
X13030000Y-6151890D01*
X13030000Y-6111890D02*
X12990000Y-6151890D01*
X13216710Y-6039390D02*
X13256710Y-6079390D01*
X13256710Y-6039390D02*
X13216710Y-6079390D01*
X13330000Y-4170000D02*
X13370000Y-4210000D01*
X13370000Y-4170000D02*
X13330000Y-4210000D01*
X13355950Y-5597780D02*
X13395950Y-5637780D01*
X13395950Y-5597780D02*
X13355950Y-5637780D01*
X13822640Y-5539520D02*
X13862640Y-5579520D01*
X13862640Y-5539520D02*
X13822640Y-5579520D01*
X13865430Y-4205790D02*
X13905430Y-4245790D01*
X13905430Y-4205790D02*
X13865430Y-4245790D01*
X14005350Y-6385350D02*
X14045350Y-6425350D01*
X14045350Y-6385350D02*
X14005350Y-6425350D01*
X6935000Y-6010000D02*
G75*
G03*
X6935000Y-6010000I-35000J0D01*
G01*
X6935000Y-6790000D02*
G75*
G03*
X6935000Y-6790000I-35000J0D01*
G01*
X8745000Y-5530000D02*
G75*
G03*
X8745000Y-5530000I-35000J0D01*
G01*
X8745000Y-6310000D02*
G75*
G03*
X8745000Y-6310000I-35000J0D01*
G01*
X7416484Y-7383991D02*
G75*
G03*
X7416484Y-7383991I-35000J0D01*
G01*
X8193516Y-7316009D02*
G75*
G03*
X8193516Y-7316009I-35000J0D01*
G01*
X7449120Y-3246000D02*
G75*
G03*
X7449120Y-3246000I-35000J0D01*
G01*
X8229120Y-3246000D02*
G75*
G03*
X8229120Y-3246000I-35000J0D01*
G01*
X12570722Y-8306204D02*
G75*
G03*
X12570722Y-8306204I-35000J0D01*
G01*
X12679277Y-7533795D02*
G75*
G03*
X12679277Y-7533795I-35000J0D01*
G01*
X5125000Y-6140000D02*
G75*
G03*
X5125000Y-6140000I-35000J0D01*
G01*
X5125000Y-6920000D02*
G75*
G03*
X5125000Y-6920000I-35000J0D01*
G01*
X5639380Y-3565000D02*
G75*
G03*
X5639380Y-3565000I-35000J0D01*
G01*
X6419380Y-3565000D02*
G75*
G03*
X6419380Y-3565000I-35000J0D01*
G01*
X3829620Y-5964000D02*
G75*
G03*
X3829620Y-5964000I-35000J0D01*
G01*
X4609620Y-5964000D02*
G75*
G03*
X4609620Y-5964000I-35000J0D01*
G01*
X5639380Y-5280000D02*
G75*
G03*
X5639380Y-5280000I-35000J0D01*
G01*
X6419380Y-5280000D02*
G75*
G03*
X6419380Y-5280000I-35000J0D01*
G01*
X9258880Y-3570000D02*
G75*
G03*
X9258880Y-3570000I-35000J0D01*
G01*
X10038880Y-3570000D02*
G75*
G03*
X10038880Y-3570000I-35000J0D01*
G01*
X3315000Y-6640000D02*
G75*
G03*
X3315000Y-6640000I-35000J0D01*
G01*
X3315000Y-7420000D02*
G75*
G03*
X3315000Y-7420000I-35000J0D01*
G01*
X2019880Y-4253000D02*
G75*
G03*
X2019880Y-4253000I-35000J0D01*
G01*
X2799880Y-4253000D02*
G75*
G03*
X2799880Y-4253000I-35000J0D01*
G01*
X9305238Y-7253611D02*
G75*
G03*
X9305238Y-7253611I-35000J0D01*
G01*
X10084762Y-7226389D02*
G75*
G03*
X10084762Y-7226389I-35000J0D01*
G01*
X2019880Y-5964000D02*
G75*
G03*
X2019880Y-5964000I-35000J0D01*
G01*
X2799880Y-5964000D02*
G75*
G03*
X2799880Y-5964000I-35000J0D01*
G01*
X3829620Y-4253000D02*
G75*
G03*
X3829620Y-4253000I-35000J0D01*
G01*
X4609620Y-4253000D02*
G75*
G03*
X4609620Y-4253000I-35000J0D01*
G01*
X11068600Y-5430000D02*
G75*
G03*
X11068600Y-5430000I-35000J0D01*
G01*
X11848600Y-5430000D02*
G75*
G03*
X11848600Y-5430000I-35000J0D01*
G01*
X9258880Y-5283000D02*
G75*
G03*
X9258880Y-5283000I-35000J0D01*
G01*
X10038880Y-5283000D02*
G75*
G03*
X10038880Y-5283000I-35000J0D01*
G01*
X11255534Y-7209589D02*
G75*
G03*
X11255534Y-7209589I-35000J0D01*
G01*
X12034465Y-7250411D02*
G75*
G03*
X12034465Y-7250411I-35000J0D01*
G01*
X7449120Y-4958000D02*
G75*
G03*
X7449120Y-4958000I-35000J0D01*
G01*
X8229120Y-4958000D02*
G75*
G03*
X8229120Y-4958000I-35000J0D01*
G01*
X10555000Y-6120000D02*
G75*
G03*
X10555000Y-6120000I-35000J0D01*
G01*
X10555000Y-6900000D02*
G75*
G03*
X10555000Y-6900000I-35000J0D01*
G01*
X12365000Y-6120000D02*
G75*
G03*
X12365000Y-6120000I-35000J0D01*
G01*
X12365000Y-6900000D02*
G75*
G03*
X12365000Y-6900000I-35000J0D01*
G01*
X11068600Y-3720000D02*
G75*
G03*
X11068600Y-3720000I-35000J0D01*
G01*
X11848600Y-3720000D02*
G75*
G03*
X11848600Y-3720000I-35000J0D01*
G01*
X13570000Y-6076900D02*
X13570000Y-6153100D01*
X13531900Y-6115000D02*
X13608100Y-6115000D01*
X13641900Y-6086900D02*
X13498100Y-6086900D01*
X13641900Y-6143100D02*
X13498100Y-6143100D01*
X13498100Y-6086900D02*
G75*
G03*
X13498100Y-6143100I0J-28100D01*
G01*
X13641900Y-6143100D02*
G75*
G03*
X13641900Y-6086900I0J28100D01*
G01*
X13570000Y-6401900D02*
X13570000Y-6478100D01*
X13531900Y-6440000D02*
X13608100Y-6440000D01*
X13570000Y-6701900D02*
X13570000Y-6778100D01*
X13531900Y-6740000D02*
X13608100Y-6740000D01*
X13570000Y-7001900D02*
X13570000Y-7078100D01*
X13531900Y-7040000D02*
X13608100Y-7040000D01*
X13570000Y-7326900D02*
X13570000Y-7403100D01*
X13531900Y-7365000D02*
X13608100Y-7365000D01*
X13498100Y-7393100D02*
X13641900Y-7393100D01*
X13498100Y-7336900D02*
X13641900Y-7336900D01*
X13641900Y-7393100D02*
G75*
G03*
X13641900Y-7336900I0J28100D01*
G01*
X13498100Y-7336900D02*
G75*
G03*
X13498100Y-7393100I0J-28100D01*
G01*
X14120000Y-2291900D02*
X14120000Y-2368100D01*
X14081900Y-2330000D02*
X14158100Y-2330000D01*
X5757356Y-7237356D02*
X5757356Y-7166644D01*
X5686644Y-7166644D01*
X5686644Y-7237356D01*
X5757356Y-7237356D01*
X6007356Y-7237356D02*
X6007356Y-7166644D01*
X5936644Y-7166644D01*
X5936644Y-7237356D01*
X6007356Y-7237356D01*
X6257356Y-7237356D02*
X6257356Y-7166644D01*
X6186644Y-7166644D01*
X6186644Y-7237356D01*
X6257356Y-7237356D01*
X13017356Y-5825356D02*
X13017356Y-5754644D01*
X12946644Y-5754644D01*
X12946644Y-5825356D01*
X13017356Y-5825356D01*
X13271356Y-5825356D02*
X13271356Y-5754644D01*
X13200644Y-5754644D01*
X13200644Y-5825356D01*
X13271356Y-5825356D01*
X13525356Y-5825356D02*
X13525356Y-5754644D01*
X13454644Y-5754644D01*
X13454644Y-5825356D01*
X13525356Y-5825356D01*
X13779356Y-5825356D02*
X13779356Y-5754644D01*
X13708644Y-5754644D01*
X13708644Y-5825356D01*
X13779356Y-5825356D01*
X12601000Y-2623610D02*
X12655610Y-2569000D01*
X12601000Y-2514390D01*
X12546390Y-2569000D01*
X12601000Y-2623610D01*
X12601000Y-2877610D02*
X12655610Y-2823000D01*
X12601000Y-2768390D01*
X12546390Y-2823000D01*
X12601000Y-2877610D01*
X12601000Y-3131610D02*
X12655610Y-3077000D01*
X12601000Y-3022390D01*
X12546390Y-3077000D01*
X12601000Y-3131610D01*
X12601000Y-3385610D02*
X12655610Y-3331000D01*
X12601000Y-3276390D01*
X12546390Y-3331000D01*
X12601000Y-3385610D01*
X12601000Y-3639610D02*
X12655610Y-3585000D01*
X12601000Y-3530390D01*
X12546390Y-3585000D01*
X12601000Y-3639610D01*
X12601000Y-3893610D02*
X12655610Y-3839000D01*
X12601000Y-3784390D01*
X12546390Y-3839000D01*
X12601000Y-3893610D01*
X12601000Y-4147610D02*
X12655610Y-4093000D01*
X12601000Y-4038390D01*
X12546390Y-4093000D01*
X12601000Y-4147610D01*
X12601000Y-4401610D02*
X12655610Y-4347000D01*
X12601000Y-4292390D01*
X12546390Y-4347000D01*
X12601000Y-4401610D01*
X12601000Y-4655610D02*
X12655610Y-4601000D01*
X12601000Y-4546390D01*
X12546390Y-4601000D01*
X12601000Y-4655610D01*
X12601000Y-4909610D02*
X12655610Y-4855000D01*
X12601000Y-4800390D01*
X12546390Y-4855000D01*
X12601000Y-4909610D01*
X12601000Y-5163610D02*
X12655610Y-5109000D01*
X12601000Y-5054390D01*
X12546390Y-5109000D01*
X12601000Y-5163610D01*
X12601000Y-5417610D02*
X12655610Y-5363000D01*
X12601000Y-5308390D01*
X12546390Y-5363000D01*
X12601000Y-5417610D01*
X14125000Y-2623610D02*
X14179610Y-2569000D01*
X14125000Y-2514390D01*
X14070390Y-2569000D01*
X14125000Y-2623610D01*
X14125000Y-2877610D02*
X14179610Y-2823000D01*
X14125000Y-2768390D01*
X14070390Y-2823000D01*
X14125000Y-2877610D01*
X14125000Y-3131610D02*
X14179610Y-3077000D01*
X14125000Y-3022390D01*
X14070390Y-3077000D01*
X14125000Y-3131610D01*
X14125000Y-3385610D02*
X14179610Y-3331000D01*
X14125000Y-3276390D01*
X14070390Y-3331000D01*
X14125000Y-3385610D01*
X14125000Y-3639610D02*
X14179610Y-3585000D01*
X14125000Y-3530390D01*
X14070390Y-3585000D01*
X14125000Y-3639610D01*
X14125000Y-3893610D02*
X14179610Y-3839000D01*
X14125000Y-3784390D01*
X14070390Y-3839000D01*
X14125000Y-3893610D01*
X14125000Y-4147610D02*
X14179610Y-4093000D01*
X14125000Y-4038390D01*
X14070390Y-4093000D01*
X14125000Y-4147610D01*
X14125000Y-4401610D02*
X14179610Y-4347000D01*
X14125000Y-4292390D01*
X14070390Y-4347000D01*
X14125000Y-4401610D01*
X14125000Y-4655610D02*
X14179610Y-4601000D01*
X14125000Y-4546390D01*
X14070390Y-4601000D01*
X14125000Y-4655610D01*
X14125000Y-4909610D02*
X14179610Y-4855000D01*
X14125000Y-4800390D01*
X14070390Y-4855000D01*
X14125000Y-4909610D01*
X14125000Y-5163610D02*
X14179610Y-5109000D01*
X14125000Y-5054390D01*
X14070390Y-5109000D01*
X14125000Y-5163610D01*
X14125000Y-5417610D02*
X14179610Y-5363000D01*
X14125000Y-5308390D01*
X14070390Y-5363000D01*
X14125000Y-5417610D01*
X9050380Y-5694600D02*
X9177380Y-5821600D01*
X9177380Y-5694600D02*
X9050380Y-5821600D01*
X9177380Y-5758100D02*
G75*
G03*
X9177380Y-5758100I-63500J0D01*
G01*
X9550380Y-5484600D02*
X9677380Y-5611600D01*
X9677380Y-5484600D02*
X9550380Y-5611600D01*
X9677380Y-5548100D02*
G75*
G03*
X9677380Y-5548100I-63500J0D01*
G01*
X10050380Y-5694600D02*
X10177380Y-5821600D01*
X10177380Y-5694600D02*
X10050380Y-5821600D01*
X10177380Y-5758100D02*
G75*
G03*
X10177380Y-5758100I-63500J0D01*
G01*
X5430880Y-2265600D02*
X5557880Y-2392600D01*
X5557880Y-2265600D02*
X5430880Y-2392600D01*
X5557880Y-2329100D02*
G75*
G03*
X5557880Y-2329100I-63500J0D01*
G01*
X5930880Y-2055600D02*
X6057880Y-2182600D01*
X6057880Y-2055600D02*
X5930880Y-2182600D01*
X6057880Y-2119100D02*
G75*
G03*
X6057880Y-2119100I-63500J0D01*
G01*
X6430880Y-2265600D02*
X6557880Y-2392600D01*
X6557880Y-2265600D02*
X6430880Y-2392600D01*
X6557880Y-2329100D02*
G75*
G03*
X6557880Y-2329100I-63500J0D01*
G01*
X10860100Y-2418000D02*
X10987100Y-2545000D01*
X10987100Y-2418000D02*
X10860100Y-2545000D01*
X10987100Y-2481500D02*
G75*
G03*
X10987100Y-2481500I-63500J0D01*
G01*
X11360100Y-2208000D02*
X11487100Y-2335000D01*
X11487100Y-2208000D02*
X11360100Y-2335000D01*
X11487100Y-2271500D02*
G75*
G03*
X11487100Y-2271500I-63500J0D01*
G01*
X11860100Y-2418000D02*
X11987100Y-2545000D01*
X11987100Y-2418000D02*
X11860100Y-2545000D01*
X11987100Y-2481500D02*
G75*
G03*
X11987100Y-2481500I-63500J0D01*
G01*
X9050380Y-3980100D02*
X9177380Y-4107100D01*
X9177380Y-3980100D02*
X9050380Y-4107100D01*
X9177380Y-4043600D02*
G75*
G03*
X9177380Y-4043600I-63500J0D01*
G01*
X9550380Y-3770100D02*
X9677380Y-3897100D01*
X9677380Y-3770100D02*
X9550380Y-3897100D01*
X9677380Y-3833600D02*
G75*
G03*
X9677380Y-3833600I-63500J0D01*
G01*
X10050380Y-3980100D02*
X10177380Y-4107100D01*
X10177380Y-3980100D02*
X10050380Y-4107100D01*
X10177380Y-4043600D02*
G75*
G03*
X10177380Y-4043600I-63500J0D01*
G01*
X9050380Y-2265600D02*
X9177380Y-2392600D01*
X9177380Y-2265600D02*
X9050380Y-2392600D01*
X9177380Y-2329100D02*
G75*
G03*
X9177380Y-2329100I-63500J0D01*
G01*
X9550380Y-2055600D02*
X9677380Y-2182600D01*
X9677380Y-2055600D02*
X9550380Y-2182600D01*
X9677380Y-2119100D02*
G75*
G03*
X9677380Y-2119100I-63500J0D01*
G01*
X10050380Y-2265600D02*
X10177380Y-2392600D01*
X10177380Y-2265600D02*
X10050380Y-2392600D01*
X10177380Y-2329100D02*
G75*
G03*
X10177380Y-2329100I-63500J0D01*
G01*
X10860100Y-4132500D02*
X10987100Y-4259500D01*
X10987100Y-4132500D02*
X10860100Y-4259500D01*
X10987100Y-4196000D02*
G75*
G03*
X10987100Y-4196000I-63500J0D01*
G01*
X11360100Y-3922500D02*
X11487100Y-4049500D01*
X11487100Y-3922500D02*
X11360100Y-4049500D01*
X11487100Y-3986000D02*
G75*
G03*
X11487100Y-3986000I-63500J0D01*
G01*
X11860100Y-4132500D02*
X11987100Y-4259500D01*
X11987100Y-4132500D02*
X11860100Y-4259500D01*
X11987100Y-4196000D02*
G75*
G03*
X11987100Y-4196000I-63500J0D01*
G01*
X12954252Y-7873612D02*
X13081252Y-8000612D01*
X13081252Y-7873612D02*
X12954252Y-8000612D01*
X13081252Y-7937112D02*
G75*
G03*
X13081252Y-7937112I-63500J0D01*
G01*
X13478612Y-7735242D02*
X13605612Y-7862242D01*
X13605612Y-7735242D02*
X13478612Y-7862242D01*
X13605612Y-7798742D02*
G75*
G03*
X13605612Y-7798742I-63500J0D01*
G01*
X13944520Y-8012785D02*
X14071520Y-8139785D01*
X14071520Y-8012785D02*
X13944520Y-8139785D01*
X14071520Y-8076285D02*
G75*
G03*
X14071520Y-8076285I-63500J0D01*
G01*
X7240620Y-3656250D02*
X7367620Y-3783250D01*
X7367620Y-3656250D02*
X7240620Y-3783250D01*
X7367620Y-3719750D02*
G75*
G03*
X7367620Y-3719750I-63500J0D01*
G01*
X7740620Y-3446250D02*
X7867620Y-3573250D01*
X7867620Y-3446250D02*
X7740620Y-3573250D01*
X7867620Y-3509750D02*
G75*
G03*
X7867620Y-3509750I-63500J0D01*
G01*
X8240620Y-3656250D02*
X8367620Y-3783250D01*
X8367620Y-3656250D02*
X8240620Y-3783250D01*
X8367620Y-3719750D02*
G75*
G03*
X8367620Y-3719750I-63500J0D01*
G01*
X1811380Y-2951400D02*
X1938380Y-3078400D01*
X1938380Y-2951400D02*
X1811380Y-3078400D01*
X1938380Y-3014900D02*
G75*
G03*
X1938380Y-3014900I-63500J0D01*
G01*
X2311380Y-2741400D02*
X2438380Y-2868400D01*
X2438380Y-2741400D02*
X2311380Y-2868400D01*
X2438380Y-2804900D02*
G75*
G03*
X2438380Y-2804900I-63500J0D01*
G01*
X2811380Y-2951400D02*
X2938380Y-3078400D01*
X2938380Y-2951400D02*
X2811380Y-3078400D01*
X2938380Y-3014900D02*
G75*
G03*
X2938380Y-3014900I-63500J0D01*
G01*
X5430880Y-5694600D02*
X5557880Y-5821600D01*
X5557880Y-5694600D02*
X5430880Y-5821600D01*
X5557880Y-5758100D02*
G75*
G03*
X5557880Y-5758100I-63500J0D01*
G01*
X5930880Y-5484600D02*
X6057880Y-5611600D01*
X6057880Y-5484600D02*
X5930880Y-5611600D01*
X6057880Y-5548100D02*
G75*
G03*
X6057880Y-5548100I-63500J0D01*
G01*
X6430880Y-5694600D02*
X6557880Y-5821600D01*
X6557880Y-5694600D02*
X6430880Y-5821600D01*
X6557880Y-5758100D02*
G75*
G03*
X6557880Y-5758100I-63500J0D01*
G01*
X3621120Y-4665900D02*
X3748120Y-4792900D01*
X3748120Y-4665900D02*
X3621120Y-4792900D01*
X3748120Y-4729400D02*
G75*
G03*
X3748120Y-4729400I-63500J0D01*
G01*
X4121120Y-4455900D02*
X4248120Y-4582900D01*
X4248120Y-4455900D02*
X4121120Y-4582900D01*
X4248120Y-4519400D02*
G75*
G03*
X4248120Y-4519400I-63500J0D01*
G01*
X4621120Y-4665900D02*
X4748120Y-4792900D01*
X4748120Y-4665900D02*
X4621120Y-4792900D01*
X4748120Y-4729400D02*
G75*
G03*
X4748120Y-4729400I-63500J0D01*
G01*
X3621120Y-2951400D02*
X3748120Y-3078400D01*
X3748120Y-2951400D02*
X3621120Y-3078400D01*
X3748120Y-3014900D02*
G75*
G03*
X3748120Y-3014900I-63500J0D01*
G01*
X4121120Y-2741400D02*
X4248120Y-2868400D01*
X4248120Y-2741400D02*
X4121120Y-2868400D01*
X4248120Y-2804900D02*
G75*
G03*
X4248120Y-2804900I-63500J0D01*
G01*
X4621120Y-2951400D02*
X4748120Y-3078400D01*
X4748120Y-2951400D02*
X4621120Y-3078400D01*
X4748120Y-3014900D02*
G75*
G03*
X4748120Y-3014900I-63500J0D01*
G01*
X7240620Y-5370750D02*
X7367620Y-5497750D01*
X7367620Y-5370750D02*
X7240620Y-5497750D01*
X7367620Y-5434250D02*
G75*
G03*
X7367620Y-5434250I-63500J0D01*
G01*
X7740620Y-5160750D02*
X7867620Y-5287750D01*
X7867620Y-5160750D02*
X7740620Y-5287750D01*
X7867620Y-5224250D02*
G75*
G03*
X7867620Y-5224250I-63500J0D01*
G01*
X8240620Y-5370750D02*
X8367620Y-5497750D01*
X8367620Y-5370750D02*
X8240620Y-5497750D01*
X8367620Y-5434250D02*
G75*
G03*
X8367620Y-5434250I-63500J0D01*
G01*
X11046073Y-7730853D02*
X11173073Y-7857853D01*
X11173073Y-7730853D02*
X11046073Y-7857853D01*
X11173073Y-7794353D02*
G75*
G03*
X11173073Y-7794353I-63500J0D01*
G01*
X11556378Y-7547309D02*
X11683378Y-7674309D01*
X11683378Y-7547309D02*
X11556378Y-7674309D01*
X11683378Y-7610809D02*
G75*
G03*
X11683378Y-7610809I-63500J0D01*
G01*
X12044702Y-7783189D02*
X12171702Y-7910189D01*
X12171702Y-7783189D02*
X12044702Y-7910189D01*
X12171702Y-7846689D02*
G75*
G03*
X12171702Y-7846689I-63500J0D01*
G01*
X9128543Y-7757181D02*
X9255543Y-7884181D01*
X9255543Y-7757181D02*
X9128543Y-7884181D01*
X9255543Y-7820681D02*
G75*
G03*
X9255543Y-7820681I-63500J0D01*
G01*
X9620909Y-7529859D02*
X9747909Y-7656859D01*
X9747909Y-7529859D02*
X9620909Y-7656859D01*
X9747909Y-7593359D02*
G75*
G03*
X9747909Y-7593359I-63500J0D01*
G01*
X10127934Y-7722282D02*
X10254934Y-7849282D01*
X10254934Y-7722282D02*
X10127934Y-7849282D01*
X10254934Y-7785782D02*
G75*
G03*
X10254934Y-7785782I-63500J0D01*
G01*
X7240620Y-1941750D02*
X7367620Y-2068750D01*
X7367620Y-1941750D02*
X7240620Y-2068750D01*
X7367620Y-2005250D02*
G75*
G03*
X7367620Y-2005250I-63500J0D01*
G01*
X7740620Y-1731750D02*
X7867620Y-1858750D01*
X7867620Y-1731750D02*
X7740620Y-1858750D01*
X7867620Y-1795250D02*
G75*
G03*
X7867620Y-1795250I-63500J0D01*
G01*
X8240620Y-1941750D02*
X8367620Y-2068750D01*
X8367620Y-1941750D02*
X8240620Y-2068750D01*
X8367620Y-2005250D02*
G75*
G03*
X8367620Y-2005250I-63500J0D01*
G01*
X1811380Y-6380400D02*
X1938380Y-6507400D01*
X1938380Y-6380400D02*
X1811380Y-6507400D01*
X1938380Y-6443900D02*
G75*
G03*
X1938380Y-6443900I-63500J0D01*
G01*
X2311380Y-6170400D02*
X2438380Y-6297400D01*
X2438380Y-6170400D02*
X2311380Y-6297400D01*
X2438380Y-6233900D02*
G75*
G03*
X2438380Y-6233900I-63500J0D01*
G01*
X2811380Y-6380400D02*
X2938380Y-6507400D01*
X2938380Y-6380400D02*
X2811380Y-6507400D01*
X2938380Y-6443900D02*
G75*
G03*
X2938380Y-6443900I-63500J0D01*
G01*
X5430880Y-3980100D02*
X5557880Y-4107100D01*
X5557880Y-3980100D02*
X5430880Y-4107100D01*
X5557880Y-4043600D02*
G75*
G03*
X5557880Y-4043600I-63500J0D01*
G01*
X5930880Y-3770100D02*
X6057880Y-3897100D01*
X6057880Y-3770100D02*
X5930880Y-3897100D01*
X6057880Y-3833600D02*
G75*
G03*
X6057880Y-3833600I-63500J0D01*
G01*
X6430880Y-3980100D02*
X6557880Y-4107100D01*
X6557880Y-3980100D02*
X6430880Y-4107100D01*
X6557880Y-4043600D02*
G75*
G03*
X6557880Y-4043600I-63500J0D01*
G01*
X10860100Y-5847000D02*
X10987100Y-5974000D01*
X10987100Y-5847000D02*
X10860100Y-5974000D01*
X10987100Y-5910500D02*
G75*
G03*
X10987100Y-5910500I-63500J0D01*
G01*
X11360100Y-5637000D02*
X11487100Y-5764000D01*
X11487100Y-5637000D02*
X11360100Y-5764000D01*
X11487100Y-5700500D02*
G75*
G03*
X11487100Y-5700500I-63500J0D01*
G01*
X11860100Y-5847000D02*
X11987100Y-5974000D01*
X11987100Y-5847000D02*
X11860100Y-5974000D01*
X11987100Y-5910500D02*
G75*
G03*
X11987100Y-5910500I-63500J0D01*
G01*
X1811380Y-4665900D02*
X1938380Y-4792900D01*
X1938380Y-4665900D02*
X1811380Y-4792900D01*
X1938380Y-4729400D02*
G75*
G03*
X1938380Y-4729400I-63500J0D01*
G01*
X2311380Y-4455900D02*
X2438380Y-4582900D01*
X2438380Y-4455900D02*
X2311380Y-4582900D01*
X2438380Y-4519400D02*
G75*
G03*
X2438380Y-4519400I-63500J0D01*
G01*
X2811380Y-4665900D02*
X2938380Y-4792900D01*
X2938380Y-4665900D02*
X2811380Y-4792900D01*
X2938380Y-4729400D02*
G75*
G03*
X2938380Y-4729400I-63500J0D01*
G01*
X3621120Y-6380400D02*
X3748120Y-6507400D01*
X3748120Y-6380400D02*
X3621120Y-6507400D01*
X3748120Y-6443900D02*
G75*
G03*
X3748120Y-6443900I-63500J0D01*
G01*
X4121120Y-6170400D02*
X4248120Y-6297400D01*
X4248120Y-6170400D02*
X4121120Y-6297400D01*
X4248120Y-6233900D02*
G75*
G03*
X4248120Y-6233900I-63500J0D01*
G01*
X4621120Y-6380400D02*
X4748120Y-6507400D01*
X4748120Y-6380400D02*
X4621120Y-6507400D01*
X4748120Y-6443900D02*
G75*
G03*
X4748120Y-6443900I-63500J0D01*
G01*
X7268283Y-7895524D02*
X7395283Y-8022524D01*
X7395283Y-7895524D02*
X7268283Y-8022524D01*
X7395283Y-7959024D02*
G75*
G03*
X7395283Y-7959024I-63500J0D01*
G01*
X7748078Y-7642745D02*
X7875078Y-7769745D01*
X7875078Y-7642745D02*
X7748078Y-7769745D01*
X7875078Y-7706245D02*
G75*
G03*
X7875078Y-7706245I-63500J0D01*
G01*
X8264478Y-7808368D02*
X8391478Y-7935368D01*
X8391478Y-7808368D02*
X8264478Y-7935368D01*
X8391478Y-7871868D02*
G75*
G03*
X8391478Y-7871868I-63500J0D01*
G01*
X5312000Y-7852000D02*
X5512000Y-8052000D01*
X5512000Y-7852000D02*
X5312000Y-8052000D01*
X5412000Y-7852000D02*
X5412000Y-8052000D01*
X5312000Y-7952000D02*
X5512000Y-7952000D01*
X5322000Y-7927000D02*
X5322000Y-7977000D01*
X5502000Y-7927000D02*
X5502000Y-7977000D01*
X5322000Y-7977000D02*
G75*
G03*
X5502000Y-7977000I90000J0D01*
G01*
X5502000Y-7927000D02*
G75*
G03*
X5322000Y-7927000I-90000J0D01*
G01*
X6432000Y-7852000D02*
X6632000Y-8052000D01*
X6632000Y-7852000D02*
X6432000Y-8052000D01*
X6532000Y-7852000D02*
X6532000Y-8052000D01*
X6432000Y-7952000D02*
X6632000Y-7952000D01*
X6442000Y-7927000D02*
X6442000Y-7977000D01*
X6622000Y-7927000D02*
X6622000Y-7977000D01*
X6442000Y-7977000D02*
G75*
G03*
X6622000Y-7977000I90000J0D01*
G01*
X6622000Y-7927000D02*
G75*
G03*
X6442000Y-7927000I-90000J0D01*
G01*
X9042350Y-3079570D02*
X9141410Y-3178630D01*
X9141410Y-3079570D02*
X9042350Y-3178630D01*
X9126903Y-3164123D02*
X9126903Y-3094077D01*
X9056857Y-3094077D01*
X9056857Y-3164123D01*
X9126903Y-3164123D01*
X10086350Y-3079570D02*
X10185410Y-3178630D01*
X10185410Y-3079570D02*
X10086350Y-3178630D01*
X10170903Y-3164123D02*
X10170903Y-3094077D01*
X10100857Y-3094077D01*
X10100857Y-3164123D01*
X10170903Y-3164123D01*
X10852070Y-4946470D02*
X10951130Y-5045530D01*
X10951130Y-4946470D02*
X10852070Y-5045530D01*
X10936623Y-5031023D02*
X10936623Y-4960977D01*
X10866577Y-4960977D01*
X10866577Y-5031023D01*
X10936623Y-5031023D01*
X11896070Y-4946470D02*
X11995130Y-5045530D01*
X11995130Y-4946470D02*
X11896070Y-5045530D01*
X11980623Y-5031023D02*
X11980623Y-4960977D01*
X11910577Y-4960977D01*
X11910577Y-5031023D01*
X11980623Y-5031023D01*
X12835097Y-8676734D02*
X12934157Y-8775794D01*
X12934157Y-8676734D02*
X12835097Y-8775794D01*
X12919651Y-8761288D02*
X12919651Y-8691241D01*
X12849604Y-8691241D01*
X12849604Y-8761288D01*
X12919651Y-8761288D01*
X13868937Y-8822031D02*
X13967997Y-8921091D01*
X13967997Y-8822031D02*
X13868937Y-8921091D01*
X13953490Y-8906584D02*
X13953490Y-8836538D01*
X13883444Y-8836538D01*
X13883444Y-8906584D01*
X13953490Y-8906584D01*
X7232590Y-4470220D02*
X7331650Y-4569280D01*
X7331650Y-4470220D02*
X7232590Y-4569280D01*
X7317143Y-4554773D02*
X7317143Y-4484727D01*
X7247097Y-4484727D01*
X7247097Y-4554773D01*
X7317143Y-4554773D01*
X8276590Y-4470220D02*
X8375650Y-4569280D01*
X8375650Y-4470220D02*
X8276590Y-4569280D01*
X8361143Y-4554773D02*
X8361143Y-4484727D01*
X8291097Y-4484727D01*
X8291097Y-4554773D01*
X8361143Y-4554773D01*
X1803350Y-3765370D02*
X1902410Y-3864430D01*
X1902410Y-3765370D02*
X1803350Y-3864430D01*
X1887903Y-3849923D02*
X1887903Y-3779877D01*
X1817857Y-3779877D01*
X1817857Y-3849923D01*
X1887903Y-3849923D01*
X2847350Y-3765370D02*
X2946410Y-3864430D01*
X2946410Y-3765370D02*
X2847350Y-3864430D01*
X2931903Y-3849923D02*
X2931903Y-3779877D01*
X2861857Y-3779877D01*
X2861857Y-3849923D01*
X2931903Y-3849923D01*
X5422850Y-6508570D02*
X5521910Y-6607630D01*
X5521910Y-6508570D02*
X5422850Y-6607630D01*
X5507403Y-6593123D02*
X5507403Y-6523077D01*
X5437357Y-6523077D01*
X5437357Y-6593123D01*
X5507403Y-6593123D01*
X6466850Y-6508570D02*
X6565910Y-6607630D01*
X6565910Y-6508570D02*
X6466850Y-6607630D01*
X6551403Y-6593123D02*
X6551403Y-6523077D01*
X6481357Y-6523077D01*
X6481357Y-6593123D01*
X6551403Y-6593123D01*
X3613090Y-5479870D02*
X3712150Y-5578930D01*
X3712150Y-5479870D02*
X3613090Y-5578930D01*
X3697643Y-5564423D02*
X3697643Y-5494377D01*
X3627597Y-5494377D01*
X3627597Y-5564423D01*
X3697643Y-5564423D01*
X4657090Y-5479870D02*
X4756150Y-5578930D01*
X4756150Y-5479870D02*
X4657090Y-5578930D01*
X4741643Y-5564423D02*
X4741643Y-5494377D01*
X4671597Y-5494377D01*
X4671597Y-5564423D01*
X4741643Y-5564423D01*
X3613090Y-3765370D02*
X3712150Y-3864430D01*
X3712150Y-3765370D02*
X3613090Y-3864430D01*
X3697643Y-3849923D02*
X3697643Y-3779877D01*
X3627597Y-3779877D01*
X3627597Y-3849923D01*
X3697643Y-3849923D01*
X4657090Y-3765370D02*
X4756150Y-3864430D01*
X4756150Y-3765370D02*
X4657090Y-3864430D01*
X4741643Y-3849923D02*
X4741643Y-3779877D01*
X4671597Y-3779877D01*
X4671597Y-3849923D01*
X4741643Y-3849923D01*
X7232590Y-6184720D02*
X7331650Y-6283780D01*
X7331650Y-6184720D02*
X7232590Y-6283780D01*
X7317143Y-6269273D02*
X7317143Y-6199227D01*
X7247097Y-6199227D01*
X7247097Y-6269273D01*
X7317143Y-6269273D01*
X8276590Y-6184720D02*
X8375650Y-6283780D01*
X8375650Y-6184720D02*
X8276590Y-6283780D01*
X8361143Y-6269273D02*
X8361143Y-6199227D01*
X8291097Y-6199227D01*
X8291097Y-6269273D01*
X8361143Y-6269273D01*
X10996204Y-8542575D02*
X11095264Y-8641635D01*
X11095264Y-8542575D02*
X10996204Y-8641635D01*
X11080758Y-8627128D02*
X11080758Y-8557082D01*
X11010711Y-8557082D01*
X11010711Y-8627128D01*
X11080758Y-8627128D01*
X12038773Y-8597214D02*
X12137833Y-8696274D01*
X12137833Y-8597214D02*
X12038773Y-8696274D01*
X12123327Y-8681767D02*
X12123327Y-8611721D01*
X12053280Y-8611721D01*
X12053280Y-8681767D01*
X12123327Y-8681767D01*
X9148446Y-8571432D02*
X9247506Y-8670492D01*
X9247506Y-8571432D02*
X9148446Y-8670492D01*
X9232999Y-8655985D02*
X9232999Y-8585938D01*
X9162953Y-8585938D01*
X9162953Y-8655985D01*
X9232999Y-8655985D01*
X10191810Y-8534997D02*
X10290870Y-8634057D01*
X10290870Y-8534997D02*
X10191810Y-8634057D01*
X10276363Y-8619550D02*
X10276363Y-8549503D01*
X10206317Y-8549503D01*
X10206317Y-8619550D01*
X10276363Y-8619550D01*
X7232590Y-2755720D02*
X7331650Y-2854780D01*
X7331650Y-2755720D02*
X7232590Y-2854780D01*
X7317143Y-2840273D02*
X7317143Y-2770227D01*
X7247097Y-2770227D01*
X7247097Y-2840273D01*
X7317143Y-2840273D01*
X8276590Y-2755720D02*
X8375650Y-2854780D01*
X8375650Y-2755720D02*
X8276590Y-2854780D01*
X8361143Y-2840273D02*
X8361143Y-2770227D01*
X8291097Y-2770227D01*
X8291097Y-2840273D01*
X8361143Y-2840273D01*
X1803350Y-7194370D02*
X1902410Y-7293430D01*
X1902410Y-7194370D02*
X1803350Y-7293430D01*
X1887903Y-7278923D02*
X1887903Y-7208877D01*
X1817857Y-7208877D01*
X1817857Y-7278923D01*
X1887903Y-7278923D01*
X2847350Y-7194370D02*
X2946410Y-7293430D01*
X2946410Y-7194370D02*
X2847350Y-7293430D01*
X2931903Y-7278923D02*
X2931903Y-7208877D01*
X2861857Y-7208877D01*
X2861857Y-7278923D01*
X2931903Y-7278923D01*
X5422850Y-4794070D02*
X5521910Y-4893130D01*
X5521910Y-4794070D02*
X5422850Y-4893130D01*
X5507403Y-4878623D02*
X5507403Y-4808577D01*
X5437357Y-4808577D01*
X5437357Y-4878623D01*
X5507403Y-4878623D01*
X6466850Y-4794070D02*
X6565910Y-4893130D01*
X6565910Y-4794070D02*
X6466850Y-4893130D01*
X6551403Y-4878623D02*
X6551403Y-4808577D01*
X6481357Y-4808577D01*
X6481357Y-4878623D01*
X6551403Y-4878623D01*
X10852070Y-6660970D02*
X10951130Y-6760030D01*
X10951130Y-6660970D02*
X10852070Y-6760030D01*
X10936623Y-6745523D02*
X10936623Y-6675477D01*
X10866577Y-6675477D01*
X10866577Y-6745523D01*
X10936623Y-6745523D01*
X11896070Y-6660970D02*
X11995130Y-6760030D01*
X11995130Y-6660970D02*
X11896070Y-6760030D01*
X11980623Y-6745523D02*
X11980623Y-6675477D01*
X11910577Y-6675477D01*
X11910577Y-6745523D01*
X11980623Y-6745523D01*
X1803350Y-5479870D02*
X1902410Y-5578930D01*
X1902410Y-5479870D02*
X1803350Y-5578930D01*
X1887903Y-5564423D02*
X1887903Y-5494377D01*
X1817857Y-5494377D01*
X1817857Y-5564423D01*
X1887903Y-5564423D01*
X2847350Y-5479870D02*
X2946410Y-5578930D01*
X2946410Y-5479870D02*
X2847350Y-5578930D01*
X2931903Y-5564423D02*
X2931903Y-5494377D01*
X2861857Y-5494377D01*
X2861857Y-5564423D01*
X2931903Y-5564423D01*
X3613090Y-7194370D02*
X3712150Y-7293430D01*
X3712150Y-7194370D02*
X3613090Y-7293430D01*
X3697643Y-7278923D02*
X3697643Y-7208877D01*
X3627597Y-7208877D01*
X3627597Y-7278923D01*
X3697643Y-7278923D01*
X4657090Y-7194370D02*
X4756150Y-7293430D01*
X4756150Y-7194370D02*
X4657090Y-7293430D01*
X4741643Y-7278923D02*
X4741643Y-7208877D01*
X4671597Y-7208877D01*
X4671597Y-7278923D01*
X4741643Y-7278923D01*
X7330062Y-8708367D02*
X7429122Y-8807427D01*
X7429122Y-8708367D02*
X7330062Y-8807427D01*
X7414615Y-8792920D02*
X7414615Y-8722874D01*
X7344568Y-8722874D01*
X7344568Y-8792920D01*
X7414615Y-8792920D01*
X8370089Y-8617377D02*
X8469149Y-8716437D01*
X8469149Y-8617377D02*
X8370089Y-8716437D01*
X8454642Y-8701930D02*
X8454642Y-8631883D01*
X8384596Y-8631883D01*
X8384596Y-8701930D01*
X8454642Y-8701930D01*
X9042350Y-6508570D02*
X9141410Y-6607630D01*
X9141410Y-6508570D02*
X9042350Y-6607630D01*
X9126903Y-6593123D02*
X9126903Y-6523077D01*
X9056857Y-6523077D01*
X9056857Y-6593123D01*
X9126903Y-6593123D01*
X10086350Y-6508570D02*
X10185410Y-6607630D01*
X10185410Y-6508570D02*
X10086350Y-6607630D01*
X10170903Y-6593123D02*
X10170903Y-6523077D01*
X10100857Y-6523077D01*
X10100857Y-6593123D01*
X10170903Y-6593123D01*
X5422850Y-3079570D02*
X5521910Y-3178630D01*
X5521910Y-3079570D02*
X5422850Y-3178630D01*
X5507403Y-3164123D02*
X5507403Y-3094077D01*
X5437357Y-3094077D01*
X5437357Y-3164123D01*
X5507403Y-3164123D01*
X6466850Y-3079570D02*
X6565910Y-3178630D01*
X6565910Y-3079570D02*
X6466850Y-3178630D01*
X6551403Y-3164123D02*
X6551403Y-3094077D01*
X6481357Y-3094077D01*
X6481357Y-3164123D01*
X6551403Y-3164123D01*
X10852070Y-3231970D02*
X10951130Y-3331030D01*
X10951130Y-3231970D02*
X10852070Y-3331030D01*
X10936623Y-3316523D02*
X10936623Y-3246477D01*
X10866577Y-3246477D01*
X10866577Y-3316523D01*
X10936623Y-3316523D01*
X11896070Y-3231970D02*
X11995130Y-3331030D01*
X11995130Y-3231970D02*
X11896070Y-3331030D01*
X11980623Y-3316523D02*
X11980623Y-3246477D01*
X11910577Y-3246477D01*
X11910577Y-3316523D01*
X11980623Y-3316523D01*
X9042350Y-4794070D02*
X9141410Y-4893130D01*
X9141410Y-4794070D02*
X9042350Y-4893130D01*
X9126903Y-4878623D02*
X9126903Y-4808577D01*
X9056857Y-4808577D01*
X9056857Y-4878623D01*
X9126903Y-4878623D01*
X10086350Y-4794070D02*
X10185410Y-4893130D01*
X10185410Y-4794070D02*
X10086350Y-4893130D01*
X10170903Y-4878623D02*
X10170903Y-4808577D01*
X10100857Y-4808577D01*
X10100857Y-4878623D01*
X10170903Y-4878623D01*
X5359290Y-6053010D02*
X5529470Y-6223190D01*
X5529470Y-6053010D02*
X5359290Y-6223190D01*
X5444380Y-6223190D02*
X5529470Y-6138100D01*
X5444380Y-6053010D01*
X5359290Y-6138100D01*
X5444380Y-6223190D01*
X6459290Y-6053010D02*
X6629470Y-6223190D01*
X6629470Y-6053010D02*
X6459290Y-6223190D01*
X6544380Y-6223190D02*
X6629470Y-6138100D01*
X6544380Y-6053010D01*
X6459290Y-6138100D01*
X6544380Y-6223190D01*
X3549530Y-5024310D02*
X3719710Y-5194490D01*
X3719710Y-5024310D02*
X3549530Y-5194490D01*
X3634620Y-5194490D02*
X3719710Y-5109400D01*
X3634620Y-5024310D01*
X3549530Y-5109400D01*
X3634620Y-5194490D01*
X4649530Y-5024310D02*
X4819710Y-5194490D01*
X4819710Y-5024310D02*
X4649530Y-5194490D01*
X4734620Y-5194490D02*
X4819710Y-5109400D01*
X4734620Y-5024310D01*
X4649530Y-5109400D01*
X4734620Y-5194490D01*
X3549530Y-3309810D02*
X3719710Y-3479990D01*
X3719710Y-3309810D02*
X3549530Y-3479990D01*
X3634620Y-3479990D02*
X3719710Y-3394900D01*
X3634620Y-3309810D01*
X3549530Y-3394900D01*
X3634620Y-3479990D01*
X4649530Y-3309810D02*
X4819710Y-3479990D01*
X4819710Y-3309810D02*
X4649530Y-3479990D01*
X4734620Y-3479990D02*
X4819710Y-3394900D01*
X4734620Y-3309810D01*
X4649530Y-3394900D01*
X4734620Y-3479990D01*
X7169030Y-5729160D02*
X7339210Y-5899340D01*
X7339210Y-5729160D02*
X7169030Y-5899340D01*
X7254120Y-5899340D02*
X7339210Y-5814250D01*
X7254120Y-5729160D01*
X7169030Y-5814250D01*
X7254120Y-5899340D01*
X8269030Y-5729160D02*
X8439210Y-5899340D01*
X8439210Y-5729160D02*
X8269030Y-5899340D01*
X8354120Y-5899340D02*
X8439210Y-5814250D01*
X8354120Y-5729160D01*
X8269030Y-5814250D01*
X8354120Y-5899340D01*
X10954664Y-8086125D02*
X11124844Y-8256305D01*
X11124844Y-8086125D02*
X10954664Y-8256305D01*
X11039754Y-8256305D02*
X11124844Y-8171215D01*
X11039754Y-8086125D01*
X10954664Y-8171215D01*
X11039754Y-8256305D01*
X12053156Y-8143695D02*
X12223336Y-8313875D01*
X12223336Y-8143695D02*
X12053156Y-8313875D01*
X12138246Y-8313875D02*
X12223336Y-8228785D01*
X12138246Y-8143695D01*
X12053156Y-8228785D01*
X12138246Y-8313875D01*
X9070245Y-8117105D02*
X9240425Y-8287285D01*
X9240425Y-8117105D02*
X9070245Y-8287285D01*
X9155335Y-8287285D02*
X9240425Y-8202195D01*
X9155335Y-8117105D01*
X9070245Y-8202195D01*
X9155335Y-8287285D01*
X10169575Y-8078715D02*
X10339755Y-8248895D01*
X10339755Y-8078715D02*
X10169575Y-8248895D01*
X10254665Y-8248895D02*
X10339755Y-8163805D01*
X10254665Y-8078715D01*
X10169575Y-8163805D01*
X10254665Y-8248895D01*
X7169030Y-2300160D02*
X7339210Y-2470340D01*
X7339210Y-2300160D02*
X7169030Y-2470340D01*
X7254120Y-2470340D02*
X7339210Y-2385250D01*
X7254120Y-2300160D01*
X7169030Y-2385250D01*
X7254120Y-2470340D01*
X8269030Y-2300160D02*
X8439210Y-2470340D01*
X8439210Y-2300160D02*
X8269030Y-2470340D01*
X8354120Y-2470340D02*
X8439210Y-2385250D01*
X8354120Y-2300160D01*
X8269030Y-2385250D01*
X8354120Y-2470340D01*
X1739790Y-6738810D02*
X1909970Y-6908990D01*
X1909970Y-6738810D02*
X1739790Y-6908990D01*
X1824880Y-6908990D02*
X1909970Y-6823900D01*
X1824880Y-6738810D01*
X1739790Y-6823900D01*
X1824880Y-6908990D01*
X2839790Y-6738810D02*
X3009970Y-6908990D01*
X3009970Y-6738810D02*
X2839790Y-6908990D01*
X2924880Y-6908990D02*
X3009970Y-6823900D01*
X2924880Y-6738810D01*
X2839790Y-6823900D01*
X2924880Y-6908990D01*
X5359290Y-4338510D02*
X5529470Y-4508690D01*
X5529470Y-4338510D02*
X5359290Y-4508690D01*
X5444380Y-4508690D02*
X5529470Y-4423600D01*
X5444380Y-4338510D01*
X5359290Y-4423600D01*
X5444380Y-4508690D01*
X6459290Y-4338510D02*
X6629470Y-4508690D01*
X6629470Y-4338510D02*
X6459290Y-4508690D01*
X6544380Y-4508690D02*
X6629470Y-4423600D01*
X6544380Y-4338510D01*
X6459290Y-4423600D01*
X6544380Y-4508690D01*
X10788510Y-6205410D02*
X10958690Y-6375590D01*
X10958690Y-6205410D02*
X10788510Y-6375590D01*
X10873600Y-6375590D02*
X10958690Y-6290500D01*
X10873600Y-6205410D01*
X10788510Y-6290500D01*
X10873600Y-6375590D01*
X11888510Y-6205410D02*
X12058690Y-6375590D01*
X12058690Y-6205410D02*
X11888510Y-6375590D01*
X11973600Y-6375590D02*
X12058690Y-6290500D01*
X11973600Y-6205410D01*
X11888510Y-6290500D01*
X11973600Y-6375590D01*
X1739790Y-5024310D02*
X1909970Y-5194490D01*
X1909970Y-5024310D02*
X1739790Y-5194490D01*
X1824880Y-5194490D02*
X1909970Y-5109400D01*
X1824880Y-5024310D01*
X1739790Y-5109400D01*
X1824880Y-5194490D01*
X2839790Y-5024310D02*
X3009970Y-5194490D01*
X3009970Y-5024310D02*
X2839790Y-5194490D01*
X2924880Y-5194490D02*
X3009970Y-5109400D01*
X2924880Y-5024310D01*
X2839790Y-5109400D01*
X2924880Y-5194490D01*
X3549530Y-6738810D02*
X3719710Y-6908990D01*
X3719710Y-6738810D02*
X3549530Y-6908990D01*
X3634620Y-6908990D02*
X3719710Y-6823900D01*
X3634620Y-6738810D01*
X3549530Y-6823900D01*
X3634620Y-6908990D01*
X4649530Y-6738810D02*
X4819710Y-6908990D01*
X4819710Y-6738810D02*
X4649530Y-6908990D01*
X4734620Y-6908990D02*
X4819710Y-6823900D01*
X4734620Y-6738810D01*
X4649530Y-6823900D01*
X4734620Y-6908990D01*
X7230003Y-8256846D02*
X7400183Y-8427026D01*
X7400183Y-8256846D02*
X7230003Y-8427026D01*
X7315093Y-8427026D02*
X7400183Y-8341936D01*
X7315093Y-8256846D01*
X7230003Y-8341936D01*
X7315093Y-8427026D01*
X8325817Y-8160974D02*
X8495997Y-8331154D01*
X8495997Y-8160974D02*
X8325817Y-8331154D01*
X8410907Y-8331154D02*
X8495997Y-8246064D01*
X8410907Y-8160974D01*
X8325817Y-8246064D01*
X8410907Y-8331154D01*
X8978790Y-6053010D02*
X9148970Y-6223190D01*
X9148970Y-6053010D02*
X8978790Y-6223190D01*
X9063880Y-6223190D02*
X9148970Y-6138100D01*
X9063880Y-6053010D01*
X8978790Y-6138100D01*
X9063880Y-6223190D01*
X10078790Y-6053010D02*
X10248970Y-6223190D01*
X10248970Y-6053010D02*
X10078790Y-6223190D01*
X10163880Y-6223190D02*
X10248970Y-6138100D01*
X10163880Y-6053010D01*
X10078790Y-6138100D01*
X10163880Y-6223190D01*
X5359290Y-2624010D02*
X5529470Y-2794190D01*
X5529470Y-2624010D02*
X5359290Y-2794190D01*
X5444380Y-2794190D02*
X5529470Y-2709100D01*
X5444380Y-2624010D01*
X5359290Y-2709100D01*
X5444380Y-2794190D01*
X6459290Y-2624010D02*
X6629470Y-2794190D01*
X6629470Y-2624010D02*
X6459290Y-2794190D01*
X6544380Y-2794190D02*
X6629470Y-2709100D01*
X6544380Y-2624010D01*
X6459290Y-2709100D01*
X6544380Y-2794190D01*
X10788510Y-2776410D02*
X10958690Y-2946590D01*
X10958690Y-2776410D02*
X10788510Y-2946590D01*
X10873600Y-2946590D02*
X10958690Y-2861500D01*
X10873600Y-2776410D01*
X10788510Y-2861500D01*
X10873600Y-2946590D01*
X11888510Y-2776410D02*
X12058690Y-2946590D01*
X12058690Y-2776410D02*
X11888510Y-2946590D01*
X11973600Y-2946590D02*
X12058690Y-2861500D01*
X11973600Y-2776410D01*
X11888510Y-2861500D01*
X11973600Y-2946590D01*
X8978790Y-4338510D02*
X9148970Y-4508690D01*
X9148970Y-4338510D02*
X8978790Y-4508690D01*
X9063880Y-4508690D02*
X9148970Y-4423600D01*
X9063880Y-4338510D01*
X8978790Y-4423600D01*
X9063880Y-4508690D01*
X10078790Y-4338510D02*
X10248970Y-4508690D01*
X10248970Y-4338510D02*
X10078790Y-4508690D01*
X10163880Y-4508690D02*
X10248970Y-4423600D01*
X10163880Y-4338510D01*
X10078790Y-4423600D01*
X10163880Y-4508690D01*
X8978790Y-2624010D02*
X9148970Y-2794190D01*
X9148970Y-2624010D02*
X8978790Y-2794190D01*
X9063880Y-2794190D02*
X9148970Y-2709100D01*
X9063880Y-2624010D01*
X8978790Y-2709100D01*
X9063880Y-2794190D01*
X10078790Y-2624010D02*
X10248970Y-2794190D01*
X10248970Y-2624010D02*
X10078790Y-2794190D01*
X10163880Y-2794190D02*
X10248970Y-2709100D01*
X10163880Y-2624010D01*
X10078790Y-2709100D01*
X10163880Y-2794190D01*
X10788510Y-4490910D02*
X10958690Y-4661090D01*
X10958690Y-4490910D02*
X10788510Y-4661090D01*
X10873600Y-4661090D02*
X10958690Y-4576000D01*
X10873600Y-4490910D01*
X10788510Y-4576000D01*
X10873600Y-4661090D01*
X11888510Y-4490910D02*
X12058690Y-4661090D01*
X12058690Y-4490910D02*
X11888510Y-4661090D01*
X11973600Y-4661090D02*
X12058690Y-4576000D01*
X11973600Y-4490910D01*
X11888510Y-4576000D01*
X11973600Y-4661090D01*
X12830263Y-8221365D02*
X13000443Y-8391545D01*
X13000443Y-8221365D02*
X12830263Y-8391545D01*
X12915353Y-8391545D02*
X13000443Y-8306455D01*
X12915353Y-8221365D01*
X12830263Y-8306455D01*
X12915353Y-8391545D01*
X13919557Y-8374455D02*
X14089737Y-8544635D01*
X14089737Y-8374455D02*
X13919557Y-8544635D01*
X14004647Y-8544635D02*
X14089737Y-8459545D01*
X14004647Y-8374455D01*
X13919557Y-8459545D01*
X14004647Y-8544635D01*
X7169030Y-4014660D02*
X7339210Y-4184840D01*
X7339210Y-4014660D02*
X7169030Y-4184840D01*
X7254120Y-4184840D02*
X7339210Y-4099750D01*
X7254120Y-4014660D01*
X7169030Y-4099750D01*
X7254120Y-4184840D01*
X8269030Y-4014660D02*
X8439210Y-4184840D01*
X8439210Y-4014660D02*
X8269030Y-4184840D01*
X8354120Y-4184840D02*
X8439210Y-4099750D01*
X8354120Y-4014660D01*
X8269030Y-4099750D01*
X8354120Y-4184840D01*
X1739790Y-3309810D02*
X1909970Y-3479990D01*
X1909970Y-3309810D02*
X1739790Y-3479990D01*
X1824880Y-3479990D02*
X1909970Y-3394900D01*
X1824880Y-3309810D01*
X1739790Y-3394900D01*
X1824880Y-3479990D01*
X2839790Y-3309810D02*
X3009970Y-3479990D01*
X3009970Y-3309810D02*
X2839790Y-3479990D01*
X2924880Y-3479990D02*
X3009970Y-3394900D01*
X2924880Y-3309810D01*
X2839790Y-3394900D01*
X2924880Y-3479990D01*
X4810000Y-2140000D02*
X4810000Y-2360000D01*
X4700000Y-2250000D02*
X4920000Y-2250000D01*
X4920000Y-2250000D02*
G75*
G03*
X4920000Y-2250000I-110000J0D01*
G01*
X7750000Y-6840000D02*
X7750000Y-7060000D01*
X7640000Y-6950000D02*
X7860000Y-6950000D01*
X7860000Y-6950000D02*
G75*
G03*
X7860000Y-6950000I-110000J0D01*
G01*
X10550000Y-1920000D02*
X10550000Y-2140000D01*
X10440000Y-2030000D02*
X10660000Y-2030000D01*
X10660000Y-2030000D02*
G75*
G03*
X10660000Y-2030000I-110000J0D01*
G01*
X12940000Y-6500000D02*
X12940000Y-6720000D01*
X12830000Y-6610000D02*
X13050000Y-6610000D01*
X13050000Y-6610000D02*
G75*
G03*
X13050000Y-6610000I-110000J0D01*
G01*
X14140000Y-7240000D02*
X14140000Y-7460000D01*
X14030000Y-7350000D02*
X14250000Y-7350000D01*
X14250000Y-7350000D02*
G75*
G03*
X14250000Y-7350000I-110000J0D01*
G01*
X4780000Y-8010000D02*
X4780000Y-8230000D01*
X4670000Y-8120000D02*
X4890000Y-8120000D01*
X4890000Y-8120000D02*
G75*
G03*
X4890000Y-8120000I-110000J0D01*
G01*
X12740000Y-7040000D02*
X12740000Y-7260000D01*
X12630000Y-7150000D02*
X12850000Y-7150000D01*
X12850000Y-7150000D02*
G75*
G03*
X12850000Y-7150000I-110000J0D01*
G01*
X6115615Y-6259335D02*
X6115615Y-6016865D01*
X5873145Y-6016865D01*
X5873145Y-6259335D01*
X6115615Y-6259335D01*
X6165830Y-6138100D02*
G75*
G03*
X6165830Y-6138100I-171450J0D01*
G01*
X4305855Y-5230635D02*
X4305855Y-4988165D01*
X4063385Y-4988165D01*
X4063385Y-5230635D01*
X4305855Y-5230635D01*
X4356070Y-5109400D02*
G75*
G03*
X4356070Y-5109400I-171450J0D01*
G01*
X4305855Y-3516135D02*
X4305855Y-3273665D01*
X4063385Y-3273665D01*
X4063385Y-3516135D01*
X4305855Y-3516135D01*
X4356070Y-3394900D02*
G75*
G03*
X4356070Y-3394900I-171450J0D01*
G01*
X7925355Y-5935485D02*
X7925355Y-5693015D01*
X7682885Y-5693015D01*
X7682885Y-5935485D01*
X7925355Y-5935485D01*
X7975570Y-5814250D02*
G75*
G03*
X7975570Y-5814250I-171450J0D01*
G01*
X11710235Y-8321235D02*
X11710235Y-8078765D01*
X11467765Y-8078765D01*
X11467765Y-8321235D01*
X11710235Y-8321235D01*
X11760450Y-8200000D02*
G75*
G03*
X11760450Y-8200000I-171450J0D01*
G01*
X9826235Y-8304235D02*
X9826235Y-8061765D01*
X9583765Y-8061765D01*
X9583765Y-8304235D01*
X9826235Y-8304235D01*
X9876450Y-8183000D02*
G75*
G03*
X9876450Y-8183000I-171450J0D01*
G01*
X7925355Y-2506485D02*
X7925355Y-2264015D01*
X7682885Y-2264015D01*
X7682885Y-2506485D01*
X7925355Y-2506485D01*
X7975570Y-2385250D02*
G75*
G03*
X7975570Y-2385250I-171450J0D01*
G01*
X2496115Y-6945135D02*
X2496115Y-6702665D01*
X2253645Y-6702665D01*
X2253645Y-6945135D01*
X2496115Y-6945135D01*
X2546330Y-6823900D02*
G75*
G03*
X2546330Y-6823900I-171450J0D01*
G01*
X6115615Y-4544835D02*
X6115615Y-4302365D01*
X5873145Y-4302365D01*
X5873145Y-4544835D01*
X6115615Y-4544835D01*
X6165830Y-4423600D02*
G75*
G03*
X6165830Y-4423600I-171450J0D01*
G01*
X11544835Y-6411735D02*
X11544835Y-6169265D01*
X11302365Y-6169265D01*
X11302365Y-6411735D01*
X11544835Y-6411735D01*
X11595050Y-6290500D02*
G75*
G03*
X11595050Y-6290500I-171450J0D01*
G01*
X2496115Y-5230635D02*
X2496115Y-4988165D01*
X2253645Y-4988165D01*
X2253645Y-5230635D01*
X2496115Y-5230635D01*
X2546330Y-5109400D02*
G75*
G03*
X2546330Y-5109400I-171450J0D01*
G01*
X4305855Y-6945135D02*
X4305855Y-6702665D01*
X4063385Y-6702665D01*
X4063385Y-6945135D01*
X4305855Y-6945135D01*
X4356070Y-6823900D02*
G75*
G03*
X4356070Y-6823900I-171450J0D01*
G01*
X7984235Y-8415235D02*
X7984235Y-8172765D01*
X7741765Y-8172765D01*
X7741765Y-8415235D01*
X7984235Y-8415235D01*
X8034450Y-8294000D02*
G75*
G03*
X8034450Y-8294000I-171450J0D01*
G01*
X9735115Y-6259335D02*
X9735115Y-6016865D01*
X9492645Y-6016865D01*
X9492645Y-6259335D01*
X9735115Y-6259335D01*
X9785330Y-6138100D02*
G75*
G03*
X9785330Y-6138100I-171450J0D01*
G01*
X6115615Y-2830335D02*
X6115615Y-2587865D01*
X5873145Y-2587865D01*
X5873145Y-2830335D01*
X6115615Y-2830335D01*
X6165830Y-2709100D02*
G75*
G03*
X6165830Y-2709100I-171450J0D01*
G01*
X11544835Y-2982735D02*
X11544835Y-2740265D01*
X11302365Y-2740265D01*
X11302365Y-2982735D01*
X11544835Y-2982735D01*
X11595050Y-2861500D02*
G75*
G03*
X11595050Y-2861500I-171450J0D01*
G01*
X9735115Y-4544835D02*
X9735115Y-4302365D01*
X9492645Y-4302365D01*
X9492645Y-4544835D01*
X9735115Y-4544835D01*
X9785330Y-4423600D02*
G75*
G03*
X9785330Y-4423600I-171450J0D01*
G01*
X9735115Y-2830335D02*
X9735115Y-2587865D01*
X9492645Y-2587865D01*
X9492645Y-2830335D01*
X9735115Y-2830335D01*
X9785330Y-2709100D02*
G75*
G03*
X9785330Y-2709100I-171450J0D01*
G01*
X11544835Y-4697235D02*
X11544835Y-4454765D01*
X11302365Y-4454765D01*
X11302365Y-4697235D01*
X11544835Y-4697235D01*
X11595050Y-4576000D02*
G75*
G03*
X11595050Y-4576000I-171450J0D01*
G01*
X13581235Y-8504235D02*
X13581235Y-8261765D01*
X13338765Y-8261765D01*
X13338765Y-8504235D01*
X13581235Y-8504235D01*
X13631450Y-8383000D02*
G75*
G03*
X13631450Y-8383000I-171450J0D01*
G01*
X7925355Y-4220985D02*
X7925355Y-3978515D01*
X7682885Y-3978515D01*
X7682885Y-4220985D01*
X7925355Y-4220985D01*
X7975570Y-4099750D02*
G75*
G03*
X7975570Y-4099750I-171450J0D01*
G01*
X2496115Y-3516135D02*
X2496115Y-3273665D01*
X2253645Y-3273665D01*
X2253645Y-3516135D01*
X2496115Y-3516135D01*
X2546330Y-3394900D02*
G75*
G03*
X2546330Y-3394900I-171450J0D01*
G01*
D12*
X1758325Y-9800872D02*
X1758325Y-9500872D01*
X1829753Y-9500872D01*
X1872610Y-9515158D01*
X1901182Y-9543730D01*
X1915468Y-9572301D01*
X1929753Y-9629444D01*
X1929753Y-9672301D01*
X1915468Y-9729444D01*
X1901182Y-9758015D01*
X1872610Y-9786587D01*
X1829753Y-9800872D01*
X1758325Y-9800872D01*
X2058325Y-9800872D02*
X2058325Y-9600872D01*
X2058325Y-9658015D02*
X2072610Y-9629444D01*
X2086896Y-9615158D01*
X2115468Y-9600872D01*
X2144039Y-9600872D01*
X2244039Y-9800872D02*
X2244039Y-9600872D01*
X2244039Y-9500872D02*
X2229753Y-9515158D01*
X2244039Y-9529444D01*
X2258325Y-9515158D01*
X2244039Y-9500872D01*
X2244039Y-9529444D01*
X2429753Y-9800872D02*
X2401182Y-9786587D01*
X2386896Y-9758015D01*
X2386896Y-9500872D01*
X2586896Y-9800872D02*
X2558325Y-9786587D01*
X2544039Y-9758015D01*
X2544039Y-9500872D01*
X2929753Y-9800872D02*
X2929753Y-9500872D01*
X3029753Y-9715158D01*
X3129753Y-9500872D01*
X3129753Y-9800872D01*
X3401182Y-9800872D02*
X3401182Y-9643730D01*
X3386896Y-9615158D01*
X3358325Y-9600872D01*
X3301182Y-9600872D01*
X3272610Y-9615158D01*
X3401182Y-9786587D02*
X3372610Y-9800872D01*
X3301182Y-9800872D01*
X3272610Y-9786587D01*
X3258325Y-9758015D01*
X3258325Y-9729444D01*
X3272610Y-9700872D01*
X3301182Y-9686587D01*
X3372610Y-9686587D01*
X3401182Y-9672301D01*
X3544039Y-9600872D02*
X3544039Y-9900872D01*
X3544039Y-9615158D02*
X3572610Y-9600872D01*
X3629753Y-9600872D01*
X3658325Y-9615158D01*
X3672610Y-9629444D01*
X3686896Y-9658015D01*
X3686896Y-9743730D01*
X3672610Y-9772301D01*
X3658325Y-9786587D01*
X3629753Y-9800872D01*
X3572610Y-9800872D01*
X3544039Y-9786587D01*
X3815468Y-9772301D02*
X3829753Y-9786587D01*
X3815468Y-9800872D01*
X3801182Y-9786587D01*
X3815468Y-9772301D01*
X3815468Y-9800872D01*
X3815468Y-9615158D02*
X3829753Y-9629444D01*
X3815468Y-9643730D01*
X3801182Y-9629444D01*
X3815468Y-9615158D01*
X3815468Y-9643730D01*
X1431896Y-10275158D02*
X1471896Y-10315158D01*
X1471896Y-10275158D02*
X1431896Y-10315158D01*
X1815468Y-10130872D02*
X1844039Y-10130872D01*
X1872610Y-10145158D01*
X1886896Y-10159444D01*
X1901182Y-10188015D01*
X1915468Y-10245158D01*
X1915468Y-10316587D01*
X1901182Y-10373730D01*
X1886896Y-10402301D01*
X1872610Y-10416587D01*
X1844039Y-10430872D01*
X1815468Y-10430872D01*
X1786896Y-10416587D01*
X1772610Y-10402301D01*
X1758325Y-10373730D01*
X1744039Y-10316587D01*
X1744039Y-10245158D01*
X1758325Y-10188015D01*
X1772610Y-10159444D01*
X1786896Y-10145158D01*
X1815468Y-10130872D01*
X2044039Y-10402301D02*
X2058325Y-10416587D01*
X2044039Y-10430872D01*
X2029753Y-10416587D01*
X2044039Y-10402301D01*
X2044039Y-10430872D01*
X2315468Y-10230872D02*
X2315468Y-10430872D01*
X2244039Y-10116587D02*
X2172611Y-10330872D01*
X2358325Y-10330872D01*
X2529753Y-10130872D02*
X2558325Y-10130872D01*
X2586896Y-10145158D01*
X2601182Y-10159444D01*
X2615468Y-10188015D01*
X2629753Y-10245158D01*
X2629753Y-10316587D01*
X2615468Y-10373730D01*
X2601182Y-10402301D01*
X2586896Y-10416587D01*
X2558325Y-10430872D01*
X2529753Y-10430872D01*
X2501182Y-10416587D01*
X2486896Y-10402301D01*
X2472611Y-10373730D01*
X2458325Y-10316587D01*
X2458325Y-10245158D01*
X2472611Y-10188015D01*
X2486896Y-10159444D01*
X2501182Y-10145158D01*
X2529753Y-10130872D01*
X2758325Y-10430872D02*
X2758325Y-10230872D01*
X2758325Y-10259444D02*
X2772611Y-10245158D01*
X2801182Y-10230872D01*
X2844039Y-10230872D01*
X2872610Y-10245158D01*
X2886896Y-10273730D01*
X2886896Y-10430872D01*
X2886896Y-10273730D02*
X2901182Y-10245158D01*
X2929753Y-10230872D01*
X2972610Y-10230872D01*
X3001182Y-10245158D01*
X3015468Y-10273730D01*
X3015468Y-10430872D01*
X3158325Y-10430872D02*
X3158325Y-10230872D01*
X3158325Y-10259444D02*
X3172610Y-10245158D01*
X3201182Y-10230872D01*
X3244039Y-10230872D01*
X3272610Y-10245158D01*
X3286896Y-10273730D01*
X3286896Y-10430872D01*
X3286896Y-10273730D02*
X3301182Y-10245158D01*
X3329753Y-10230872D01*
X3372610Y-10230872D01*
X3401182Y-10245158D01*
X3415468Y-10273730D01*
X3415468Y-10430872D01*
X4001182Y-10116587D02*
X3744039Y-10502301D01*
X4386896Y-10130872D02*
X4415468Y-10130872D01*
X4444039Y-10145158D01*
X4458325Y-10159444D01*
X4472611Y-10188015D01*
X4486896Y-10245158D01*
X4486896Y-10316587D01*
X4472611Y-10373730D01*
X4458325Y-10402301D01*
X4444039Y-10416587D01*
X4415468Y-10430872D01*
X4386896Y-10430872D01*
X4358325Y-10416587D01*
X4344039Y-10402301D01*
X4329753Y-10373730D01*
X4315468Y-10316587D01*
X4315468Y-10245158D01*
X4329753Y-10188015D01*
X4344039Y-10159444D01*
X4358325Y-10145158D01*
X4386896Y-10130872D01*
X4615468Y-10402301D02*
X4629753Y-10416587D01*
X4615468Y-10430872D01*
X4601182Y-10416587D01*
X4615468Y-10402301D01*
X4615468Y-10430872D01*
X4815468Y-10130872D02*
X4844039Y-10130872D01*
X4872611Y-10145158D01*
X4886896Y-10159444D01*
X4901182Y-10188015D01*
X4915468Y-10245158D01*
X4915468Y-10316587D01*
X4901182Y-10373730D01*
X4886896Y-10402301D01*
X4872611Y-10416587D01*
X4844039Y-10430872D01*
X4815468Y-10430872D01*
X4786896Y-10416587D01*
X4772611Y-10402301D01*
X4758325Y-10373730D01*
X4744039Y-10316587D01*
X4744039Y-10245158D01*
X4758325Y-10188015D01*
X4772611Y-10159444D01*
X4786896Y-10145158D01*
X4815468Y-10130872D01*
X5201182Y-10430872D02*
X5029753Y-10430872D01*
X5115468Y-10430872D02*
X5115468Y-10130872D01*
X5086896Y-10173730D01*
X5058325Y-10202301D01*
X5029753Y-10216587D01*
X5458325Y-10130872D02*
X5401182Y-10130872D01*
X5372611Y-10145158D01*
X5358325Y-10159444D01*
X5329753Y-10202301D01*
X5315468Y-10259444D01*
X5315468Y-10373730D01*
X5329753Y-10402301D01*
X5344039Y-10416587D01*
X5372611Y-10430872D01*
X5429753Y-10430872D01*
X5458325Y-10416587D01*
X5472611Y-10402301D01*
X5486896Y-10373730D01*
X5486896Y-10302301D01*
X5472611Y-10273730D01*
X5458325Y-10259444D01*
X5429753Y-10245158D01*
X5372611Y-10245158D01*
X5344039Y-10259444D01*
X5329753Y-10273730D01*
X5315468Y-10302301D01*
X5601182Y-10130872D02*
X5601182Y-10188015D01*
X5715468Y-10130872D02*
X5715468Y-10188015D01*
X6158325Y-10545158D02*
X6144039Y-10530872D01*
X6115468Y-10488015D01*
X6101182Y-10459444D01*
X6086896Y-10416587D01*
X6072610Y-10345158D01*
X6072610Y-10288015D01*
X6086896Y-10216587D01*
X6101182Y-10173730D01*
X6115468Y-10145158D01*
X6144039Y-10102301D01*
X6158325Y-10088015D01*
X6401182Y-10230872D02*
X6401182Y-10430872D01*
X6329753Y-10116587D02*
X6258325Y-10330872D01*
X6444039Y-10330872D01*
X6686896Y-10230872D02*
X6686896Y-10430872D01*
X6615468Y-10116587D02*
X6544039Y-10330872D01*
X6729753Y-10330872D01*
X7072610Y-10430872D02*
X7072610Y-10130872D01*
X7201182Y-10430872D02*
X7201182Y-10273730D01*
X7186896Y-10245158D01*
X7158325Y-10230872D01*
X7115468Y-10230872D01*
X7086896Y-10245158D01*
X7072610Y-10259444D01*
X7386896Y-10430872D02*
X7358325Y-10416587D01*
X7344039Y-10402301D01*
X7329753Y-10373730D01*
X7329753Y-10288015D01*
X7344039Y-10259444D01*
X7358325Y-10245158D01*
X7386896Y-10230872D01*
X7429753Y-10230872D01*
X7458325Y-10245158D01*
X7472610Y-10259444D01*
X7486896Y-10288015D01*
X7486896Y-10373730D01*
X7472610Y-10402301D01*
X7458325Y-10416587D01*
X7429753Y-10430872D01*
X7386896Y-10430872D01*
X7658325Y-10430872D02*
X7629753Y-10416587D01*
X7615468Y-10388015D01*
X7615468Y-10130872D01*
X7886896Y-10416587D02*
X7858325Y-10430872D01*
X7801182Y-10430872D01*
X7772610Y-10416587D01*
X7758325Y-10388015D01*
X7758325Y-10273730D01*
X7772610Y-10245158D01*
X7801182Y-10230872D01*
X7858325Y-10230872D01*
X7886896Y-10245158D01*
X7901182Y-10273730D01*
X7901182Y-10302301D01*
X7758325Y-10330872D01*
X8015468Y-10416587D02*
X8044039Y-10430872D01*
X8101182Y-10430872D01*
X8129753Y-10416587D01*
X8144039Y-10388015D01*
X8144039Y-10373730D01*
X8129753Y-10345158D01*
X8101182Y-10330872D01*
X8058325Y-10330872D01*
X8029753Y-10316587D01*
X8015468Y-10288015D01*
X8015468Y-10273730D01*
X8029753Y-10245158D01*
X8058325Y-10230872D01*
X8101182Y-10230872D01*
X8129753Y-10245158D01*
X8244039Y-10545158D02*
X8258325Y-10530872D01*
X8286896Y-10488015D01*
X8301182Y-10459444D01*
X8315468Y-10416587D01*
X8329753Y-10345158D01*
X8329753Y-10288015D01*
X8315468Y-10216587D01*
X8301182Y-10173730D01*
X8286896Y-10145158D01*
X8258325Y-10102301D01*
X8244039Y-10088015D01*
X1471896Y-10691158D02*
G75*
G03*
X1471896Y-10691158I-35000J0D01*
G01*
X1815468Y-10526872D02*
X1844039Y-10526872D01*
X1872610Y-10541158D01*
X1886896Y-10555444D01*
X1901182Y-10584015D01*
X1915468Y-10641158D01*
X1915468Y-10712587D01*
X1901182Y-10769730D01*
X1886896Y-10798301D01*
X1872610Y-10812587D01*
X1844039Y-10826872D01*
X1815468Y-10826872D01*
X1786896Y-10812587D01*
X1772610Y-10798301D01*
X1758325Y-10769730D01*
X1744039Y-10712587D01*
X1744039Y-10641158D01*
X1758325Y-10584015D01*
X1772610Y-10555444D01*
X1786896Y-10541158D01*
X1815468Y-10526872D01*
X2044039Y-10798301D02*
X2058325Y-10812587D01*
X2044039Y-10826872D01*
X2029753Y-10812587D01*
X2044039Y-10798301D01*
X2044039Y-10826872D01*
X2158325Y-10526872D02*
X2358325Y-10526872D01*
X2229753Y-10826872D01*
X2529753Y-10526872D02*
X2558325Y-10526872D01*
X2586896Y-10541158D01*
X2601182Y-10555444D01*
X2615468Y-10584015D01*
X2629753Y-10641158D01*
X2629753Y-10712587D01*
X2615468Y-10769730D01*
X2601182Y-10798301D01*
X2586896Y-10812587D01*
X2558325Y-10826872D01*
X2529753Y-10826872D01*
X2501182Y-10812587D01*
X2486896Y-10798301D01*
X2472611Y-10769730D01*
X2458325Y-10712587D01*
X2458325Y-10641158D01*
X2472611Y-10584015D01*
X2486896Y-10555444D01*
X2501182Y-10541158D01*
X2529753Y-10526872D01*
X2758325Y-10826872D02*
X2758325Y-10626872D01*
X2758325Y-10655444D02*
X2772611Y-10641158D01*
X2801182Y-10626872D01*
X2844039Y-10626872D01*
X2872610Y-10641158D01*
X2886896Y-10669730D01*
X2886896Y-10826872D01*
X2886896Y-10669730D02*
X2901182Y-10641158D01*
X2929753Y-10626872D01*
X2972610Y-10626872D01*
X3001182Y-10641158D01*
X3015468Y-10669730D01*
X3015468Y-10826872D01*
X3158325Y-10826872D02*
X3158325Y-10626872D01*
X3158325Y-10655444D02*
X3172610Y-10641158D01*
X3201182Y-10626872D01*
X3244039Y-10626872D01*
X3272610Y-10641158D01*
X3286896Y-10669730D01*
X3286896Y-10826872D01*
X3286896Y-10669730D02*
X3301182Y-10641158D01*
X3329753Y-10626872D01*
X3372610Y-10626872D01*
X3401182Y-10641158D01*
X3415468Y-10669730D01*
X3415468Y-10826872D01*
X4001182Y-10512587D02*
X3744039Y-10898301D01*
X4386896Y-10526872D02*
X4415468Y-10526872D01*
X4444039Y-10541158D01*
X4458325Y-10555444D01*
X4472611Y-10584015D01*
X4486896Y-10641158D01*
X4486896Y-10712587D01*
X4472611Y-10769730D01*
X4458325Y-10798301D01*
X4444039Y-10812587D01*
X4415468Y-10826872D01*
X4386896Y-10826872D01*
X4358325Y-10812587D01*
X4344039Y-10798301D01*
X4329753Y-10769730D01*
X4315468Y-10712587D01*
X4315468Y-10641158D01*
X4329753Y-10584015D01*
X4344039Y-10555444D01*
X4358325Y-10541158D01*
X4386896Y-10526872D01*
X4615468Y-10798301D02*
X4629753Y-10812587D01*
X4615468Y-10826872D01*
X4601182Y-10812587D01*
X4615468Y-10798301D01*
X4615468Y-10826872D01*
X4815468Y-10526872D02*
X4844039Y-10526872D01*
X4872611Y-10541158D01*
X4886896Y-10555444D01*
X4901182Y-10584015D01*
X4915468Y-10641158D01*
X4915468Y-10712587D01*
X4901182Y-10769730D01*
X4886896Y-10798301D01*
X4872611Y-10812587D01*
X4844039Y-10826872D01*
X4815468Y-10826872D01*
X4786896Y-10812587D01*
X4772611Y-10798301D01*
X4758325Y-10769730D01*
X4744039Y-10712587D01*
X4744039Y-10641158D01*
X4758325Y-10584015D01*
X4772611Y-10555444D01*
X4786896Y-10541158D01*
X4815468Y-10526872D01*
X5029753Y-10555444D02*
X5044039Y-10541158D01*
X5072611Y-10526872D01*
X5144039Y-10526872D01*
X5172611Y-10541158D01*
X5186896Y-10555444D01*
X5201182Y-10584015D01*
X5201182Y-10612587D01*
X5186896Y-10655444D01*
X5015468Y-10826872D01*
X5201182Y-10826872D01*
X5372611Y-10655444D02*
X5344039Y-10641158D01*
X5329753Y-10626872D01*
X5315468Y-10598301D01*
X5315468Y-10584015D01*
X5329753Y-10555444D01*
X5344039Y-10541158D01*
X5372611Y-10526872D01*
X5429753Y-10526872D01*
X5458325Y-10541158D01*
X5472611Y-10555444D01*
X5486896Y-10584015D01*
X5486896Y-10598301D01*
X5472611Y-10626872D01*
X5458325Y-10641158D01*
X5429753Y-10655444D01*
X5372611Y-10655444D01*
X5344039Y-10669730D01*
X5329753Y-10684015D01*
X5315468Y-10712587D01*
X5315468Y-10769730D01*
X5329753Y-10798301D01*
X5344039Y-10812587D01*
X5372611Y-10826872D01*
X5429753Y-10826872D01*
X5458325Y-10812587D01*
X5472611Y-10798301D01*
X5486896Y-10769730D01*
X5486896Y-10712587D01*
X5472611Y-10684015D01*
X5458325Y-10669730D01*
X5429753Y-10655444D01*
X5601182Y-10526872D02*
X5601182Y-10584015D01*
X5715468Y-10526872D02*
X5715468Y-10584015D01*
X6158325Y-10941158D02*
X6144039Y-10926872D01*
X6115468Y-10884015D01*
X6101182Y-10855444D01*
X6086896Y-10812587D01*
X6072610Y-10741158D01*
X6072610Y-10684015D01*
X6086896Y-10612587D01*
X6101182Y-10569730D01*
X6115468Y-10541158D01*
X6144039Y-10498301D01*
X6158325Y-10484015D01*
X6401182Y-10626872D02*
X6401182Y-10826872D01*
X6329753Y-10512587D02*
X6258325Y-10726872D01*
X6444039Y-10726872D01*
X6686896Y-10626872D02*
X6686896Y-10826872D01*
X6615468Y-10512587D02*
X6544039Y-10726872D01*
X6729753Y-10726872D01*
X7072610Y-10826872D02*
X7072610Y-10526872D01*
X7201182Y-10826872D02*
X7201182Y-10669730D01*
X7186896Y-10641158D01*
X7158325Y-10626872D01*
X7115468Y-10626872D01*
X7086896Y-10641158D01*
X7072610Y-10655444D01*
X7386896Y-10826872D02*
X7358325Y-10812587D01*
X7344039Y-10798301D01*
X7329753Y-10769730D01*
X7329753Y-10684015D01*
X7344039Y-10655444D01*
X7358325Y-10641158D01*
X7386896Y-10626872D01*
X7429753Y-10626872D01*
X7458325Y-10641158D01*
X7472610Y-10655444D01*
X7486896Y-10684015D01*
X7486896Y-10769730D01*
X7472610Y-10798301D01*
X7458325Y-10812587D01*
X7429753Y-10826872D01*
X7386896Y-10826872D01*
X7658325Y-10826872D02*
X7629753Y-10812587D01*
X7615468Y-10784015D01*
X7615468Y-10526872D01*
X7886896Y-10812587D02*
X7858325Y-10826872D01*
X7801182Y-10826872D01*
X7772610Y-10812587D01*
X7758325Y-10784015D01*
X7758325Y-10669730D01*
X7772610Y-10641158D01*
X7801182Y-10626872D01*
X7858325Y-10626872D01*
X7886896Y-10641158D01*
X7901182Y-10669730D01*
X7901182Y-10698301D01*
X7758325Y-10726872D01*
X8015468Y-10812587D02*
X8044039Y-10826872D01*
X8101182Y-10826872D01*
X8129753Y-10812587D01*
X8144039Y-10784015D01*
X8144039Y-10769730D01*
X8129753Y-10741158D01*
X8101182Y-10726872D01*
X8058325Y-10726872D01*
X8029753Y-10712587D01*
X8015468Y-10684015D01*
X8015468Y-10669730D01*
X8029753Y-10641158D01*
X8058325Y-10626872D01*
X8101182Y-10626872D01*
X8129753Y-10641158D01*
X8244039Y-10941158D02*
X8258325Y-10926872D01*
X8286896Y-10884015D01*
X8301182Y-10855444D01*
X8315468Y-10812587D01*
X8329753Y-10741158D01*
X8329753Y-10684015D01*
X8315468Y-10612587D01*
X8301182Y-10569730D01*
X8286896Y-10541158D01*
X8258325Y-10498301D01*
X8244039Y-10484015D01*
X1433796Y-11049058D02*
X1433796Y-11125258D01*
X1395696Y-11087158D02*
X1471896Y-11087158D01*
X1815468Y-10922872D02*
X1844039Y-10922872D01*
X1872610Y-10937158D01*
X1886896Y-10951444D01*
X1901182Y-10980015D01*
X1915468Y-11037158D01*
X1915468Y-11108587D01*
X1901182Y-11165730D01*
X1886896Y-11194301D01*
X1872610Y-11208587D01*
X1844039Y-11222872D01*
X1815468Y-11222872D01*
X1786896Y-11208587D01*
X1772610Y-11194301D01*
X1758325Y-11165730D01*
X1744039Y-11108587D01*
X1744039Y-11037158D01*
X1758325Y-10980015D01*
X1772610Y-10951444D01*
X1786896Y-10937158D01*
X1815468Y-10922872D01*
X2044039Y-11194301D02*
X2058325Y-11208587D01*
X2044039Y-11222872D01*
X2029753Y-11208587D01*
X2044039Y-11194301D01*
X2044039Y-11222872D01*
X2158325Y-10922872D02*
X2358325Y-10922872D01*
X2229753Y-11222872D01*
X2601182Y-10922872D02*
X2544039Y-10922872D01*
X2515468Y-10937158D01*
X2501182Y-10951444D01*
X2472611Y-10994301D01*
X2458325Y-11051444D01*
X2458325Y-11165730D01*
X2472611Y-11194301D01*
X2486896Y-11208587D01*
X2515468Y-11222872D01*
X2572611Y-11222872D01*
X2601182Y-11208587D01*
X2615468Y-11194301D01*
X2629753Y-11165730D01*
X2629753Y-11094301D01*
X2615468Y-11065730D01*
X2601182Y-11051444D01*
X2572611Y-11037158D01*
X2515468Y-11037158D01*
X2486896Y-11051444D01*
X2472611Y-11065730D01*
X2458325Y-11094301D01*
X2758325Y-11222872D02*
X2758325Y-11022872D01*
X2758325Y-11051444D02*
X2772611Y-11037158D01*
X2801182Y-11022872D01*
X2844039Y-11022872D01*
X2872610Y-11037158D01*
X2886896Y-11065730D01*
X2886896Y-11222872D01*
X2886896Y-11065730D02*
X2901182Y-11037158D01*
X2929753Y-11022872D01*
X2972610Y-11022872D01*
X3001182Y-11037158D01*
X3015468Y-11065730D01*
X3015468Y-11222872D01*
X3158325Y-11222872D02*
X3158325Y-11022872D01*
X3158325Y-11051444D02*
X3172610Y-11037158D01*
X3201182Y-11022872D01*
X3244039Y-11022872D01*
X3272610Y-11037158D01*
X3286896Y-11065730D01*
X3286896Y-11222872D01*
X3286896Y-11065730D02*
X3301182Y-11037158D01*
X3329753Y-11022872D01*
X3372610Y-11022872D01*
X3401182Y-11037158D01*
X3415468Y-11065730D01*
X3415468Y-11222872D01*
X4001182Y-10908587D02*
X3744039Y-11294301D01*
X4386896Y-10922872D02*
X4415468Y-10922872D01*
X4444039Y-10937158D01*
X4458325Y-10951444D01*
X4472611Y-10980015D01*
X4486896Y-11037158D01*
X4486896Y-11108587D01*
X4472611Y-11165730D01*
X4458325Y-11194301D01*
X4444039Y-11208587D01*
X4415468Y-11222872D01*
X4386896Y-11222872D01*
X4358325Y-11208587D01*
X4344039Y-11194301D01*
X4329753Y-11165730D01*
X4315468Y-11108587D01*
X4315468Y-11037158D01*
X4329753Y-10980015D01*
X4344039Y-10951444D01*
X4358325Y-10937158D01*
X4386896Y-10922872D01*
X4615468Y-11194301D02*
X4629753Y-11208587D01*
X4615468Y-11222872D01*
X4601182Y-11208587D01*
X4615468Y-11194301D01*
X4615468Y-11222872D01*
X4815468Y-10922872D02*
X4844039Y-10922872D01*
X4872611Y-10937158D01*
X4886896Y-10951444D01*
X4901182Y-10980015D01*
X4915468Y-11037158D01*
X4915468Y-11108587D01*
X4901182Y-11165730D01*
X4886896Y-11194301D01*
X4872611Y-11208587D01*
X4844039Y-11222872D01*
X4815468Y-11222872D01*
X4786896Y-11208587D01*
X4772611Y-11194301D01*
X4758325Y-11165730D01*
X4744039Y-11108587D01*
X4744039Y-11037158D01*
X4758325Y-10980015D01*
X4772611Y-10951444D01*
X4786896Y-10937158D01*
X4815468Y-10922872D01*
X5015468Y-10922872D02*
X5201182Y-10922872D01*
X5101182Y-11037158D01*
X5144039Y-11037158D01*
X5172611Y-11051444D01*
X5186896Y-11065730D01*
X5201182Y-11094301D01*
X5201182Y-11165730D01*
X5186896Y-11194301D01*
X5172611Y-11208587D01*
X5144039Y-11222872D01*
X5058325Y-11222872D01*
X5029753Y-11208587D01*
X5015468Y-11194301D01*
X5386896Y-10922872D02*
X5415468Y-10922872D01*
X5444039Y-10937158D01*
X5458325Y-10951444D01*
X5472611Y-10980015D01*
X5486896Y-11037158D01*
X5486896Y-11108587D01*
X5472611Y-11165730D01*
X5458325Y-11194301D01*
X5444039Y-11208587D01*
X5415468Y-11222872D01*
X5386896Y-11222872D01*
X5358325Y-11208587D01*
X5344039Y-11194301D01*
X5329753Y-11165730D01*
X5315468Y-11108587D01*
X5315468Y-11037158D01*
X5329753Y-10980015D01*
X5344039Y-10951444D01*
X5358325Y-10937158D01*
X5386896Y-10922872D01*
X5601182Y-10922872D02*
X5601182Y-10980015D01*
X5715468Y-10922872D02*
X5715468Y-10980015D01*
X6158325Y-11337158D02*
X6144039Y-11322872D01*
X6115468Y-11280015D01*
X6101182Y-11251444D01*
X6086896Y-11208587D01*
X6072610Y-11137158D01*
X6072610Y-11080015D01*
X6086896Y-11008587D01*
X6101182Y-10965730D01*
X6115468Y-10937158D01*
X6144039Y-10894301D01*
X6158325Y-10880015D01*
X6401182Y-11022872D02*
X6401182Y-11222872D01*
X6329753Y-10908587D02*
X6258325Y-11122872D01*
X6444039Y-11122872D01*
X6786896Y-11222872D02*
X6786896Y-10922872D01*
X6915468Y-11222872D02*
X6915468Y-11065730D01*
X6901182Y-11037158D01*
X6872610Y-11022872D01*
X6829753Y-11022872D01*
X6801182Y-11037158D01*
X6786896Y-11051444D01*
X7101182Y-11222872D02*
X7072610Y-11208587D01*
X7058325Y-11194301D01*
X7044039Y-11165730D01*
X7044039Y-11080015D01*
X7058325Y-11051444D01*
X7072610Y-11037158D01*
X7101182Y-11022872D01*
X7144039Y-11022872D01*
X7172610Y-11037158D01*
X7186896Y-11051444D01*
X7201182Y-11080015D01*
X7201182Y-11165730D01*
X7186896Y-11194301D01*
X7172610Y-11208587D01*
X7144039Y-11222872D01*
X7101182Y-11222872D01*
X7372610Y-11222872D02*
X7344039Y-11208587D01*
X7329753Y-11180015D01*
X7329753Y-10922872D01*
X7601182Y-11208587D02*
X7572610Y-11222872D01*
X7515468Y-11222872D01*
X7486896Y-11208587D01*
X7472610Y-11180015D01*
X7472610Y-11065730D01*
X7486896Y-11037158D01*
X7515468Y-11022872D01*
X7572610Y-11022872D01*
X7601182Y-11037158D01*
X7615468Y-11065730D01*
X7615468Y-11094301D01*
X7472610Y-11122872D01*
X7729753Y-11208587D02*
X7758325Y-11222872D01*
X7815468Y-11222872D01*
X7844039Y-11208587D01*
X7858325Y-11180015D01*
X7858325Y-11165730D01*
X7844039Y-11137158D01*
X7815468Y-11122872D01*
X7772610Y-11122872D01*
X7744039Y-11108587D01*
X7729753Y-11080015D01*
X7729753Y-11065730D01*
X7744039Y-11037158D01*
X7772610Y-11022872D01*
X7815468Y-11022872D01*
X7844039Y-11037158D01*
X8215468Y-11108587D02*
X8444039Y-11108587D01*
X8329753Y-11222872D02*
X8329753Y-10994301D01*
X8801182Y-10951444D02*
X8815468Y-10937158D01*
X8844039Y-10922872D01*
X8915468Y-10922872D01*
X8944039Y-10937158D01*
X8958325Y-10951444D01*
X8972611Y-10980015D01*
X8972611Y-11008587D01*
X8958325Y-11051444D01*
X8786896Y-11222872D01*
X8972611Y-11222872D01*
X9315468Y-11208587D02*
X9344039Y-11222872D01*
X9401182Y-11222872D01*
X9429753Y-11208587D01*
X9444039Y-11180015D01*
X9444039Y-11165730D01*
X9429753Y-11137158D01*
X9401182Y-11122872D01*
X9358325Y-11122872D01*
X9329753Y-11108587D01*
X9315468Y-11080015D01*
X9315468Y-11065730D01*
X9329753Y-11037158D01*
X9358325Y-11022872D01*
X9401182Y-11022872D01*
X9429753Y-11037158D01*
X9615468Y-11222872D02*
X9586896Y-11208587D01*
X9572611Y-11180015D01*
X9572611Y-10922872D01*
X9772611Y-11222872D02*
X9744039Y-11208587D01*
X9729753Y-11194301D01*
X9715468Y-11165730D01*
X9715468Y-11080015D01*
X9729753Y-11051444D01*
X9744039Y-11037158D01*
X9772611Y-11022872D01*
X9815468Y-11022872D01*
X9844039Y-11037158D01*
X9858325Y-11051444D01*
X9872611Y-11080015D01*
X9872611Y-11165730D01*
X9858325Y-11194301D01*
X9844039Y-11208587D01*
X9815468Y-11222872D01*
X9772611Y-11222872D01*
X9958325Y-11022872D02*
X10072611Y-11022872D01*
X10001182Y-10922872D02*
X10001182Y-11180015D01*
X10015468Y-11208587D01*
X10044039Y-11222872D01*
X10072611Y-11222872D01*
X10158325Y-11208587D02*
X10186896Y-11222872D01*
X10244039Y-11222872D01*
X10272611Y-11208587D01*
X10286896Y-11180015D01*
X10286896Y-11165730D01*
X10272611Y-11137158D01*
X10244039Y-11122872D01*
X10201182Y-11122872D01*
X10172611Y-11108587D01*
X10158325Y-11080015D01*
X10158325Y-11065730D01*
X10172611Y-11037158D01*
X10201182Y-11022872D01*
X10244039Y-11022872D01*
X10272611Y-11037158D01*
X10386896Y-11337158D02*
X10401182Y-11322872D01*
X10429753Y-11280015D01*
X10444039Y-11251444D01*
X10458325Y-11208587D01*
X10472611Y-11137158D01*
X10472611Y-11080015D01*
X10458325Y-11008587D01*
X10444039Y-10965730D01*
X10429753Y-10937158D01*
X10401182Y-10894301D01*
X10386896Y-10880015D01*
X1457252Y-11518514D02*
X1457252Y-11447802D01*
X1386541Y-11447802D01*
X1386541Y-11518514D01*
X1457252Y-11518514D01*
X1915468Y-11618872D02*
X1744039Y-11618872D01*
X1829753Y-11618872D02*
X1829753Y-11318872D01*
X1801182Y-11361729D01*
X1772610Y-11390301D01*
X1744039Y-11404587D01*
X2044039Y-11590301D02*
X2058325Y-11604587D01*
X2044039Y-11618872D01*
X2029753Y-11604587D01*
X2044039Y-11590301D01*
X2044039Y-11618872D01*
X2244039Y-11318872D02*
X2272611Y-11318872D01*
X2301182Y-11333158D01*
X2315468Y-11347444D01*
X2329753Y-11376015D01*
X2344039Y-11433158D01*
X2344039Y-11504587D01*
X2329753Y-11561729D01*
X2315468Y-11590301D01*
X2301182Y-11604587D01*
X2272611Y-11618872D01*
X2244039Y-11618872D01*
X2215468Y-11604587D01*
X2201182Y-11590301D01*
X2186896Y-11561729D01*
X2172611Y-11504587D01*
X2172611Y-11433158D01*
X2186896Y-11376015D01*
X2201182Y-11347444D01*
X2215468Y-11333158D01*
X2244039Y-11318872D01*
X2529753Y-11318872D02*
X2558325Y-11318872D01*
X2586896Y-11333158D01*
X2601182Y-11347444D01*
X2615468Y-11376015D01*
X2629753Y-11433158D01*
X2629753Y-11504587D01*
X2615468Y-11561729D01*
X2601182Y-11590301D01*
X2586896Y-11604587D01*
X2558325Y-11618872D01*
X2529753Y-11618872D01*
X2501182Y-11604587D01*
X2486896Y-11590301D01*
X2472611Y-11561729D01*
X2458325Y-11504587D01*
X2458325Y-11433158D01*
X2472611Y-11376015D01*
X2486896Y-11347444D01*
X2501182Y-11333158D01*
X2529753Y-11318872D01*
X2758325Y-11618872D02*
X2758325Y-11418872D01*
X2758325Y-11447444D02*
X2772611Y-11433158D01*
X2801182Y-11418872D01*
X2844039Y-11418872D01*
X2872610Y-11433158D01*
X2886896Y-11461729D01*
X2886896Y-11618872D01*
X2886896Y-11461729D02*
X2901182Y-11433158D01*
X2929753Y-11418872D01*
X2972610Y-11418872D01*
X3001182Y-11433158D01*
X3015468Y-11461729D01*
X3015468Y-11618872D01*
X3158325Y-11618872D02*
X3158325Y-11418872D01*
X3158325Y-11447444D02*
X3172610Y-11433158D01*
X3201182Y-11418872D01*
X3244039Y-11418872D01*
X3272610Y-11433158D01*
X3286896Y-11461729D01*
X3286896Y-11618872D01*
X3286896Y-11461729D02*
X3301182Y-11433158D01*
X3329753Y-11418872D01*
X3372610Y-11418872D01*
X3401182Y-11433158D01*
X3415468Y-11461729D01*
X3415468Y-11618872D01*
X4001182Y-11304587D02*
X3744039Y-11690301D01*
X4386896Y-11318872D02*
X4415468Y-11318872D01*
X4444039Y-11333158D01*
X4458325Y-11347444D01*
X4472611Y-11376015D01*
X4486896Y-11433158D01*
X4486896Y-11504587D01*
X4472611Y-11561729D01*
X4458325Y-11590301D01*
X4444039Y-11604587D01*
X4415468Y-11618872D01*
X4386896Y-11618872D01*
X4358325Y-11604587D01*
X4344039Y-11590301D01*
X4329753Y-11561729D01*
X4315468Y-11504587D01*
X4315468Y-11433158D01*
X4329753Y-11376015D01*
X4344039Y-11347444D01*
X4358325Y-11333158D01*
X4386896Y-11318872D01*
X4615468Y-11590301D02*
X4629753Y-11604587D01*
X4615468Y-11618872D01*
X4601182Y-11604587D01*
X4615468Y-11590301D01*
X4615468Y-11618872D01*
X4815468Y-11318872D02*
X4844039Y-11318872D01*
X4872611Y-11333158D01*
X4886896Y-11347444D01*
X4901182Y-11376015D01*
X4915468Y-11433158D01*
X4915468Y-11504587D01*
X4901182Y-11561729D01*
X4886896Y-11590301D01*
X4872611Y-11604587D01*
X4844039Y-11618872D01*
X4815468Y-11618872D01*
X4786896Y-11604587D01*
X4772611Y-11590301D01*
X4758325Y-11561729D01*
X4744039Y-11504587D01*
X4744039Y-11433158D01*
X4758325Y-11376015D01*
X4772611Y-11347444D01*
X4786896Y-11333158D01*
X4815468Y-11318872D01*
X5015468Y-11318872D02*
X5201182Y-11318872D01*
X5101182Y-11433158D01*
X5144039Y-11433158D01*
X5172611Y-11447444D01*
X5186896Y-11461729D01*
X5201182Y-11490301D01*
X5201182Y-11561729D01*
X5186896Y-11590301D01*
X5172611Y-11604587D01*
X5144039Y-11618872D01*
X5058325Y-11618872D01*
X5029753Y-11604587D01*
X5015468Y-11590301D01*
X5344039Y-11618872D02*
X5401182Y-11618872D01*
X5429753Y-11604587D01*
X5444039Y-11590301D01*
X5472611Y-11547444D01*
X5486896Y-11490301D01*
X5486896Y-11376015D01*
X5472611Y-11347444D01*
X5458325Y-11333158D01*
X5429753Y-11318872D01*
X5372611Y-11318872D01*
X5344039Y-11333158D01*
X5329753Y-11347444D01*
X5315468Y-11376015D01*
X5315468Y-11447444D01*
X5329753Y-11476015D01*
X5344039Y-11490301D01*
X5372611Y-11504587D01*
X5429753Y-11504587D01*
X5458325Y-11490301D01*
X5472611Y-11476015D01*
X5486896Y-11447444D01*
X5601182Y-11318872D02*
X5601182Y-11376015D01*
X5715468Y-11318872D02*
X5715468Y-11376015D01*
X6158325Y-11733158D02*
X6144039Y-11718872D01*
X6115468Y-11676015D01*
X6101182Y-11647444D01*
X6086896Y-11604587D01*
X6072610Y-11533158D01*
X6072610Y-11476015D01*
X6086896Y-11404587D01*
X6101182Y-11361729D01*
X6115468Y-11333158D01*
X6144039Y-11290301D01*
X6158325Y-11276015D01*
X6244039Y-11318872D02*
X6444039Y-11318872D01*
X6315468Y-11618872D01*
X6786896Y-11618872D02*
X6786896Y-11318872D01*
X6915468Y-11618872D02*
X6915468Y-11461729D01*
X6901182Y-11433158D01*
X6872610Y-11418872D01*
X6829753Y-11418872D01*
X6801182Y-11433158D01*
X6786896Y-11447444D01*
X7101182Y-11618872D02*
X7072610Y-11604587D01*
X7058325Y-11590301D01*
X7044039Y-11561729D01*
X7044039Y-11476015D01*
X7058325Y-11447444D01*
X7072610Y-11433158D01*
X7101182Y-11418872D01*
X7144039Y-11418872D01*
X7172610Y-11433158D01*
X7186896Y-11447444D01*
X7201182Y-11476015D01*
X7201182Y-11561729D01*
X7186896Y-11590301D01*
X7172610Y-11604587D01*
X7144039Y-11618872D01*
X7101182Y-11618872D01*
X7372610Y-11618872D02*
X7344039Y-11604587D01*
X7329753Y-11576015D01*
X7329753Y-11318872D01*
X7601182Y-11604587D02*
X7572610Y-11618872D01*
X7515468Y-11618872D01*
X7486896Y-11604587D01*
X7472610Y-11576015D01*
X7472610Y-11461729D01*
X7486896Y-11433158D01*
X7515468Y-11418872D01*
X7572610Y-11418872D01*
X7601182Y-11433158D01*
X7615468Y-11461729D01*
X7615468Y-11490301D01*
X7472610Y-11518872D01*
X7729753Y-11604587D02*
X7758325Y-11618872D01*
X7815468Y-11618872D01*
X7844039Y-11604587D01*
X7858325Y-11576015D01*
X7858325Y-11561729D01*
X7844039Y-11533158D01*
X7815468Y-11518872D01*
X7772610Y-11518872D01*
X7744039Y-11504587D01*
X7729753Y-11476015D01*
X7729753Y-11461729D01*
X7744039Y-11433158D01*
X7772610Y-11418872D01*
X7815468Y-11418872D01*
X7844039Y-11433158D01*
X7958325Y-11733158D02*
X7972610Y-11718872D01*
X8001182Y-11676015D01*
X8015468Y-11647444D01*
X8029753Y-11604587D01*
X8044039Y-11533158D01*
X8044039Y-11476015D01*
X8029753Y-11404587D01*
X8015468Y-11361729D01*
X8001182Y-11333158D01*
X7972610Y-11290301D01*
X7958325Y-11276015D01*
X1417286Y-11933768D02*
X1471896Y-11879158D01*
X1417286Y-11824548D01*
X1362676Y-11879158D01*
X1417286Y-11933768D01*
X1915468Y-12014872D02*
X1744039Y-12014872D01*
X1829753Y-12014872D02*
X1829753Y-11714872D01*
X1801182Y-11757729D01*
X1772610Y-11786301D01*
X1744039Y-11800587D01*
X2044039Y-11986301D02*
X2058325Y-12000587D01*
X2044039Y-12014872D01*
X2029753Y-12000587D01*
X2044039Y-11986301D01*
X2044039Y-12014872D01*
X2244039Y-11714872D02*
X2272611Y-11714872D01*
X2301182Y-11729158D01*
X2315468Y-11743444D01*
X2329753Y-11772015D01*
X2344039Y-11829158D01*
X2344039Y-11900587D01*
X2329753Y-11957729D01*
X2315468Y-11986301D01*
X2301182Y-12000587D01*
X2272611Y-12014872D01*
X2244039Y-12014872D01*
X2215468Y-12000587D01*
X2201182Y-11986301D01*
X2186896Y-11957729D01*
X2172611Y-11900587D01*
X2172611Y-11829158D01*
X2186896Y-11772015D01*
X2201182Y-11743444D01*
X2215468Y-11729158D01*
X2244039Y-11714872D01*
X2486896Y-12014872D02*
X2544039Y-12014872D01*
X2572611Y-12000587D01*
X2586896Y-11986301D01*
X2615468Y-11943444D01*
X2629753Y-11886301D01*
X2629753Y-11772015D01*
X2615468Y-11743444D01*
X2601182Y-11729158D01*
X2572611Y-11714872D01*
X2515468Y-11714872D01*
X2486896Y-11729158D01*
X2472611Y-11743444D01*
X2458325Y-11772015D01*
X2458325Y-11843444D01*
X2472611Y-11872015D01*
X2486896Y-11886301D01*
X2515468Y-11900587D01*
X2572611Y-11900587D01*
X2601182Y-11886301D01*
X2615468Y-11872015D01*
X2629753Y-11843444D01*
X2758325Y-12014872D02*
X2758325Y-11814872D01*
X2758325Y-11843444D02*
X2772611Y-11829158D01*
X2801182Y-11814872D01*
X2844039Y-11814872D01*
X2872610Y-11829158D01*
X2886896Y-11857729D01*
X2886896Y-12014872D01*
X2886896Y-11857729D02*
X2901182Y-11829158D01*
X2929753Y-11814872D01*
X2972610Y-11814872D01*
X3001182Y-11829158D01*
X3015468Y-11857729D01*
X3015468Y-12014872D01*
X3158325Y-12014872D02*
X3158325Y-11814872D01*
X3158325Y-11843444D02*
X3172610Y-11829158D01*
X3201182Y-11814872D01*
X3244039Y-11814872D01*
X3272610Y-11829158D01*
X3286896Y-11857729D01*
X3286896Y-12014872D01*
X3286896Y-11857729D02*
X3301182Y-11829158D01*
X3329753Y-11814872D01*
X3372610Y-11814872D01*
X3401182Y-11829158D01*
X3415468Y-11857729D01*
X3415468Y-12014872D01*
X4001182Y-11700587D02*
X3744039Y-12086301D01*
X4386896Y-11714872D02*
X4415468Y-11714872D01*
X4444039Y-11729158D01*
X4458325Y-11743444D01*
X4472611Y-11772015D01*
X4486896Y-11829158D01*
X4486896Y-11900587D01*
X4472611Y-11957729D01*
X4458325Y-11986301D01*
X4444039Y-12000587D01*
X4415468Y-12014872D01*
X4386896Y-12014872D01*
X4358325Y-12000587D01*
X4344039Y-11986301D01*
X4329753Y-11957729D01*
X4315468Y-11900587D01*
X4315468Y-11829158D01*
X4329753Y-11772015D01*
X4344039Y-11743444D01*
X4358325Y-11729158D01*
X4386896Y-11714872D01*
X4615468Y-11986301D02*
X4629753Y-12000587D01*
X4615468Y-12014872D01*
X4601182Y-12000587D01*
X4615468Y-11986301D01*
X4615468Y-12014872D01*
X4815468Y-11714872D02*
X4844039Y-11714872D01*
X4872611Y-11729158D01*
X4886896Y-11743444D01*
X4901182Y-11772015D01*
X4915468Y-11829158D01*
X4915468Y-11900587D01*
X4901182Y-11957729D01*
X4886896Y-11986301D01*
X4872611Y-12000587D01*
X4844039Y-12014872D01*
X4815468Y-12014872D01*
X4786896Y-12000587D01*
X4772611Y-11986301D01*
X4758325Y-11957729D01*
X4744039Y-11900587D01*
X4744039Y-11829158D01*
X4758325Y-11772015D01*
X4772611Y-11743444D01*
X4786896Y-11729158D01*
X4815468Y-11714872D01*
X5172611Y-11814872D02*
X5172611Y-12014872D01*
X5101182Y-11700587D02*
X5029753Y-11914872D01*
X5215468Y-11914872D01*
X5301182Y-11714872D02*
X5486896Y-11714872D01*
X5386896Y-11829158D01*
X5429753Y-11829158D01*
X5458325Y-11843444D01*
X5472611Y-11857729D01*
X5486896Y-11886301D01*
X5486896Y-11957729D01*
X5472611Y-11986301D01*
X5458325Y-12000587D01*
X5429753Y-12014872D01*
X5344039Y-12014872D01*
X5315468Y-12000587D01*
X5301182Y-11986301D01*
X5601182Y-11714872D02*
X5601182Y-11772015D01*
X5715468Y-11714872D02*
X5715468Y-11772015D01*
X6158325Y-12129158D02*
X6144039Y-12114872D01*
X6115468Y-12072015D01*
X6101182Y-12043444D01*
X6086896Y-12000587D01*
X6072610Y-11929158D01*
X6072610Y-11872015D01*
X6086896Y-11800587D01*
X6101182Y-11757729D01*
X6115468Y-11729158D01*
X6144039Y-11686301D01*
X6158325Y-11672015D01*
X6258325Y-11743444D02*
X6272610Y-11729158D01*
X6301182Y-11714872D01*
X6372610Y-11714872D01*
X6401182Y-11729158D01*
X6415468Y-11743444D01*
X6429753Y-11772015D01*
X6429753Y-11800587D01*
X6415468Y-11843444D01*
X6244039Y-12014872D01*
X6429753Y-12014872D01*
X6686896Y-11814872D02*
X6686896Y-12014872D01*
X6615468Y-11700587D02*
X6544039Y-11914872D01*
X6729753Y-11914872D01*
X7072610Y-12014872D02*
X7072610Y-11714872D01*
X7201182Y-12014872D02*
X7201182Y-11857729D01*
X7186896Y-11829158D01*
X7158325Y-11814872D01*
X7115468Y-11814872D01*
X7086896Y-11829158D01*
X7072610Y-11843444D01*
X7386896Y-12014872D02*
X7358325Y-12000587D01*
X7344039Y-11986301D01*
X7329753Y-11957729D01*
X7329753Y-11872015D01*
X7344039Y-11843444D01*
X7358325Y-11829158D01*
X7386896Y-11814872D01*
X7429753Y-11814872D01*
X7458325Y-11829158D01*
X7472610Y-11843444D01*
X7486896Y-11872015D01*
X7486896Y-11957729D01*
X7472610Y-11986301D01*
X7458325Y-12000587D01*
X7429753Y-12014872D01*
X7386896Y-12014872D01*
X7658325Y-12014872D02*
X7629753Y-12000587D01*
X7615468Y-11972015D01*
X7615468Y-11714872D01*
X7886896Y-12000587D02*
X7858325Y-12014872D01*
X7801182Y-12014872D01*
X7772610Y-12000587D01*
X7758325Y-11972015D01*
X7758325Y-11857729D01*
X7772610Y-11829158D01*
X7801182Y-11814872D01*
X7858325Y-11814872D01*
X7886896Y-11829158D01*
X7901182Y-11857729D01*
X7901182Y-11886301D01*
X7758325Y-11914872D01*
X8015468Y-12000587D02*
X8044039Y-12014872D01*
X8101182Y-12014872D01*
X8129753Y-12000587D01*
X8144039Y-11972015D01*
X8144039Y-11957729D01*
X8129753Y-11929158D01*
X8101182Y-11914872D01*
X8058325Y-11914872D01*
X8029753Y-11900587D01*
X8015468Y-11872015D01*
X8015468Y-11857729D01*
X8029753Y-11829158D01*
X8058325Y-11814872D01*
X8101182Y-11814872D01*
X8129753Y-11829158D01*
X8244039Y-12129158D02*
X8258325Y-12114872D01*
X8286896Y-12072015D01*
X8301182Y-12043444D01*
X8315468Y-12000587D01*
X8329753Y-11929158D01*
X8329753Y-11872015D01*
X8315468Y-11800587D01*
X8301182Y-11757729D01*
X8286896Y-11729158D01*
X8258325Y-11686301D01*
X8244039Y-11672015D01*
X1344896Y-12211658D02*
X1471896Y-12338658D01*
X1471896Y-12211658D02*
X1344896Y-12338658D01*
X1471896Y-12275158D02*
G75*
G03*
X1471896Y-12275158I-63500J0D01*
G01*
X1915468Y-12410872D02*
X1744039Y-12410872D01*
X1829753Y-12410872D02*
X1829753Y-12110872D01*
X1801182Y-12153729D01*
X1772610Y-12182301D01*
X1744039Y-12196587D01*
X2044039Y-12382301D02*
X2058325Y-12396587D01*
X2044039Y-12410872D01*
X2029753Y-12396587D01*
X2044039Y-12382301D01*
X2044039Y-12410872D01*
X2172611Y-12139444D02*
X2186896Y-12125158D01*
X2215468Y-12110872D01*
X2286896Y-12110872D01*
X2315468Y-12125158D01*
X2329753Y-12139444D01*
X2344039Y-12168015D01*
X2344039Y-12196587D01*
X2329753Y-12239444D01*
X2158325Y-12410872D01*
X2344039Y-12410872D01*
X2444039Y-12110872D02*
X2644039Y-12110872D01*
X2515468Y-12410872D01*
X2758325Y-12410872D02*
X2758325Y-12210872D01*
X2758325Y-12239444D02*
X2772611Y-12225158D01*
X2801182Y-12210872D01*
X2844039Y-12210872D01*
X2872610Y-12225158D01*
X2886896Y-12253729D01*
X2886896Y-12410872D01*
X2886896Y-12253729D02*
X2901182Y-12225158D01*
X2929753Y-12210872D01*
X2972610Y-12210872D01*
X3001182Y-12225158D01*
X3015468Y-12253729D01*
X3015468Y-12410872D01*
X3158325Y-12410872D02*
X3158325Y-12210872D01*
X3158325Y-12239444D02*
X3172610Y-12225158D01*
X3201182Y-12210872D01*
X3244039Y-12210872D01*
X3272610Y-12225158D01*
X3286896Y-12253729D01*
X3286896Y-12410872D01*
X3286896Y-12253729D02*
X3301182Y-12225158D01*
X3329753Y-12210872D01*
X3372610Y-12210872D01*
X3401182Y-12225158D01*
X3415468Y-12253729D01*
X3415468Y-12410872D01*
X4001182Y-12096587D02*
X3744039Y-12482301D01*
X4386896Y-12110872D02*
X4415468Y-12110872D01*
X4444039Y-12125158D01*
X4458325Y-12139444D01*
X4472611Y-12168015D01*
X4486896Y-12225158D01*
X4486896Y-12296587D01*
X4472611Y-12353729D01*
X4458325Y-12382301D01*
X4444039Y-12396587D01*
X4415468Y-12410872D01*
X4386896Y-12410872D01*
X4358325Y-12396587D01*
X4344039Y-12382301D01*
X4329753Y-12353729D01*
X4315468Y-12296587D01*
X4315468Y-12225158D01*
X4329753Y-12168015D01*
X4344039Y-12139444D01*
X4358325Y-12125158D01*
X4386896Y-12110872D01*
X4615468Y-12382301D02*
X4629753Y-12396587D01*
X4615468Y-12410872D01*
X4601182Y-12396587D01*
X4615468Y-12382301D01*
X4615468Y-12410872D01*
X4815468Y-12110872D02*
X4844039Y-12110872D01*
X4872611Y-12125158D01*
X4886896Y-12139444D01*
X4901182Y-12168015D01*
X4915468Y-12225158D01*
X4915468Y-12296587D01*
X4901182Y-12353729D01*
X4886896Y-12382301D01*
X4872611Y-12396587D01*
X4844039Y-12410872D01*
X4815468Y-12410872D01*
X4786896Y-12396587D01*
X4772611Y-12382301D01*
X4758325Y-12353729D01*
X4744039Y-12296587D01*
X4744039Y-12225158D01*
X4758325Y-12168015D01*
X4772611Y-12139444D01*
X4786896Y-12125158D01*
X4815468Y-12110872D01*
X5186896Y-12110872D02*
X5044039Y-12110872D01*
X5029753Y-12253729D01*
X5044039Y-12239444D01*
X5072611Y-12225158D01*
X5144039Y-12225158D01*
X5172611Y-12239444D01*
X5186896Y-12253729D01*
X5201182Y-12282301D01*
X5201182Y-12353729D01*
X5186896Y-12382301D01*
X5172611Y-12396587D01*
X5144039Y-12410872D01*
X5072611Y-12410872D01*
X5044039Y-12396587D01*
X5029753Y-12382301D01*
X5386896Y-12110872D02*
X5415468Y-12110872D01*
X5444039Y-12125158D01*
X5458325Y-12139444D01*
X5472611Y-12168015D01*
X5486896Y-12225158D01*
X5486896Y-12296587D01*
X5472611Y-12353729D01*
X5458325Y-12382301D01*
X5444039Y-12396587D01*
X5415468Y-12410872D01*
X5386896Y-12410872D01*
X5358325Y-12396587D01*
X5344039Y-12382301D01*
X5329753Y-12353729D01*
X5315468Y-12296587D01*
X5315468Y-12225158D01*
X5329753Y-12168015D01*
X5344039Y-12139444D01*
X5358325Y-12125158D01*
X5386896Y-12110872D01*
X5601182Y-12110872D02*
X5601182Y-12168015D01*
X5715468Y-12110872D02*
X5715468Y-12168015D01*
X6158325Y-12525158D02*
X6144039Y-12510872D01*
X6115468Y-12468015D01*
X6101182Y-12439444D01*
X6086896Y-12396587D01*
X6072610Y-12325158D01*
X6072610Y-12268015D01*
X6086896Y-12196587D01*
X6101182Y-12153729D01*
X6115468Y-12125158D01*
X6144039Y-12082301D01*
X6158325Y-12068015D01*
X6401182Y-12110872D02*
X6344039Y-12110872D01*
X6315468Y-12125158D01*
X6301182Y-12139444D01*
X6272610Y-12182301D01*
X6258325Y-12239444D01*
X6258325Y-12353729D01*
X6272610Y-12382301D01*
X6286896Y-12396587D01*
X6315468Y-12410872D01*
X6372610Y-12410872D01*
X6401182Y-12396587D01*
X6415468Y-12382301D01*
X6429753Y-12353729D01*
X6429753Y-12282301D01*
X6415468Y-12253729D01*
X6401182Y-12239444D01*
X6372610Y-12225158D01*
X6315468Y-12225158D01*
X6286896Y-12239444D01*
X6272610Y-12253729D01*
X6258325Y-12282301D01*
X6686896Y-12110872D02*
X6629753Y-12110872D01*
X6601182Y-12125158D01*
X6586896Y-12139444D01*
X6558325Y-12182301D01*
X6544039Y-12239444D01*
X6544039Y-12353729D01*
X6558325Y-12382301D01*
X6572610Y-12396587D01*
X6601182Y-12410872D01*
X6658325Y-12410872D01*
X6686896Y-12396587D01*
X6701182Y-12382301D01*
X6715468Y-12353729D01*
X6715468Y-12282301D01*
X6701182Y-12253729D01*
X6686896Y-12239444D01*
X6658325Y-12225158D01*
X6601182Y-12225158D01*
X6572610Y-12239444D01*
X6558325Y-12253729D01*
X6544039Y-12282301D01*
X7072610Y-12410872D02*
X7072610Y-12110872D01*
X7201182Y-12410872D02*
X7201182Y-12253729D01*
X7186896Y-12225158D01*
X7158325Y-12210872D01*
X7115468Y-12210872D01*
X7086896Y-12225158D01*
X7072610Y-12239444D01*
X7386896Y-12410872D02*
X7358325Y-12396587D01*
X7344039Y-12382301D01*
X7329753Y-12353729D01*
X7329753Y-12268015D01*
X7344039Y-12239444D01*
X7358325Y-12225158D01*
X7386896Y-12210872D01*
X7429753Y-12210872D01*
X7458325Y-12225158D01*
X7472610Y-12239444D01*
X7486896Y-12268015D01*
X7486896Y-12353729D01*
X7472610Y-12382301D01*
X7458325Y-12396587D01*
X7429753Y-12410872D01*
X7386896Y-12410872D01*
X7658325Y-12410872D02*
X7629753Y-12396587D01*
X7615468Y-12368015D01*
X7615468Y-12110872D01*
X7886896Y-12396587D02*
X7858325Y-12410872D01*
X7801182Y-12410872D01*
X7772610Y-12396587D01*
X7758325Y-12368015D01*
X7758325Y-12253729D01*
X7772610Y-12225158D01*
X7801182Y-12210872D01*
X7858325Y-12210872D01*
X7886896Y-12225158D01*
X7901182Y-12253729D01*
X7901182Y-12282301D01*
X7758325Y-12310872D01*
X8015468Y-12396587D02*
X8044039Y-12410872D01*
X8101182Y-12410872D01*
X8129753Y-12396587D01*
X8144039Y-12368015D01*
X8144039Y-12353729D01*
X8129753Y-12325158D01*
X8101182Y-12310872D01*
X8058325Y-12310872D01*
X8029753Y-12296587D01*
X8015468Y-12268015D01*
X8015468Y-12253729D01*
X8029753Y-12225158D01*
X8058325Y-12210872D01*
X8101182Y-12210872D01*
X8129753Y-12225158D01*
X8244039Y-12525158D02*
X8258325Y-12510872D01*
X8286896Y-12468015D01*
X8301182Y-12439444D01*
X8315468Y-12396587D01*
X8329753Y-12325158D01*
X8329753Y-12268015D01*
X8315468Y-12196587D01*
X8301182Y-12153729D01*
X8286896Y-12125158D01*
X8258325Y-12082301D01*
X8244039Y-12068015D01*
X1271896Y-12571158D02*
X1471896Y-12771158D01*
X1471896Y-12571158D02*
X1271896Y-12771158D01*
X1371896Y-12571158D02*
X1371896Y-12771158D01*
X1271896Y-12671158D02*
X1471896Y-12671158D01*
X1744039Y-12535444D02*
X1758325Y-12521158D01*
X1786896Y-12506872D01*
X1858325Y-12506872D01*
X1886896Y-12521158D01*
X1901182Y-12535444D01*
X1915468Y-12564015D01*
X1915468Y-12592587D01*
X1901182Y-12635444D01*
X1729753Y-12806872D01*
X1915468Y-12806872D01*
X2044039Y-12778301D02*
X2058325Y-12792587D01*
X2044039Y-12806872D01*
X2029753Y-12792587D01*
X2044039Y-12778301D01*
X2044039Y-12806872D01*
X2244039Y-12506872D02*
X2272611Y-12506872D01*
X2301182Y-12521158D01*
X2315468Y-12535444D01*
X2329753Y-12564015D01*
X2344039Y-12621158D01*
X2344039Y-12692587D01*
X2329753Y-12749729D01*
X2315468Y-12778301D01*
X2301182Y-12792587D01*
X2272611Y-12806872D01*
X2244039Y-12806872D01*
X2215468Y-12792587D01*
X2201182Y-12778301D01*
X2186896Y-12749729D01*
X2172611Y-12692587D01*
X2172611Y-12621158D01*
X2186896Y-12564015D01*
X2201182Y-12535444D01*
X2215468Y-12521158D01*
X2244039Y-12506872D01*
X2529753Y-12506872D02*
X2558325Y-12506872D01*
X2586896Y-12521158D01*
X2601182Y-12535444D01*
X2615468Y-12564015D01*
X2629753Y-12621158D01*
X2629753Y-12692587D01*
X2615468Y-12749729D01*
X2601182Y-12778301D01*
X2586896Y-12792587D01*
X2558325Y-12806872D01*
X2529753Y-12806872D01*
X2501182Y-12792587D01*
X2486896Y-12778301D01*
X2472611Y-12749729D01*
X2458325Y-12692587D01*
X2458325Y-12621158D01*
X2472611Y-12564015D01*
X2486896Y-12535444D01*
X2501182Y-12521158D01*
X2529753Y-12506872D01*
X2758325Y-12806872D02*
X2758325Y-12606872D01*
X2758325Y-12635444D02*
X2772611Y-12621158D01*
X2801182Y-12606872D01*
X2844039Y-12606872D01*
X2872610Y-12621158D01*
X2886896Y-12649729D01*
X2886896Y-12806872D01*
X2886896Y-12649729D02*
X2901182Y-12621158D01*
X2929753Y-12606872D01*
X2972610Y-12606872D01*
X3001182Y-12621158D01*
X3015468Y-12649729D01*
X3015468Y-12806872D01*
X3158325Y-12806872D02*
X3158325Y-12606872D01*
X3158325Y-12635444D02*
X3172610Y-12621158D01*
X3201182Y-12606872D01*
X3244039Y-12606872D01*
X3272610Y-12621158D01*
X3286896Y-12649729D01*
X3286896Y-12806872D01*
X3286896Y-12649729D02*
X3301182Y-12621158D01*
X3329753Y-12606872D01*
X3372610Y-12606872D01*
X3401182Y-12621158D01*
X3415468Y-12649729D01*
X3415468Y-12806872D01*
X4001182Y-12492587D02*
X3744039Y-12878301D01*
X4386896Y-12506872D02*
X4415468Y-12506872D01*
X4444039Y-12521158D01*
X4458325Y-12535444D01*
X4472611Y-12564015D01*
X4486896Y-12621158D01*
X4486896Y-12692587D01*
X4472611Y-12749729D01*
X4458325Y-12778301D01*
X4444039Y-12792587D01*
X4415468Y-12806872D01*
X4386896Y-12806872D01*
X4358325Y-12792587D01*
X4344039Y-12778301D01*
X4329753Y-12749729D01*
X4315468Y-12692587D01*
X4315468Y-12621158D01*
X4329753Y-12564015D01*
X4344039Y-12535444D01*
X4358325Y-12521158D01*
X4386896Y-12506872D01*
X4615468Y-12778301D02*
X4629753Y-12792587D01*
X4615468Y-12806872D01*
X4601182Y-12792587D01*
X4615468Y-12778301D01*
X4615468Y-12806872D01*
X4815468Y-12506872D02*
X4844039Y-12506872D01*
X4872611Y-12521158D01*
X4886896Y-12535444D01*
X4901182Y-12564015D01*
X4915468Y-12621158D01*
X4915468Y-12692587D01*
X4901182Y-12749729D01*
X4886896Y-12778301D01*
X4872611Y-12792587D01*
X4844039Y-12806872D01*
X4815468Y-12806872D01*
X4786896Y-12792587D01*
X4772611Y-12778301D01*
X4758325Y-12749729D01*
X4744039Y-12692587D01*
X4744039Y-12621158D01*
X4758325Y-12564015D01*
X4772611Y-12535444D01*
X4786896Y-12521158D01*
X4815468Y-12506872D01*
X5015468Y-12506872D02*
X5215468Y-12506872D01*
X5086896Y-12806872D01*
X5344039Y-12806872D02*
X5401182Y-12806872D01*
X5429753Y-12792587D01*
X5444039Y-12778301D01*
X5472611Y-12735444D01*
X5486896Y-12678301D01*
X5486896Y-12564015D01*
X5472611Y-12535444D01*
X5458325Y-12521158D01*
X5429753Y-12506872D01*
X5372611Y-12506872D01*
X5344039Y-12521158D01*
X5329753Y-12535444D01*
X5315468Y-12564015D01*
X5315468Y-12635444D01*
X5329753Y-12664015D01*
X5344039Y-12678301D01*
X5372611Y-12692587D01*
X5429753Y-12692587D01*
X5458325Y-12678301D01*
X5472611Y-12664015D01*
X5486896Y-12635444D01*
X5601182Y-12506872D02*
X5601182Y-12564015D01*
X5715468Y-12506872D02*
X5715468Y-12564015D01*
X6158325Y-12921158D02*
X6144039Y-12906872D01*
X6115468Y-12864015D01*
X6101182Y-12835444D01*
X6086896Y-12792587D01*
X6072610Y-12721158D01*
X6072610Y-12664015D01*
X6086896Y-12592587D01*
X6101182Y-12549729D01*
X6115468Y-12521158D01*
X6144039Y-12478301D01*
X6158325Y-12464015D01*
X6329753Y-12506872D02*
X6358325Y-12506872D01*
X6386896Y-12521158D01*
X6401182Y-12535444D01*
X6415468Y-12564015D01*
X6429753Y-12621158D01*
X6429753Y-12692587D01*
X6415468Y-12749729D01*
X6401182Y-12778301D01*
X6386896Y-12792587D01*
X6358325Y-12806872D01*
X6329753Y-12806872D01*
X6301182Y-12792587D01*
X6286896Y-12778301D01*
X6272610Y-12749729D01*
X6258325Y-12692587D01*
X6258325Y-12621158D01*
X6272610Y-12564015D01*
X6286896Y-12535444D01*
X6301182Y-12521158D01*
X6329753Y-12506872D01*
X6786896Y-12806872D02*
X6786896Y-12506872D01*
X6915468Y-12806872D02*
X6915468Y-12649729D01*
X6901182Y-12621158D01*
X6872610Y-12606872D01*
X6829753Y-12606872D01*
X6801182Y-12621158D01*
X6786896Y-12635444D01*
X7101182Y-12806872D02*
X7072610Y-12792587D01*
X7058325Y-12778301D01*
X7044039Y-12749729D01*
X7044039Y-12664015D01*
X7058325Y-12635444D01*
X7072610Y-12621158D01*
X7101182Y-12606872D01*
X7144039Y-12606872D01*
X7172610Y-12621158D01*
X7186896Y-12635444D01*
X7201182Y-12664015D01*
X7201182Y-12749729D01*
X7186896Y-12778301D01*
X7172610Y-12792587D01*
X7144039Y-12806872D01*
X7101182Y-12806872D01*
X7372610Y-12806872D02*
X7344039Y-12792587D01*
X7329753Y-12764015D01*
X7329753Y-12506872D01*
X7601182Y-12792587D02*
X7572610Y-12806872D01*
X7515468Y-12806872D01*
X7486896Y-12792587D01*
X7472610Y-12764015D01*
X7472610Y-12649729D01*
X7486896Y-12621158D01*
X7515468Y-12606872D01*
X7572610Y-12606872D01*
X7601182Y-12621158D01*
X7615468Y-12649729D01*
X7615468Y-12678301D01*
X7472610Y-12706872D01*
X7729753Y-12792587D02*
X7758325Y-12806872D01*
X7815468Y-12806872D01*
X7844039Y-12792587D01*
X7858325Y-12764015D01*
X7858325Y-12749729D01*
X7844039Y-12721158D01*
X7815468Y-12706872D01*
X7772610Y-12706872D01*
X7744039Y-12692587D01*
X7729753Y-12664015D01*
X7729753Y-12649729D01*
X7744039Y-12621158D01*
X7772610Y-12606872D01*
X7815468Y-12606872D01*
X7844039Y-12621158D01*
X8215468Y-12692587D02*
X8444039Y-12692587D01*
X8329753Y-12806872D02*
X8329753Y-12578301D01*
X8801182Y-12535444D02*
X8815468Y-12521158D01*
X8844039Y-12506872D01*
X8915468Y-12506872D01*
X8944039Y-12521158D01*
X8958325Y-12535444D01*
X8972611Y-12564015D01*
X8972611Y-12592587D01*
X8958325Y-12635444D01*
X8786896Y-12806872D01*
X8972611Y-12806872D01*
X9315468Y-12792587D02*
X9344039Y-12806872D01*
X9401182Y-12806872D01*
X9429753Y-12792587D01*
X9444039Y-12764015D01*
X9444039Y-12749729D01*
X9429753Y-12721158D01*
X9401182Y-12706872D01*
X9358325Y-12706872D01*
X9329753Y-12692587D01*
X9315468Y-12664015D01*
X9315468Y-12649729D01*
X9329753Y-12621158D01*
X9358325Y-12606872D01*
X9401182Y-12606872D01*
X9429753Y-12621158D01*
X9615468Y-12806872D02*
X9586896Y-12792587D01*
X9572611Y-12764015D01*
X9572611Y-12506872D01*
X9772611Y-12806872D02*
X9744039Y-12792587D01*
X9729753Y-12778301D01*
X9715468Y-12749729D01*
X9715468Y-12664015D01*
X9729753Y-12635444D01*
X9744039Y-12621158D01*
X9772611Y-12606872D01*
X9815468Y-12606872D01*
X9844039Y-12621158D01*
X9858325Y-12635444D01*
X9872611Y-12664015D01*
X9872611Y-12749729D01*
X9858325Y-12778301D01*
X9844039Y-12792587D01*
X9815468Y-12806872D01*
X9772611Y-12806872D01*
X9958325Y-12606872D02*
X10072611Y-12606872D01*
X10001182Y-12506872D02*
X10001182Y-12764015D01*
X10015468Y-12792587D01*
X10044039Y-12806872D01*
X10072611Y-12806872D01*
X10158325Y-12792587D02*
X10186896Y-12806872D01*
X10244039Y-12806872D01*
X10272611Y-12792587D01*
X10286896Y-12764015D01*
X10286896Y-12749729D01*
X10272611Y-12721158D01*
X10244039Y-12706872D01*
X10201182Y-12706872D01*
X10172611Y-12692587D01*
X10158325Y-12664015D01*
X10158325Y-12649729D01*
X10172611Y-12621158D01*
X10201182Y-12606872D01*
X10244039Y-12606872D01*
X10272611Y-12621158D01*
X10386896Y-12921158D02*
X10401182Y-12906872D01*
X10429753Y-12864015D01*
X10444039Y-12835444D01*
X10458325Y-12792587D01*
X10472611Y-12721158D01*
X10472611Y-12664015D01*
X10458325Y-12592587D01*
X10444039Y-12549729D01*
X10429753Y-12521158D01*
X10401182Y-12478301D01*
X10386896Y-12464015D01*
X1372836Y-13017628D02*
X1471896Y-13116688D01*
X1471896Y-13017628D02*
X1372836Y-13116688D01*
X1457390Y-13102181D02*
X1457390Y-13032135D01*
X1387343Y-13032135D01*
X1387343Y-13102181D01*
X1457390Y-13102181D01*
X1815468Y-12902872D02*
X1844039Y-12902872D01*
X1872610Y-12917158D01*
X1886896Y-12931444D01*
X1901182Y-12960015D01*
X1915468Y-13017158D01*
X1915468Y-13088587D01*
X1901182Y-13145729D01*
X1886896Y-13174301D01*
X1872610Y-13188587D01*
X1844039Y-13202872D01*
X1815468Y-13202872D01*
X1786896Y-13188587D01*
X1772610Y-13174301D01*
X1758325Y-13145729D01*
X1744039Y-13088587D01*
X1744039Y-13017158D01*
X1758325Y-12960015D01*
X1772610Y-12931444D01*
X1786896Y-12917158D01*
X1815468Y-12902872D01*
X2044039Y-13174301D02*
X2058325Y-13188587D01*
X2044039Y-13202872D01*
X2029753Y-13188587D01*
X2044039Y-13174301D01*
X2044039Y-13202872D01*
X2201182Y-13202872D02*
X2258325Y-13202872D01*
X2286896Y-13188587D01*
X2301182Y-13174301D01*
X2329753Y-13131444D01*
X2344039Y-13074301D01*
X2344039Y-12960015D01*
X2329753Y-12931444D01*
X2315468Y-12917158D01*
X2286896Y-12902872D01*
X2229753Y-12902872D01*
X2201182Y-12917158D01*
X2186896Y-12931444D01*
X2172611Y-12960015D01*
X2172611Y-13031444D01*
X2186896Y-13060015D01*
X2201182Y-13074301D01*
X2229753Y-13088587D01*
X2286896Y-13088587D01*
X2315468Y-13074301D01*
X2329753Y-13060015D01*
X2344039Y-13031444D01*
X2486896Y-13202872D02*
X2544039Y-13202872D01*
X2572611Y-13188587D01*
X2586896Y-13174301D01*
X2615468Y-13131444D01*
X2629753Y-13074301D01*
X2629753Y-12960015D01*
X2615468Y-12931444D01*
X2601182Y-12917158D01*
X2572611Y-12902872D01*
X2515468Y-12902872D01*
X2486896Y-12917158D01*
X2472611Y-12931444D01*
X2458325Y-12960015D01*
X2458325Y-13031444D01*
X2472611Y-13060015D01*
X2486896Y-13074301D01*
X2515468Y-13088587D01*
X2572611Y-13088587D01*
X2601182Y-13074301D01*
X2615468Y-13060015D01*
X2629753Y-13031444D01*
X2758325Y-13202872D02*
X2758325Y-13002872D01*
X2758325Y-13031444D02*
X2772611Y-13017158D01*
X2801182Y-13002872D01*
X2844039Y-13002872D01*
X2872610Y-13017158D01*
X2886896Y-13045729D01*
X2886896Y-13202872D01*
X2886896Y-13045729D02*
X2901182Y-13017158D01*
X2929753Y-13002872D01*
X2972610Y-13002872D01*
X3001182Y-13017158D01*
X3015468Y-13045729D01*
X3015468Y-13202872D01*
X3158325Y-13202872D02*
X3158325Y-13002872D01*
X3158325Y-13031444D02*
X3172610Y-13017158D01*
X3201182Y-13002872D01*
X3244039Y-13002872D01*
X3272610Y-13017158D01*
X3286896Y-13045729D01*
X3286896Y-13202872D01*
X3286896Y-13045729D02*
X3301182Y-13017158D01*
X3329753Y-13002872D01*
X3372610Y-13002872D01*
X3401182Y-13017158D01*
X3415468Y-13045729D01*
X3415468Y-13202872D01*
X4001182Y-12888587D02*
X3744039Y-13274301D01*
X4386896Y-12902872D02*
X4415468Y-12902872D01*
X4444039Y-12917158D01*
X4458325Y-12931444D01*
X4472611Y-12960015D01*
X4486896Y-13017158D01*
X4486896Y-13088587D01*
X4472611Y-13145729D01*
X4458325Y-13174301D01*
X4444039Y-13188587D01*
X4415468Y-13202872D01*
X4386896Y-13202872D01*
X4358325Y-13188587D01*
X4344039Y-13174301D01*
X4329753Y-13145729D01*
X4315468Y-13088587D01*
X4315468Y-13017158D01*
X4329753Y-12960015D01*
X4344039Y-12931444D01*
X4358325Y-12917158D01*
X4386896Y-12902872D01*
X4615468Y-13174301D02*
X4629753Y-13188587D01*
X4615468Y-13202872D01*
X4601182Y-13188587D01*
X4615468Y-13174301D01*
X4615468Y-13202872D01*
X4815468Y-12902872D02*
X4844039Y-12902872D01*
X4872611Y-12917158D01*
X4886896Y-12931444D01*
X4901182Y-12960015D01*
X4915468Y-13017158D01*
X4915468Y-13088587D01*
X4901182Y-13145729D01*
X4886896Y-13174301D01*
X4872611Y-13188587D01*
X4844039Y-13202872D01*
X4815468Y-13202872D01*
X4786896Y-13188587D01*
X4772611Y-13174301D01*
X4758325Y-13145729D01*
X4744039Y-13088587D01*
X4744039Y-13017158D01*
X4758325Y-12960015D01*
X4772611Y-12931444D01*
X4786896Y-12917158D01*
X4815468Y-12902872D01*
X5015468Y-12902872D02*
X5201182Y-12902872D01*
X5101182Y-13017158D01*
X5144039Y-13017158D01*
X5172611Y-13031444D01*
X5186896Y-13045729D01*
X5201182Y-13074301D01*
X5201182Y-13145729D01*
X5186896Y-13174301D01*
X5172611Y-13188587D01*
X5144039Y-13202872D01*
X5058325Y-13202872D01*
X5029753Y-13188587D01*
X5015468Y-13174301D01*
X5344039Y-13202872D02*
X5401182Y-13202872D01*
X5429753Y-13188587D01*
X5444039Y-13174301D01*
X5472611Y-13131444D01*
X5486896Y-13074301D01*
X5486896Y-12960015D01*
X5472611Y-12931444D01*
X5458325Y-12917158D01*
X5429753Y-12902872D01*
X5372611Y-12902872D01*
X5344039Y-12917158D01*
X5329753Y-12931444D01*
X5315468Y-12960015D01*
X5315468Y-13031444D01*
X5329753Y-13060015D01*
X5344039Y-13074301D01*
X5372611Y-13088587D01*
X5429753Y-13088587D01*
X5458325Y-13074301D01*
X5472611Y-13060015D01*
X5486896Y-13031444D01*
X5601182Y-12902872D02*
X5601182Y-12960015D01*
X5715468Y-12902872D02*
X5715468Y-12960015D01*
X6158325Y-13317158D02*
X6144039Y-13302872D01*
X6115468Y-13260015D01*
X6101182Y-13231444D01*
X6086896Y-13188587D01*
X6072610Y-13117158D01*
X6072610Y-13060015D01*
X6086896Y-12988587D01*
X6101182Y-12945729D01*
X6115468Y-12917158D01*
X6144039Y-12874301D01*
X6158325Y-12860015D01*
X6401182Y-13002872D02*
X6401182Y-13202872D01*
X6329753Y-12888587D02*
X6258325Y-13102872D01*
X6444039Y-13102872D01*
X6686896Y-13002872D02*
X6686896Y-13202872D01*
X6615468Y-12888587D02*
X6544039Y-13102872D01*
X6729753Y-13102872D01*
X7072610Y-13202872D02*
X7072610Y-12902872D01*
X7201182Y-13202872D02*
X7201182Y-13045729D01*
X7186896Y-13017158D01*
X7158325Y-13002872D01*
X7115468Y-13002872D01*
X7086896Y-13017158D01*
X7072610Y-13031444D01*
X7386896Y-13202872D02*
X7358325Y-13188587D01*
X7344039Y-13174301D01*
X7329753Y-13145729D01*
X7329753Y-13060015D01*
X7344039Y-13031444D01*
X7358325Y-13017158D01*
X7386896Y-13002872D01*
X7429753Y-13002872D01*
X7458325Y-13017158D01*
X7472610Y-13031444D01*
X7486896Y-13060015D01*
X7486896Y-13145729D01*
X7472610Y-13174301D01*
X7458325Y-13188587D01*
X7429753Y-13202872D01*
X7386896Y-13202872D01*
X7658325Y-13202872D02*
X7629753Y-13188587D01*
X7615468Y-13160015D01*
X7615468Y-12902872D01*
X7886896Y-13188587D02*
X7858325Y-13202872D01*
X7801182Y-13202872D01*
X7772610Y-13188587D01*
X7758325Y-13160015D01*
X7758325Y-13045729D01*
X7772610Y-13017158D01*
X7801182Y-13002872D01*
X7858325Y-13002872D01*
X7886896Y-13017158D01*
X7901182Y-13045729D01*
X7901182Y-13074301D01*
X7758325Y-13102872D01*
X8015468Y-13188587D02*
X8044039Y-13202872D01*
X8101182Y-13202872D01*
X8129753Y-13188587D01*
X8144039Y-13160015D01*
X8144039Y-13145729D01*
X8129753Y-13117158D01*
X8101182Y-13102872D01*
X8058325Y-13102872D01*
X8029753Y-13088587D01*
X8015468Y-13060015D01*
X8015468Y-13045729D01*
X8029753Y-13017158D01*
X8058325Y-13002872D01*
X8101182Y-13002872D01*
X8129753Y-13017158D01*
X8244039Y-13317158D02*
X8258325Y-13302872D01*
X8286896Y-13260015D01*
X8301182Y-13231444D01*
X8315468Y-13188587D01*
X8329753Y-13117158D01*
X8329753Y-13060015D01*
X8315468Y-12988587D01*
X8301182Y-12945729D01*
X8286896Y-12917158D01*
X8258325Y-12874301D01*
X8244039Y-12860015D01*
X8786896Y-13317158D02*
X8772611Y-13302872D01*
X8744039Y-13260015D01*
X8729753Y-13231444D01*
X8715468Y-13188587D01*
X8701182Y-13117158D01*
X8701182Y-13060015D01*
X8715468Y-12988587D01*
X8729753Y-12945729D01*
X8744039Y-12917158D01*
X8772611Y-12874301D01*
X8786896Y-12860015D01*
X8901182Y-13002872D02*
X8901182Y-13202872D01*
X8901182Y-13031444D02*
X8915468Y-13017158D01*
X8944039Y-13002872D01*
X8986896Y-13002872D01*
X9015468Y-13017158D01*
X9029753Y-13045729D01*
X9029753Y-13202872D01*
X9215468Y-13202872D02*
X9186896Y-13188587D01*
X9172611Y-13174301D01*
X9158325Y-13145729D01*
X9158325Y-13060015D01*
X9172611Y-13031444D01*
X9186896Y-13017158D01*
X9215468Y-13002872D01*
X9258325Y-13002872D01*
X9286896Y-13017158D01*
X9301182Y-13031444D01*
X9315468Y-13060015D01*
X9315468Y-13145729D01*
X9301182Y-13174301D01*
X9286896Y-13188587D01*
X9258325Y-13202872D01*
X9215468Y-13202872D01*
X9401182Y-13002872D02*
X9515468Y-13002872D01*
X9444039Y-12902872D02*
X9444039Y-13160015D01*
X9458325Y-13188587D01*
X9486896Y-13202872D01*
X9515468Y-13202872D01*
X9844039Y-13002872D02*
X9844039Y-13302872D01*
X9844039Y-13017158D02*
X9872611Y-13002872D01*
X9929753Y-13002872D01*
X9958325Y-13017158D01*
X9972611Y-13031444D01*
X9986896Y-13060015D01*
X9986896Y-13145729D01*
X9972611Y-13174301D01*
X9958325Y-13188587D01*
X9929753Y-13202872D01*
X9872611Y-13202872D01*
X9844039Y-13188587D01*
X10158325Y-13202872D02*
X10129753Y-13188587D01*
X10115468Y-13160015D01*
X10115468Y-12902872D01*
X10401182Y-13202872D02*
X10401182Y-13045729D01*
X10386896Y-13017158D01*
X10358325Y-13002872D01*
X10301182Y-13002872D01*
X10272611Y-13017158D01*
X10401182Y-13188587D02*
X10372611Y-13202872D01*
X10301182Y-13202872D01*
X10272611Y-13188587D01*
X10258325Y-13160015D01*
X10258325Y-13131444D01*
X10272611Y-13102872D01*
X10301182Y-13088587D01*
X10372611Y-13088587D01*
X10401182Y-13074301D01*
X10501182Y-13002872D02*
X10615468Y-13002872D01*
X10544039Y-12902872D02*
X10544039Y-13160015D01*
X10558325Y-13188587D01*
X10586896Y-13202872D01*
X10615468Y-13202872D01*
X10829753Y-13188587D02*
X10801182Y-13202872D01*
X10744039Y-13202872D01*
X10715468Y-13188587D01*
X10701182Y-13160015D01*
X10701182Y-13045729D01*
X10715468Y-13017158D01*
X10744039Y-13002872D01*
X10801182Y-13002872D01*
X10829753Y-13017158D01*
X10844039Y-13045729D01*
X10844039Y-13074301D01*
X10701182Y-13102872D01*
X11101182Y-13202872D02*
X11101182Y-12902872D01*
X11101182Y-13188587D02*
X11072611Y-13202872D01*
X11015468Y-13202872D01*
X10986896Y-13188587D01*
X10972611Y-13174301D01*
X10958325Y-13145729D01*
X10958325Y-13060015D01*
X10972611Y-13031444D01*
X10986896Y-13017158D01*
X11015468Y-13002872D01*
X11072611Y-13002872D01*
X11101182Y-13017158D01*
X11215468Y-13317158D02*
X11229753Y-13302872D01*
X11258325Y-13260015D01*
X11272610Y-13231444D01*
X11286896Y-13188587D01*
X11301182Y-13117158D01*
X11301182Y-13060015D01*
X11286896Y-12988587D01*
X11272610Y-12945729D01*
X11258325Y-12917158D01*
X11229753Y-12874301D01*
X11215468Y-12860015D01*
X1301716Y-13378068D02*
X1471896Y-13548248D01*
X1471896Y-13378068D02*
X1301716Y-13548248D01*
X1386806Y-13548248D02*
X1471896Y-13463158D01*
X1386806Y-13378068D01*
X1301716Y-13463158D01*
X1386806Y-13548248D01*
X1915468Y-13598872D02*
X1744039Y-13598872D01*
X1829753Y-13598872D02*
X1829753Y-13298872D01*
X1801182Y-13341729D01*
X1772610Y-13370301D01*
X1744039Y-13384587D01*
X2044039Y-13570301D02*
X2058325Y-13584587D01*
X2044039Y-13598872D01*
X2029753Y-13584587D01*
X2044039Y-13570301D01*
X2044039Y-13598872D01*
X2158325Y-13298872D02*
X2358325Y-13298872D01*
X2229753Y-13598872D01*
X2529753Y-13298872D02*
X2558325Y-13298872D01*
X2586896Y-13313158D01*
X2601182Y-13327444D01*
X2615468Y-13356015D01*
X2629753Y-13413158D01*
X2629753Y-13484587D01*
X2615468Y-13541729D01*
X2601182Y-13570301D01*
X2586896Y-13584587D01*
X2558325Y-13598872D01*
X2529753Y-13598872D01*
X2501182Y-13584587D01*
X2486896Y-13570301D01*
X2472611Y-13541729D01*
X2458325Y-13484587D01*
X2458325Y-13413158D01*
X2472611Y-13356015D01*
X2486896Y-13327444D01*
X2501182Y-13313158D01*
X2529753Y-13298872D01*
X2758325Y-13598872D02*
X2758325Y-13398872D01*
X2758325Y-13427444D02*
X2772611Y-13413158D01*
X2801182Y-13398872D01*
X2844039Y-13398872D01*
X2872610Y-13413158D01*
X2886896Y-13441729D01*
X2886896Y-13598872D01*
X2886896Y-13441729D02*
X2901182Y-13413158D01*
X2929753Y-13398872D01*
X2972610Y-13398872D01*
X3001182Y-13413158D01*
X3015468Y-13441729D01*
X3015468Y-13598872D01*
X3158325Y-13598872D02*
X3158325Y-13398872D01*
X3158325Y-13427444D02*
X3172610Y-13413158D01*
X3201182Y-13398872D01*
X3244039Y-13398872D01*
X3272610Y-13413158D01*
X3286896Y-13441729D01*
X3286896Y-13598872D01*
X3286896Y-13441729D02*
X3301182Y-13413158D01*
X3329753Y-13398872D01*
X3372610Y-13398872D01*
X3401182Y-13413158D01*
X3415468Y-13441729D01*
X3415468Y-13598872D01*
X4001182Y-13284587D02*
X3744039Y-13670301D01*
X4386896Y-13298872D02*
X4415468Y-13298872D01*
X4444039Y-13313158D01*
X4458325Y-13327444D01*
X4472611Y-13356015D01*
X4486896Y-13413158D01*
X4486896Y-13484587D01*
X4472611Y-13541729D01*
X4458325Y-13570301D01*
X4444039Y-13584587D01*
X4415468Y-13598872D01*
X4386896Y-13598872D01*
X4358325Y-13584587D01*
X4344039Y-13570301D01*
X4329753Y-13541729D01*
X4315468Y-13484587D01*
X4315468Y-13413158D01*
X4329753Y-13356015D01*
X4344039Y-13327444D01*
X4358325Y-13313158D01*
X4386896Y-13298872D01*
X4615468Y-13570301D02*
X4629753Y-13584587D01*
X4615468Y-13598872D01*
X4601182Y-13584587D01*
X4615468Y-13570301D01*
X4615468Y-13598872D01*
X4815468Y-13298872D02*
X4844039Y-13298872D01*
X4872611Y-13313158D01*
X4886896Y-13327444D01*
X4901182Y-13356015D01*
X4915468Y-13413158D01*
X4915468Y-13484587D01*
X4901182Y-13541729D01*
X4886896Y-13570301D01*
X4872611Y-13584587D01*
X4844039Y-13598872D01*
X4815468Y-13598872D01*
X4786896Y-13584587D01*
X4772611Y-13570301D01*
X4758325Y-13541729D01*
X4744039Y-13484587D01*
X4744039Y-13413158D01*
X4758325Y-13356015D01*
X4772611Y-13327444D01*
X4786896Y-13313158D01*
X4815468Y-13298872D01*
X5172611Y-13298872D02*
X5115468Y-13298872D01*
X5086896Y-13313158D01*
X5072611Y-13327444D01*
X5044039Y-13370301D01*
X5029753Y-13427444D01*
X5029753Y-13541729D01*
X5044039Y-13570301D01*
X5058325Y-13584587D01*
X5086896Y-13598872D01*
X5144039Y-13598872D01*
X5172611Y-13584587D01*
X5186896Y-13570301D01*
X5201182Y-13541729D01*
X5201182Y-13470301D01*
X5186896Y-13441729D01*
X5172611Y-13427444D01*
X5144039Y-13413158D01*
X5086896Y-13413158D01*
X5058325Y-13427444D01*
X5044039Y-13441729D01*
X5029753Y-13470301D01*
X5301182Y-13298872D02*
X5501182Y-13298872D01*
X5372611Y-13598872D01*
X5601182Y-13298872D02*
X5601182Y-13356015D01*
X5715468Y-13298872D02*
X5715468Y-13356015D01*
X6158325Y-13713158D02*
X6144039Y-13698872D01*
X6115468Y-13656015D01*
X6101182Y-13627444D01*
X6086896Y-13584587D01*
X6072610Y-13513158D01*
X6072610Y-13456015D01*
X6086896Y-13384587D01*
X6101182Y-13341729D01*
X6115468Y-13313158D01*
X6144039Y-13270301D01*
X6158325Y-13256015D01*
X6401182Y-13398872D02*
X6401182Y-13598872D01*
X6329753Y-13284587D02*
X6258325Y-13498872D01*
X6444039Y-13498872D01*
X6686896Y-13398872D02*
X6686896Y-13598872D01*
X6615468Y-13284587D02*
X6544039Y-13498872D01*
X6729753Y-13498872D01*
X7072610Y-13598872D02*
X7072610Y-13298872D01*
X7201182Y-13598872D02*
X7201182Y-13441729D01*
X7186896Y-13413158D01*
X7158325Y-13398872D01*
X7115468Y-13398872D01*
X7086896Y-13413158D01*
X7072610Y-13427444D01*
X7386896Y-13598872D02*
X7358325Y-13584587D01*
X7344039Y-13570301D01*
X7329753Y-13541729D01*
X7329753Y-13456015D01*
X7344039Y-13427444D01*
X7358325Y-13413158D01*
X7386896Y-13398872D01*
X7429753Y-13398872D01*
X7458325Y-13413158D01*
X7472610Y-13427444D01*
X7486896Y-13456015D01*
X7486896Y-13541729D01*
X7472610Y-13570301D01*
X7458325Y-13584587D01*
X7429753Y-13598872D01*
X7386896Y-13598872D01*
X7658325Y-13598872D02*
X7629753Y-13584587D01*
X7615468Y-13556015D01*
X7615468Y-13298872D01*
X7886896Y-13584587D02*
X7858325Y-13598872D01*
X7801182Y-13598872D01*
X7772610Y-13584587D01*
X7758325Y-13556015D01*
X7758325Y-13441729D01*
X7772610Y-13413158D01*
X7801182Y-13398872D01*
X7858325Y-13398872D01*
X7886896Y-13413158D01*
X7901182Y-13441729D01*
X7901182Y-13470301D01*
X7758325Y-13498872D01*
X8015468Y-13584587D02*
X8044039Y-13598872D01*
X8101182Y-13598872D01*
X8129753Y-13584587D01*
X8144039Y-13556015D01*
X8144039Y-13541729D01*
X8129753Y-13513158D01*
X8101182Y-13498872D01*
X8058325Y-13498872D01*
X8029753Y-13484587D01*
X8015468Y-13456015D01*
X8015468Y-13441729D01*
X8029753Y-13413158D01*
X8058325Y-13398872D01*
X8101182Y-13398872D01*
X8129753Y-13413158D01*
X8244039Y-13713158D02*
X8258325Y-13698872D01*
X8286896Y-13656015D01*
X8301182Y-13627444D01*
X8315468Y-13584587D01*
X8329753Y-13513158D01*
X8329753Y-13456015D01*
X8315468Y-13384587D01*
X8301182Y-13341729D01*
X8286896Y-13313158D01*
X8258325Y-13270301D01*
X8244039Y-13256015D01*
X8786896Y-13713158D02*
X8772611Y-13698872D01*
X8744039Y-13656015D01*
X8729753Y-13627444D01*
X8715468Y-13584587D01*
X8701182Y-13513158D01*
X8701182Y-13456015D01*
X8715468Y-13384587D01*
X8729753Y-13341729D01*
X8744039Y-13313158D01*
X8772611Y-13270301D01*
X8786896Y-13256015D01*
X8901182Y-13398872D02*
X8901182Y-13598872D01*
X8901182Y-13427444D02*
X8915468Y-13413158D01*
X8944039Y-13398872D01*
X8986896Y-13398872D01*
X9015468Y-13413158D01*
X9029753Y-13441729D01*
X9029753Y-13598872D01*
X9215468Y-13598872D02*
X9186896Y-13584587D01*
X9172611Y-13570301D01*
X9158325Y-13541729D01*
X9158325Y-13456015D01*
X9172611Y-13427444D01*
X9186896Y-13413158D01*
X9215468Y-13398872D01*
X9258325Y-13398872D01*
X9286896Y-13413158D01*
X9301182Y-13427444D01*
X9315468Y-13456015D01*
X9315468Y-13541729D01*
X9301182Y-13570301D01*
X9286896Y-13584587D01*
X9258325Y-13598872D01*
X9215468Y-13598872D01*
X9401182Y-13398872D02*
X9515468Y-13398872D01*
X9444039Y-13298872D02*
X9444039Y-13556015D01*
X9458325Y-13584587D01*
X9486896Y-13598872D01*
X9515468Y-13598872D01*
X9844039Y-13398872D02*
X9844039Y-13698872D01*
X9844039Y-13413158D02*
X9872611Y-13398872D01*
X9929753Y-13398872D01*
X9958325Y-13413158D01*
X9972611Y-13427444D01*
X9986896Y-13456015D01*
X9986896Y-13541729D01*
X9972611Y-13570301D01*
X9958325Y-13584587D01*
X9929753Y-13598872D01*
X9872611Y-13598872D01*
X9844039Y-13584587D01*
X10158325Y-13598872D02*
X10129753Y-13584587D01*
X10115468Y-13556015D01*
X10115468Y-13298872D01*
X10401182Y-13598872D02*
X10401182Y-13441729D01*
X10386896Y-13413158D01*
X10358325Y-13398872D01*
X10301182Y-13398872D01*
X10272611Y-13413158D01*
X10401182Y-13584587D02*
X10372611Y-13598872D01*
X10301182Y-13598872D01*
X10272611Y-13584587D01*
X10258325Y-13556015D01*
X10258325Y-13527444D01*
X10272611Y-13498872D01*
X10301182Y-13484587D01*
X10372611Y-13484587D01*
X10401182Y-13470301D01*
X10501182Y-13398872D02*
X10615468Y-13398872D01*
X10544039Y-13298872D02*
X10544039Y-13556015D01*
X10558325Y-13584587D01*
X10586896Y-13598872D01*
X10615468Y-13598872D01*
X10829753Y-13584587D02*
X10801182Y-13598872D01*
X10744039Y-13598872D01*
X10715468Y-13584587D01*
X10701182Y-13556015D01*
X10701182Y-13441729D01*
X10715468Y-13413158D01*
X10744039Y-13398872D01*
X10801182Y-13398872D01*
X10829753Y-13413158D01*
X10844039Y-13441729D01*
X10844039Y-13470301D01*
X10701182Y-13498872D01*
X11101182Y-13598872D02*
X11101182Y-13298872D01*
X11101182Y-13584587D02*
X11072611Y-13598872D01*
X11015468Y-13598872D01*
X10986896Y-13584587D01*
X10972611Y-13570301D01*
X10958325Y-13541729D01*
X10958325Y-13456015D01*
X10972611Y-13427444D01*
X10986896Y-13413158D01*
X11015468Y-13398872D01*
X11072611Y-13398872D01*
X11101182Y-13413158D01*
X11215468Y-13713158D02*
X11229753Y-13698872D01*
X11258325Y-13656015D01*
X11272610Y-13627444D01*
X11286896Y-13584587D01*
X11301182Y-13513158D01*
X11301182Y-13456015D01*
X11286896Y-13384587D01*
X11272610Y-13341729D01*
X11258325Y-13313158D01*
X11229753Y-13270301D01*
X11215468Y-13256015D01*
X1361896Y-13749158D02*
X1361896Y-13969158D01*
X1251896Y-13859158D02*
X1471896Y-13859158D01*
X1471896Y-13859158D02*
G75*
G03*
X1471896Y-13859158I-110000J0D01*
G01*
X1744039Y-13723444D02*
X1758325Y-13709158D01*
X1786896Y-13694872D01*
X1858325Y-13694872D01*
X1886896Y-13709158D01*
X1901182Y-13723444D01*
X1915468Y-13752015D01*
X1915468Y-13780587D01*
X1901182Y-13823444D01*
X1729753Y-13994872D01*
X1915468Y-13994872D01*
X2044039Y-13966301D02*
X2058325Y-13980587D01*
X2044039Y-13994872D01*
X2029753Y-13980587D01*
X2044039Y-13966301D01*
X2044039Y-13994872D01*
X2172611Y-13723444D02*
X2186896Y-13709158D01*
X2215468Y-13694872D01*
X2286896Y-13694872D01*
X2315468Y-13709158D01*
X2329753Y-13723444D01*
X2344039Y-13752015D01*
X2344039Y-13780587D01*
X2329753Y-13823444D01*
X2158325Y-13994872D01*
X2344039Y-13994872D01*
X2529753Y-13694872D02*
X2558325Y-13694872D01*
X2586896Y-13709158D01*
X2601182Y-13723444D01*
X2615468Y-13752015D01*
X2629753Y-13809158D01*
X2629753Y-13880587D01*
X2615468Y-13937729D01*
X2601182Y-13966301D01*
X2586896Y-13980587D01*
X2558325Y-13994872D01*
X2529753Y-13994872D01*
X2501182Y-13980587D01*
X2486896Y-13966301D01*
X2472611Y-13937729D01*
X2458325Y-13880587D01*
X2458325Y-13809158D01*
X2472611Y-13752015D01*
X2486896Y-13723444D01*
X2501182Y-13709158D01*
X2529753Y-13694872D01*
X2758325Y-13994872D02*
X2758325Y-13794872D01*
X2758325Y-13823444D02*
X2772611Y-13809158D01*
X2801182Y-13794872D01*
X2844039Y-13794872D01*
X2872610Y-13809158D01*
X2886896Y-13837729D01*
X2886896Y-13994872D01*
X2886896Y-13837729D02*
X2901182Y-13809158D01*
X2929753Y-13794872D01*
X2972610Y-13794872D01*
X3001182Y-13809158D01*
X3015468Y-13837729D01*
X3015468Y-13994872D01*
X3158325Y-13994872D02*
X3158325Y-13794872D01*
X3158325Y-13823444D02*
X3172610Y-13809158D01*
X3201182Y-13794872D01*
X3244039Y-13794872D01*
X3272610Y-13809158D01*
X3286896Y-13837729D01*
X3286896Y-13994872D01*
X3286896Y-13837729D02*
X3301182Y-13809158D01*
X3329753Y-13794872D01*
X3372610Y-13794872D01*
X3401182Y-13809158D01*
X3415468Y-13837729D01*
X3415468Y-13994872D01*
X4001182Y-13680587D02*
X3744039Y-14066301D01*
X4386896Y-13694872D02*
X4415468Y-13694872D01*
X4444039Y-13709158D01*
X4458325Y-13723444D01*
X4472611Y-13752015D01*
X4486896Y-13809158D01*
X4486896Y-13880587D01*
X4472611Y-13937729D01*
X4458325Y-13966301D01*
X4444039Y-13980587D01*
X4415468Y-13994872D01*
X4386896Y-13994872D01*
X4358325Y-13980587D01*
X4344039Y-13966301D01*
X4329753Y-13937729D01*
X4315468Y-13880587D01*
X4315468Y-13809158D01*
X4329753Y-13752015D01*
X4344039Y-13723444D01*
X4358325Y-13709158D01*
X4386896Y-13694872D01*
X4615468Y-13966301D02*
X4629753Y-13980587D01*
X4615468Y-13994872D01*
X4601182Y-13980587D01*
X4615468Y-13966301D01*
X4615468Y-13994872D01*
X4815468Y-13694872D02*
X4844039Y-13694872D01*
X4872611Y-13709158D01*
X4886896Y-13723444D01*
X4901182Y-13752015D01*
X4915468Y-13809158D01*
X4915468Y-13880587D01*
X4901182Y-13937729D01*
X4886896Y-13966301D01*
X4872611Y-13980587D01*
X4844039Y-13994872D01*
X4815468Y-13994872D01*
X4786896Y-13980587D01*
X4772611Y-13966301D01*
X4758325Y-13937729D01*
X4744039Y-13880587D01*
X4744039Y-13809158D01*
X4758325Y-13752015D01*
X4772611Y-13723444D01*
X4786896Y-13709158D01*
X4815468Y-13694872D01*
X5086896Y-13823444D02*
X5058325Y-13809158D01*
X5044039Y-13794872D01*
X5029753Y-13766301D01*
X5029753Y-13752015D01*
X5044039Y-13723444D01*
X5058325Y-13709158D01*
X5086896Y-13694872D01*
X5144039Y-13694872D01*
X5172611Y-13709158D01*
X5186896Y-13723444D01*
X5201182Y-13752015D01*
X5201182Y-13766301D01*
X5186896Y-13794872D01*
X5172611Y-13809158D01*
X5144039Y-13823444D01*
X5086896Y-13823444D01*
X5058325Y-13837729D01*
X5044039Y-13852015D01*
X5029753Y-13880587D01*
X5029753Y-13937729D01*
X5044039Y-13966301D01*
X5058325Y-13980587D01*
X5086896Y-13994872D01*
X5144039Y-13994872D01*
X5172611Y-13980587D01*
X5186896Y-13966301D01*
X5201182Y-13937729D01*
X5201182Y-13880587D01*
X5186896Y-13852015D01*
X5172611Y-13837729D01*
X5144039Y-13823444D01*
X5301182Y-13694872D02*
X5501182Y-13694872D01*
X5372611Y-13994872D01*
X5601182Y-13694872D02*
X5601182Y-13752015D01*
X5715468Y-13694872D02*
X5715468Y-13752015D01*
X6158325Y-14109158D02*
X6144039Y-14094872D01*
X6115468Y-14052015D01*
X6101182Y-14023444D01*
X6086896Y-13980587D01*
X6072610Y-13909158D01*
X6072610Y-13852015D01*
X6086896Y-13780587D01*
X6101182Y-13737729D01*
X6115468Y-13709158D01*
X6144039Y-13666301D01*
X6158325Y-13652015D01*
X6244039Y-13694872D02*
X6444039Y-13694872D01*
X6315468Y-13994872D01*
X6786896Y-13994872D02*
X6786896Y-13694872D01*
X6915468Y-13994872D02*
X6915468Y-13837729D01*
X6901182Y-13809158D01*
X6872610Y-13794872D01*
X6829753Y-13794872D01*
X6801182Y-13809158D01*
X6786896Y-13823444D01*
X7101182Y-13994872D02*
X7072610Y-13980587D01*
X7058325Y-13966301D01*
X7044039Y-13937729D01*
X7044039Y-13852015D01*
X7058325Y-13823444D01*
X7072610Y-13809158D01*
X7101182Y-13794872D01*
X7144039Y-13794872D01*
X7172610Y-13809158D01*
X7186896Y-13823444D01*
X7201182Y-13852015D01*
X7201182Y-13937729D01*
X7186896Y-13966301D01*
X7172610Y-13980587D01*
X7144039Y-13994872D01*
X7101182Y-13994872D01*
X7372610Y-13994872D02*
X7344039Y-13980587D01*
X7329753Y-13952015D01*
X7329753Y-13694872D01*
X7601182Y-13980587D02*
X7572610Y-13994872D01*
X7515468Y-13994872D01*
X7486896Y-13980587D01*
X7472610Y-13952015D01*
X7472610Y-13837729D01*
X7486896Y-13809158D01*
X7515468Y-13794872D01*
X7572610Y-13794872D01*
X7601182Y-13809158D01*
X7615468Y-13837729D01*
X7615468Y-13866301D01*
X7472610Y-13894872D01*
X7729753Y-13980587D02*
X7758325Y-13994872D01*
X7815468Y-13994872D01*
X7844039Y-13980587D01*
X7858325Y-13952015D01*
X7858325Y-13937729D01*
X7844039Y-13909158D01*
X7815468Y-13894872D01*
X7772610Y-13894872D01*
X7744039Y-13880587D01*
X7729753Y-13852015D01*
X7729753Y-13837729D01*
X7744039Y-13809158D01*
X7772610Y-13794872D01*
X7815468Y-13794872D01*
X7844039Y-13809158D01*
X7958325Y-14109158D02*
X7972610Y-14094872D01*
X8001182Y-14052015D01*
X8015468Y-14023444D01*
X8029753Y-13980587D01*
X8044039Y-13909158D01*
X8044039Y-13852015D01*
X8029753Y-13780587D01*
X8015468Y-13737729D01*
X8001182Y-13709158D01*
X7972610Y-13666301D01*
X7958325Y-13652015D01*
X8501182Y-14109158D02*
X8486896Y-14094872D01*
X8458325Y-14052015D01*
X8444039Y-14023444D01*
X8429753Y-13980587D01*
X8415468Y-13909158D01*
X8415468Y-13852015D01*
X8429753Y-13780587D01*
X8444039Y-13737729D01*
X8458325Y-13709158D01*
X8486896Y-13666301D01*
X8501182Y-13652015D01*
X8615468Y-13794872D02*
X8615468Y-13994872D01*
X8615468Y-13823444D02*
X8629753Y-13809158D01*
X8658325Y-13794872D01*
X8701182Y-13794872D01*
X8729753Y-13809158D01*
X8744039Y-13837729D01*
X8744039Y-13994872D01*
X8929753Y-13994872D02*
X8901182Y-13980587D01*
X8886896Y-13966301D01*
X8872611Y-13937729D01*
X8872611Y-13852015D01*
X8886896Y-13823444D01*
X8901182Y-13809158D01*
X8929753Y-13794872D01*
X8972611Y-13794872D01*
X9001182Y-13809158D01*
X9015468Y-13823444D01*
X9029753Y-13852015D01*
X9029753Y-13937729D01*
X9015468Y-13966301D01*
X9001182Y-13980587D01*
X8972611Y-13994872D01*
X8929753Y-13994872D01*
X9115468Y-13794872D02*
X9229753Y-13794872D01*
X9158325Y-13694872D02*
X9158325Y-13952015D01*
X9172611Y-13980587D01*
X9201182Y-13994872D01*
X9229753Y-13994872D01*
X9558325Y-13794872D02*
X9558325Y-14094872D01*
X9558325Y-13809158D02*
X9586896Y-13794872D01*
X9644039Y-13794872D01*
X9672611Y-13809158D01*
X9686896Y-13823444D01*
X9701182Y-13852015D01*
X9701182Y-13937729D01*
X9686896Y-13966301D01*
X9672611Y-13980587D01*
X9644039Y-13994872D01*
X9586896Y-13994872D01*
X9558325Y-13980587D01*
X9872611Y-13994872D02*
X9844039Y-13980587D01*
X9829753Y-13952015D01*
X9829753Y-13694872D01*
X10115468Y-13994872D02*
X10115468Y-13837729D01*
X10101182Y-13809158D01*
X10072611Y-13794872D01*
X10015468Y-13794872D01*
X9986896Y-13809158D01*
X10115468Y-13980587D02*
X10086896Y-13994872D01*
X10015468Y-13994872D01*
X9986896Y-13980587D01*
X9972611Y-13952015D01*
X9972611Y-13923444D01*
X9986896Y-13894872D01*
X10015468Y-13880587D01*
X10086896Y-13880587D01*
X10115468Y-13866301D01*
X10215468Y-13794872D02*
X10329753Y-13794872D01*
X10258325Y-13694872D02*
X10258325Y-13952015D01*
X10272611Y-13980587D01*
X10301182Y-13994872D01*
X10329753Y-13994872D01*
X10544039Y-13980587D02*
X10515468Y-13994872D01*
X10458325Y-13994872D01*
X10429753Y-13980587D01*
X10415468Y-13952015D01*
X10415468Y-13837729D01*
X10429753Y-13809158D01*
X10458325Y-13794872D01*
X10515468Y-13794872D01*
X10544039Y-13809158D01*
X10558325Y-13837729D01*
X10558325Y-13866301D01*
X10415468Y-13894872D01*
X10815468Y-13994872D02*
X10815468Y-13694872D01*
X10815468Y-13980587D02*
X10786896Y-13994872D01*
X10729753Y-13994872D01*
X10701182Y-13980587D01*
X10686896Y-13966301D01*
X10672611Y-13937729D01*
X10672611Y-13852015D01*
X10686896Y-13823444D01*
X10701182Y-13809158D01*
X10729753Y-13794872D01*
X10786896Y-13794872D01*
X10815468Y-13809158D01*
X10929753Y-14109158D02*
X10944039Y-14094872D01*
X10972611Y-14052015D01*
X10986896Y-14023444D01*
X11001182Y-13980587D01*
X11015468Y-13909158D01*
X11015468Y-13852015D01*
X11001182Y-13780587D01*
X10986896Y-13737729D01*
X10972611Y-13709158D01*
X10944039Y-13666301D01*
X10929753Y-13652015D01*
X1421681Y-14376393D02*
X1421681Y-14133923D01*
X1179212Y-14133923D01*
X1179212Y-14376393D01*
X1421681Y-14376393D01*
X1471896Y-14255158D02*
G75*
G03*
X1471896Y-14255158I-171450J0D01*
G01*
X1729753Y-14090872D02*
X1915468Y-14090872D01*
X1815468Y-14205158D01*
X1858325Y-14205158D01*
X1886896Y-14219444D01*
X1901182Y-14233729D01*
X1915468Y-14262301D01*
X1915468Y-14333729D01*
X1901182Y-14362301D01*
X1886896Y-14376587D01*
X1858325Y-14390872D01*
X1772610Y-14390872D01*
X1744039Y-14376587D01*
X1729753Y-14362301D01*
X2044039Y-14362301D02*
X2058325Y-14376587D01*
X2044039Y-14390872D01*
X2029753Y-14376587D01*
X2044039Y-14362301D01*
X2044039Y-14390872D01*
X2315468Y-14190872D02*
X2315468Y-14390872D01*
X2244039Y-14076587D02*
X2172611Y-14290872D01*
X2358325Y-14290872D01*
X2444039Y-14090872D02*
X2629753Y-14090872D01*
X2529753Y-14205158D01*
X2572611Y-14205158D01*
X2601182Y-14219444D01*
X2615468Y-14233729D01*
X2629753Y-14262301D01*
X2629753Y-14333729D01*
X2615468Y-14362301D01*
X2601182Y-14376587D01*
X2572611Y-14390872D01*
X2486896Y-14390872D01*
X2458325Y-14376587D01*
X2444039Y-14362301D01*
X2758325Y-14390872D02*
X2758325Y-14190872D01*
X2758325Y-14219444D02*
X2772611Y-14205158D01*
X2801182Y-14190872D01*
X2844039Y-14190872D01*
X2872610Y-14205158D01*
X2886896Y-14233729D01*
X2886896Y-14390872D01*
X2886896Y-14233729D02*
X2901182Y-14205158D01*
X2929753Y-14190872D01*
X2972610Y-14190872D01*
X3001182Y-14205158D01*
X3015468Y-14233729D01*
X3015468Y-14390872D01*
X3158325Y-14390872D02*
X3158325Y-14190872D01*
X3158325Y-14219444D02*
X3172610Y-14205158D01*
X3201182Y-14190872D01*
X3244039Y-14190872D01*
X3272610Y-14205158D01*
X3286896Y-14233729D01*
X3286896Y-14390872D01*
X3286896Y-14233729D02*
X3301182Y-14205158D01*
X3329753Y-14190872D01*
X3372610Y-14190872D01*
X3401182Y-14205158D01*
X3415468Y-14233729D01*
X3415468Y-14390872D01*
X4001182Y-14076587D02*
X3744039Y-14462301D01*
X4386896Y-14090872D02*
X4415468Y-14090872D01*
X4444039Y-14105158D01*
X4458325Y-14119444D01*
X4472611Y-14148015D01*
X4486896Y-14205158D01*
X4486896Y-14276587D01*
X4472611Y-14333729D01*
X4458325Y-14362301D01*
X4444039Y-14376587D01*
X4415468Y-14390872D01*
X4386896Y-14390872D01*
X4358325Y-14376587D01*
X4344039Y-14362301D01*
X4329753Y-14333729D01*
X4315468Y-14276587D01*
X4315468Y-14205158D01*
X4329753Y-14148015D01*
X4344039Y-14119444D01*
X4358325Y-14105158D01*
X4386896Y-14090872D01*
X4615468Y-14362301D02*
X4629753Y-14376587D01*
X4615468Y-14390872D01*
X4601182Y-14376587D01*
X4615468Y-14362301D01*
X4615468Y-14390872D01*
X4915468Y-14390872D02*
X4744039Y-14390872D01*
X4829753Y-14390872D02*
X4829753Y-14090872D01*
X4801182Y-14133729D01*
X4772611Y-14162301D01*
X4744039Y-14176587D01*
X5015468Y-14090872D02*
X5201182Y-14090872D01*
X5101182Y-14205158D01*
X5144039Y-14205158D01*
X5172611Y-14219444D01*
X5186896Y-14233729D01*
X5201182Y-14262301D01*
X5201182Y-14333729D01*
X5186896Y-14362301D01*
X5172611Y-14376587D01*
X5144039Y-14390872D01*
X5058325Y-14390872D01*
X5029753Y-14376587D01*
X5015468Y-14362301D01*
X5472611Y-14090872D02*
X5329753Y-14090872D01*
X5315468Y-14233729D01*
X5329753Y-14219444D01*
X5358325Y-14205158D01*
X5429753Y-14205158D01*
X5458325Y-14219444D01*
X5472611Y-14233729D01*
X5486896Y-14262301D01*
X5486896Y-14333729D01*
X5472611Y-14362301D01*
X5458325Y-14376587D01*
X5429753Y-14390872D01*
X5358325Y-14390872D01*
X5329753Y-14376587D01*
X5315468Y-14362301D01*
X5601182Y-14090872D02*
X5601182Y-14148015D01*
X5715468Y-14090872D02*
X5715468Y-14148015D01*
X6158325Y-14505158D02*
X6144039Y-14490872D01*
X6115468Y-14448015D01*
X6101182Y-14419444D01*
X6086896Y-14376587D01*
X6072610Y-14305158D01*
X6072610Y-14248015D01*
X6086896Y-14176587D01*
X6101182Y-14133729D01*
X6115468Y-14105158D01*
X6144039Y-14062301D01*
X6158325Y-14048015D01*
X6258325Y-14119444D02*
X6272610Y-14105158D01*
X6301182Y-14090872D01*
X6372610Y-14090872D01*
X6401182Y-14105158D01*
X6415468Y-14119444D01*
X6429753Y-14148015D01*
X6429753Y-14176587D01*
X6415468Y-14219444D01*
X6244039Y-14390872D01*
X6429753Y-14390872D01*
X6544039Y-14119444D02*
X6558325Y-14105158D01*
X6586896Y-14090872D01*
X6658325Y-14090872D01*
X6686896Y-14105158D01*
X6701182Y-14119444D01*
X6715468Y-14148015D01*
X6715468Y-14176587D01*
X6701182Y-14219444D01*
X6529753Y-14390872D01*
X6715468Y-14390872D01*
X7072610Y-14390872D02*
X7072610Y-14090872D01*
X7201182Y-14390872D02*
X7201182Y-14233729D01*
X7186896Y-14205158D01*
X7158325Y-14190872D01*
X7115468Y-14190872D01*
X7086896Y-14205158D01*
X7072610Y-14219444D01*
X7386896Y-14390872D02*
X7358325Y-14376587D01*
X7344039Y-14362301D01*
X7329753Y-14333729D01*
X7329753Y-14248015D01*
X7344039Y-14219444D01*
X7358325Y-14205158D01*
X7386896Y-14190872D01*
X7429753Y-14190872D01*
X7458325Y-14205158D01*
X7472610Y-14219444D01*
X7486896Y-14248015D01*
X7486896Y-14333729D01*
X7472610Y-14362301D01*
X7458325Y-14376587D01*
X7429753Y-14390872D01*
X7386896Y-14390872D01*
X7658325Y-14390872D02*
X7629753Y-14376587D01*
X7615468Y-14348015D01*
X7615468Y-14090872D01*
X7886896Y-14376587D02*
X7858325Y-14390872D01*
X7801182Y-14390872D01*
X7772610Y-14376587D01*
X7758325Y-14348015D01*
X7758325Y-14233729D01*
X7772610Y-14205158D01*
X7801182Y-14190872D01*
X7858325Y-14190872D01*
X7886896Y-14205158D01*
X7901182Y-14233729D01*
X7901182Y-14262301D01*
X7758325Y-14290872D01*
X8015468Y-14376587D02*
X8044039Y-14390872D01*
X8101182Y-14390872D01*
X8129753Y-14376587D01*
X8144039Y-14348015D01*
X8144039Y-14333729D01*
X8129753Y-14305158D01*
X8101182Y-14290872D01*
X8058325Y-14290872D01*
X8029753Y-14276587D01*
X8015468Y-14248015D01*
X8015468Y-14233729D01*
X8029753Y-14205158D01*
X8058325Y-14190872D01*
X8101182Y-14190872D01*
X8129753Y-14205158D01*
X8244039Y-14505158D02*
X8258325Y-14490872D01*
X8286896Y-14448015D01*
X8301182Y-14419444D01*
X8315468Y-14376587D01*
X8329753Y-14305158D01*
X8329753Y-14248015D01*
X8315468Y-14176587D01*
X8301182Y-14133729D01*
X8286896Y-14105158D01*
X8258325Y-14062301D01*
X8244039Y-14048015D01*
X8786896Y-14505158D02*
X8772611Y-14490872D01*
X8744039Y-14448015D01*
X8729753Y-14419444D01*
X8715468Y-14376587D01*
X8701182Y-14305158D01*
X8701182Y-14248015D01*
X8715468Y-14176587D01*
X8729753Y-14133729D01*
X8744039Y-14105158D01*
X8772611Y-14062301D01*
X8786896Y-14048015D01*
X8901182Y-14190872D02*
X8901182Y-14390872D01*
X8901182Y-14219444D02*
X8915468Y-14205158D01*
X8944039Y-14190872D01*
X8986896Y-14190872D01*
X9015468Y-14205158D01*
X9029753Y-14233729D01*
X9029753Y-14390872D01*
X9215468Y-14390872D02*
X9186896Y-14376587D01*
X9172611Y-14362301D01*
X9158325Y-14333729D01*
X9158325Y-14248015D01*
X9172611Y-14219444D01*
X9186896Y-14205158D01*
X9215468Y-14190872D01*
X9258325Y-14190872D01*
X9286896Y-14205158D01*
X9301182Y-14219444D01*
X9315468Y-14248015D01*
X9315468Y-14333729D01*
X9301182Y-14362301D01*
X9286896Y-14376587D01*
X9258325Y-14390872D01*
X9215468Y-14390872D01*
X9401182Y-14190872D02*
X9515468Y-14190872D01*
X9444039Y-14090872D02*
X9444039Y-14348015D01*
X9458325Y-14376587D01*
X9486896Y-14390872D01*
X9515468Y-14390872D01*
X9844039Y-14190872D02*
X9844039Y-14490872D01*
X9844039Y-14205158D02*
X9872611Y-14190872D01*
X9929753Y-14190872D01*
X9958325Y-14205158D01*
X9972611Y-14219444D01*
X9986896Y-14248015D01*
X9986896Y-14333729D01*
X9972611Y-14362301D01*
X9958325Y-14376587D01*
X9929753Y-14390872D01*
X9872611Y-14390872D01*
X9844039Y-14376587D01*
X10158325Y-14390872D02*
X10129753Y-14376587D01*
X10115468Y-14348015D01*
X10115468Y-14090872D01*
X10401182Y-14390872D02*
X10401182Y-14233729D01*
X10386896Y-14205158D01*
X10358325Y-14190872D01*
X10301182Y-14190872D01*
X10272611Y-14205158D01*
X10401182Y-14376587D02*
X10372611Y-14390872D01*
X10301182Y-14390872D01*
X10272611Y-14376587D01*
X10258325Y-14348015D01*
X10258325Y-14319444D01*
X10272611Y-14290872D01*
X10301182Y-14276587D01*
X10372611Y-14276587D01*
X10401182Y-14262301D01*
X10501182Y-14190872D02*
X10615468Y-14190872D01*
X10544039Y-14090872D02*
X10544039Y-14348015D01*
X10558325Y-14376587D01*
X10586896Y-14390872D01*
X10615468Y-14390872D01*
X10829753Y-14376587D02*
X10801182Y-14390872D01*
X10744039Y-14390872D01*
X10715468Y-14376587D01*
X10701182Y-14348015D01*
X10701182Y-14233729D01*
X10715468Y-14205158D01*
X10744039Y-14190872D01*
X10801182Y-14190872D01*
X10829753Y-14205158D01*
X10844039Y-14233729D01*
X10844039Y-14262301D01*
X10701182Y-14290872D01*
X11101182Y-14390872D02*
X11101182Y-14090872D01*
X11101182Y-14376587D02*
X11072611Y-14390872D01*
X11015468Y-14390872D01*
X10986896Y-14376587D01*
X10972611Y-14362301D01*
X10958325Y-14333729D01*
X10958325Y-14248015D01*
X10972611Y-14219444D01*
X10986896Y-14205158D01*
X11015468Y-14190872D01*
X11072611Y-14190872D01*
X11101182Y-14205158D01*
X11215468Y-14505158D02*
X11229753Y-14490872D01*
X11258325Y-14448015D01*
X11272610Y-14419444D01*
X11286896Y-14376587D01*
X11301182Y-14305158D01*
X11301182Y-14248015D01*
X11286896Y-14176587D01*
X11272610Y-14133729D01*
X11258325Y-14105158D01*
X11229753Y-14062301D01*
X11215468Y-14048015D01*
M02*
