%TF.GenerationSoftware,KiCad,Pcbnew,(5.1.6)-1*%
%TF.CreationDate,2022-08-18T21:09:05-07:00*%
%TF.ProjectId,split-40-final,73706c69-742d-4343-902d-66696e616c2e,rev?*%
%TF.SameCoordinates,Original*%
%TF.FileFunction,Legend,Bot*%
%TF.FilePolarity,Positive*%
%FSLAX46Y46*%
G04 Gerber Fmt 4.6, Leading zero omitted, Abs format (unit mm)*
G04 Created by KiCad (PCBNEW (5.1.6)-1) date 2022-08-18 21:09:05*
%MOMM*%
%LPD*%
G01*
G04 APERTURE LIST*
%ADD10C,4.500000*%
%ADD11C,0.300000*%
%ADD12C,0.381000*%
%ADD13C,0.120000*%
%ADD14C,0.200000*%
%ADD15C,0.040000*%
%ADD16C,0.150000*%
%ADD17C,1.801800*%
%ADD18C,1.090600*%
%ADD19C,2.132000*%
%ADD20C,3.529000*%
%ADD21C,1.852600*%
%ADD22R,2.600000X3.100000*%
%ADD23C,2.100000*%
%ADD24R,2.100000X2.100000*%
%ADD25O,3.100000X1.624000*%
%ADD26C,1.624000*%
%ADD27C,1.700000*%
%ADD28R,1.700000X1.700000*%
%ADD29C,0.100000*%
%ADD30R,0.600000X1.100000*%
%ADD31R,1.500000X1.900000*%
%ADD32O,1.800000X1.800000*%
%ADD33R,1.800000X1.800000*%
%ADD34C,2.300000*%
%ADD35R,1.800000X1.100000*%
%ADD36R,1.100000X1.600000*%
G04 APERTURE END LIST*
D10*
X106428571Y-67285714D02*
X107285714Y-69190476D01*
X109857142Y-71095238D01*
X111571428Y-71095238D01*
X114142857Y-69190476D01*
X115857142Y-65380952D01*
X116714285Y-61571428D01*
X117571428Y-53952380D01*
X117571428Y-48238095D01*
X116714285Y-40619047D01*
X115857142Y-36809523D01*
X114142857Y-33000000D01*
X111571428Y-31095238D01*
X109857142Y-31095238D01*
X107285714Y-33000000D01*
X106428571Y-34904761D01*
X101285714Y-31095238D02*
X91000000Y-31095238D01*
X96142857Y-71095238D02*
X96142857Y-31095238D01*
X74714285Y-71095238D02*
X80714285Y-52047619D01*
X85000000Y-71095238D02*
X85000000Y-31095238D01*
X78142857Y-31095238D01*
X76428571Y-33000000D01*
X75571428Y-34904761D01*
X74714285Y-38714285D01*
X74714285Y-44428571D01*
X75571428Y-48238095D01*
X76428571Y-50142857D01*
X78142857Y-52047619D01*
X85000000Y-52047619D01*
X58428571Y-71095238D02*
X66999999Y-71095238D01*
X66999999Y-31095238D01*
X52428571Y-55857142D02*
X38714285Y-55857142D01*
X32714285Y-31095238D02*
X26714285Y-71095238D01*
X20714285Y-31095238D01*
D11*
X43447857Y-79203571D02*
X43447857Y-77703571D01*
X42590714Y-79203571D01*
X42590714Y-77703571D01*
X41233571Y-79203571D02*
X41233571Y-78417857D01*
X41305000Y-78275000D01*
X41447857Y-78203571D01*
X41733571Y-78203571D01*
X41876428Y-78275000D01*
X41233571Y-79132142D02*
X41376428Y-79203571D01*
X41733571Y-79203571D01*
X41876428Y-79132142D01*
X41947857Y-78989285D01*
X41947857Y-78846428D01*
X41876428Y-78703571D01*
X41733571Y-78632142D01*
X41376428Y-78632142D01*
X41233571Y-78560714D01*
X40733571Y-78203571D02*
X40162142Y-78203571D01*
X40519285Y-77703571D02*
X40519285Y-78989285D01*
X40447857Y-79132142D01*
X40305000Y-79203571D01*
X40162142Y-79203571D01*
X39662142Y-79203571D02*
X39662142Y-77703571D01*
X39019285Y-79203571D02*
X39019285Y-78417857D01*
X39090714Y-78275000D01*
X39233571Y-78203571D01*
X39447857Y-78203571D01*
X39590714Y-78275000D01*
X39662142Y-78346428D01*
X37662142Y-79203571D02*
X37662142Y-78417857D01*
X37733571Y-78275000D01*
X37876428Y-78203571D01*
X38162142Y-78203571D01*
X38305000Y-78275000D01*
X37662142Y-79132142D02*
X37805000Y-79203571D01*
X38162142Y-79203571D01*
X38305000Y-79132142D01*
X38376428Y-78989285D01*
X38376428Y-78846428D01*
X38305000Y-78703571D01*
X38162142Y-78632142D01*
X37805000Y-78632142D01*
X37662142Y-78560714D01*
X36947857Y-78203571D02*
X36947857Y-79203571D01*
X36947857Y-78346428D02*
X36876428Y-78275000D01*
X36733571Y-78203571D01*
X36519285Y-78203571D01*
X36376428Y-78275000D01*
X36305000Y-78417857D01*
X36305000Y-79203571D01*
X43519285Y-81682142D02*
X43305000Y-81753571D01*
X42947857Y-81753571D01*
X42805000Y-81682142D01*
X42733571Y-81610714D01*
X42662142Y-81467857D01*
X42662142Y-81325000D01*
X42733571Y-81182142D01*
X42805000Y-81110714D01*
X42947857Y-81039285D01*
X43233571Y-80967857D01*
X43376428Y-80896428D01*
X43447857Y-80825000D01*
X43519285Y-80682142D01*
X43519285Y-80539285D01*
X43447857Y-80396428D01*
X43376428Y-80325000D01*
X43233571Y-80253571D01*
X42876428Y-80253571D01*
X42662142Y-80325000D01*
X42019285Y-81753571D02*
X42019285Y-80253571D01*
X41376428Y-81753571D02*
X41376428Y-80967857D01*
X41447857Y-80825000D01*
X41590714Y-80753571D01*
X41805000Y-80753571D01*
X41947857Y-80825000D01*
X42019285Y-80896428D01*
X40662142Y-81753571D02*
X40662142Y-80753571D01*
X40662142Y-80253571D02*
X40733571Y-80325000D01*
X40662142Y-80396428D01*
X40590714Y-80325000D01*
X40662142Y-80253571D01*
X40662142Y-80396428D01*
X39376428Y-81682142D02*
X39519285Y-81753571D01*
X39805000Y-81753571D01*
X39947857Y-81682142D01*
X40019285Y-81539285D01*
X40019285Y-80967857D01*
X39947857Y-80825000D01*
X39805000Y-80753571D01*
X39519285Y-80753571D01*
X39376428Y-80825000D01*
X39305000Y-80967857D01*
X39305000Y-81110714D01*
X40019285Y-81253571D01*
D12*
%TO.C,U1*%
X142520000Y-21880000D02*
X124740000Y-21880000D01*
X124740000Y-21880000D02*
X124740000Y-54900000D01*
X124740000Y-54900000D02*
X142520000Y-54900000D01*
X142520000Y-54900000D02*
X142520000Y-21880000D01*
D13*
%TO.C,SW3*%
X63520000Y-72020000D02*
X63820000Y-71720000D01*
X63820000Y-71720000D02*
X63820000Y-72320000D01*
X63820000Y-72320000D02*
X63520000Y-72020000D01*
D14*
%TO.C,D1*%
X106200000Y-36890000D02*
X105700000Y-37390000D01*
X104700000Y-33890000D02*
X105700000Y-33890000D01*
X102700000Y-35390000D02*
X102700000Y-37390000D01*
X104200000Y-35390000D02*
X106200000Y-35390000D01*
X104700000Y-38890000D02*
X105700000Y-38890000D01*
X106200000Y-35390000D02*
X106200000Y-36890000D01*
X105700000Y-37390000D02*
X104200000Y-37390000D01*
X107700000Y-35390000D02*
X107700000Y-37390000D01*
X104200000Y-37390000D02*
X104200000Y-35390000D01*
%TO.C,D2*%
X68150000Y-34790000D02*
X67650000Y-35290000D01*
X68150000Y-38290000D02*
X69150000Y-38290000D01*
X66150000Y-36790000D02*
X66150000Y-34790000D01*
X68150000Y-33290000D02*
X69150000Y-33290000D01*
X69650000Y-34790000D02*
X68150000Y-34790000D01*
X71150000Y-36790000D02*
X71150000Y-34790000D01*
X67650000Y-36790000D02*
X69650000Y-36790000D01*
X69650000Y-36790000D02*
X69650000Y-34790000D01*
X67650000Y-35290000D02*
X67650000Y-36790000D01*
%TO.C,D3*%
X32300000Y-41520000D02*
X31800000Y-42020000D01*
X32300000Y-45020000D02*
X33300000Y-45020000D01*
X30300000Y-43520000D02*
X30300000Y-41520000D01*
X32300000Y-40020000D02*
X33300000Y-40020000D01*
X33800000Y-41520000D02*
X32300000Y-41520000D01*
X35300000Y-43520000D02*
X35300000Y-41520000D01*
X31800000Y-43520000D02*
X33800000Y-43520000D01*
X33800000Y-43520000D02*
X33800000Y-41520000D01*
X31800000Y-42020000D02*
X31800000Y-43520000D01*
%TO.C,D4*%
X33300000Y-60670000D02*
X33800000Y-60170000D01*
X33300000Y-57170000D02*
X32300000Y-57170000D01*
X35300000Y-58670000D02*
X35300000Y-60670000D01*
X33300000Y-62170000D02*
X32300000Y-62170000D01*
X31800000Y-60670000D02*
X33300000Y-60670000D01*
X30300000Y-58670000D02*
X30300000Y-60670000D01*
X33800000Y-58670000D02*
X31800000Y-58670000D01*
X31800000Y-58670000D02*
X31800000Y-60670000D01*
X33800000Y-60170000D02*
X33800000Y-58670000D01*
%TO.C,D5*%
X69150000Y-53940000D02*
X69650000Y-53440000D01*
X69150000Y-50440000D02*
X68150000Y-50440000D01*
X71150000Y-51940000D02*
X71150000Y-53940000D01*
X69150000Y-55440000D02*
X68150000Y-55440000D01*
X67650000Y-53940000D02*
X69150000Y-53940000D01*
X66150000Y-51940000D02*
X66150000Y-53940000D01*
X69650000Y-51940000D02*
X67650000Y-51940000D01*
X67650000Y-51940000D02*
X67650000Y-53940000D01*
X69650000Y-53440000D02*
X69650000Y-51940000D01*
%TO.C,D6*%
X105700000Y-54620000D02*
X106200000Y-54120000D01*
X105700000Y-51120000D02*
X104700000Y-51120000D01*
X107700000Y-52620000D02*
X107700000Y-54620000D01*
X105700000Y-56120000D02*
X104700000Y-56120000D01*
X104200000Y-54620000D02*
X105700000Y-54620000D01*
X102700000Y-52620000D02*
X102700000Y-54620000D01*
X106200000Y-52620000D02*
X104200000Y-52620000D01*
X104200000Y-52620000D02*
X104200000Y-54620000D01*
X106200000Y-54120000D02*
X106200000Y-52620000D01*
D15*
%TO.C,L1*%
X139630000Y-54400000D02*
X139630000Y-59400000D01*
X127630000Y-54400000D02*
X139630000Y-54400000D01*
X139630000Y-59400000D02*
X127630000Y-59400000D01*
X127630000Y-54400000D02*
X127630000Y-59400000D01*
D13*
%TO.C,C3*%
X33510000Y-48238748D02*
X33510000Y-48761252D01*
X32090000Y-48238748D02*
X32090000Y-48761252D01*
%TO.C,C1*%
X105910000Y-42238748D02*
X105910000Y-42761252D01*
X104490000Y-42238748D02*
X104490000Y-42761252D01*
%TO.C,C2*%
X69360000Y-41738748D02*
X69360000Y-42261252D01*
X67940000Y-41738748D02*
X67940000Y-42261252D01*
%TO.C,C4*%
X32090000Y-53761252D02*
X32090000Y-53238748D01*
X33510000Y-53761252D02*
X33510000Y-53238748D01*
%TO.C,C5*%
X67940000Y-47261252D02*
X67940000Y-46738748D01*
X69360000Y-47261252D02*
X69360000Y-46738748D01*
%TO.C,C6*%
X104490000Y-47761252D02*
X104490000Y-47238748D01*
X105910000Y-47761252D02*
X105910000Y-47238748D01*
%TO.C,R1*%
X133888578Y-33710000D02*
X133371422Y-33710000D01*
X133888578Y-32290000D02*
X133371422Y-32290000D01*
%TO.C,SW1*%
X132380000Y-42750000D02*
X134880000Y-42750000D01*
X130880000Y-41000000D02*
X130880000Y-39000000D01*
X132380000Y-37250000D02*
X134880000Y-37250000D01*
X136380000Y-41000000D02*
X136380000Y-39000000D01*
X131930000Y-42300000D02*
X132380000Y-42750000D01*
X135330000Y-42300000D02*
X134880000Y-42750000D01*
X135330000Y-37700000D02*
X134880000Y-37250000D01*
X131930000Y-37700000D02*
X132380000Y-37250000D01*
%TO.C,JP_B_GND1*%
X127510000Y-57190000D02*
X127510000Y-55190000D01*
X124710000Y-57190000D02*
X127510000Y-57190000D01*
X124710000Y-55190000D02*
X124710000Y-57190000D01*
X127510000Y-55190000D02*
X124710000Y-55190000D01*
%TO.C,JP_B_SCL1*%
X139750000Y-59360000D02*
X142550000Y-59360000D01*
X142550000Y-59360000D02*
X142550000Y-57360000D01*
X142550000Y-57360000D02*
X139750000Y-57360000D01*
X139750000Y-57360000D02*
X139750000Y-59360000D01*
%TO.C,JP_B_SDA1*%
X139750000Y-55190000D02*
X139750000Y-57190000D01*
X142550000Y-55190000D02*
X139750000Y-55190000D01*
X142550000Y-57190000D02*
X142550000Y-55190000D01*
X139750000Y-57190000D02*
X142550000Y-57190000D01*
%TO.C,JP_B_VCC1*%
X127510000Y-57360000D02*
X124710000Y-57360000D01*
X124710000Y-57360000D02*
X124710000Y-59360000D01*
X124710000Y-59360000D02*
X127510000Y-59360000D01*
X127510000Y-59360000D02*
X127510000Y-57360000D01*
%TO.C,U1*%
D16*
X139656095Y-31131904D02*
X139922761Y-30750952D01*
X140113238Y-31131904D02*
X140113238Y-30331904D01*
X139808476Y-30331904D01*
X139732285Y-30370000D01*
X139694190Y-30408095D01*
X139656095Y-30484285D01*
X139656095Y-30598571D01*
X139694190Y-30674761D01*
X139732285Y-30712857D01*
X139808476Y-30750952D01*
X140113238Y-30750952D01*
X139351333Y-31093809D02*
X139237047Y-31131904D01*
X139046571Y-31131904D01*
X138970380Y-31093809D01*
X138932285Y-31055714D01*
X138894190Y-30979523D01*
X138894190Y-30903333D01*
X138932285Y-30827142D01*
X138970380Y-30789047D01*
X139046571Y-30750952D01*
X139198952Y-30712857D01*
X139275142Y-30674761D01*
X139313238Y-30636666D01*
X139351333Y-30560476D01*
X139351333Y-30484285D01*
X139313238Y-30408095D01*
X139275142Y-30370000D01*
X139198952Y-30331904D01*
X139008476Y-30331904D01*
X138894190Y-30370000D01*
X138665619Y-30331904D02*
X138208476Y-30331904D01*
X138437047Y-31131904D02*
X138437047Y-30331904D01*
X128892810Y-25251904D02*
X128816619Y-25251904D01*
X128740429Y-25290000D01*
X128702333Y-25328095D01*
X128664238Y-25404285D01*
X128626143Y-25556666D01*
X128626143Y-25747142D01*
X128664238Y-25899523D01*
X128702333Y-25975714D01*
X128740429Y-26013809D01*
X128816619Y-26051904D01*
X128892810Y-26051904D01*
X128969000Y-26013809D01*
X129007095Y-25975714D01*
X129045190Y-25899523D01*
X129083286Y-25747142D01*
X129083286Y-25556666D01*
X129045190Y-25404285D01*
X129007095Y-25328095D01*
X128969000Y-25290000D01*
X128892810Y-25251904D01*
X128130905Y-25251904D02*
X128054714Y-25251904D01*
X127978524Y-25290000D01*
X127940429Y-25328095D01*
X127902333Y-25404285D01*
X127864238Y-25556666D01*
X127864238Y-25747142D01*
X127902333Y-25899523D01*
X127940429Y-25975714D01*
X127978524Y-26013809D01*
X128054714Y-26051904D01*
X128130905Y-26051904D01*
X128207095Y-26013809D01*
X128245190Y-25975714D01*
X128283286Y-25899523D01*
X128321381Y-25747142D01*
X128321381Y-25556666D01*
X128283286Y-25404285D01*
X128245190Y-25328095D01*
X128207095Y-25290000D01*
X128130905Y-25251904D01*
X127178524Y-25251904D02*
X127330905Y-25251904D01*
X127407095Y-25290000D01*
X127445190Y-25328095D01*
X127521381Y-25442380D01*
X127559476Y-25594761D01*
X127559476Y-25899523D01*
X127521381Y-25975714D01*
X127483286Y-26013809D01*
X127407095Y-26051904D01*
X127254714Y-26051904D01*
X127178524Y-26013809D01*
X127140429Y-25975714D01*
X127102333Y-25899523D01*
X127102333Y-25709047D01*
X127140429Y-25632857D01*
X127178524Y-25594761D01*
X127254714Y-25556666D01*
X127407095Y-25556666D01*
X127483286Y-25594761D01*
X127521381Y-25632857D01*
X127559476Y-25709047D01*
X139967191Y-50651904D02*
X139891000Y-50651904D01*
X139814810Y-50690000D01*
X139776714Y-50728095D01*
X139738619Y-50804285D01*
X139700524Y-50956666D01*
X139700524Y-51147142D01*
X139738619Y-51299523D01*
X139776714Y-51375714D01*
X139814810Y-51413809D01*
X139891000Y-51451904D01*
X139967191Y-51451904D01*
X140043381Y-51413809D01*
X140081476Y-51375714D01*
X140119571Y-51299523D01*
X140157667Y-51147142D01*
X140157667Y-50956666D01*
X140119571Y-50804285D01*
X140081476Y-50728095D01*
X140043381Y-50690000D01*
X139967191Y-50651904D01*
X138938619Y-51451904D02*
X139395762Y-51451904D01*
X139167191Y-51451904D02*
X139167191Y-50651904D01*
X139243381Y-50766190D01*
X139319571Y-50842380D01*
X139395762Y-50880476D01*
X138443381Y-50651904D02*
X138367191Y-50651904D01*
X138291000Y-50690000D01*
X138252905Y-50728095D01*
X138214810Y-50804285D01*
X138176714Y-50956666D01*
X138176714Y-51147142D01*
X138214810Y-51299523D01*
X138252905Y-51375714D01*
X138291000Y-51413809D01*
X138367191Y-51451904D01*
X138443381Y-51451904D01*
X138519571Y-51413809D01*
X138557667Y-51375714D01*
X138595762Y-51299523D01*
X138633857Y-51147142D01*
X138633857Y-50956666D01*
X138595762Y-50804285D01*
X138557667Y-50728095D01*
X138519571Y-50690000D01*
X138443381Y-50651904D01*
X139700524Y-43831904D02*
X140157667Y-43831904D01*
X139929095Y-43831904D02*
X139929095Y-43031904D01*
X140005286Y-43146190D01*
X140081476Y-43222380D01*
X140157667Y-43260476D01*
X138938619Y-43831904D02*
X139395762Y-43831904D01*
X139167191Y-43831904D02*
X139167191Y-43031904D01*
X139243381Y-43146190D01*
X139319571Y-43222380D01*
X139395762Y-43260476D01*
X138214810Y-43031904D02*
X138595762Y-43031904D01*
X138633857Y-43412857D01*
X138595762Y-43374761D01*
X138519571Y-43336666D01*
X138329095Y-43336666D01*
X138252905Y-43374761D01*
X138214810Y-43412857D01*
X138176714Y-43489047D01*
X138176714Y-43679523D01*
X138214810Y-43755714D01*
X138252905Y-43793809D01*
X138329095Y-43831904D01*
X138519571Y-43831904D01*
X138595762Y-43793809D01*
X138633857Y-43755714D01*
X139967191Y-40491904D02*
X139891000Y-40491904D01*
X139814810Y-40530000D01*
X139776714Y-40568095D01*
X139738619Y-40644285D01*
X139700524Y-40796666D01*
X139700524Y-40987142D01*
X139738619Y-41139523D01*
X139776714Y-41215714D01*
X139814810Y-41253809D01*
X139891000Y-41291904D01*
X139967191Y-41291904D01*
X140043381Y-41253809D01*
X140081476Y-41215714D01*
X140119571Y-41139523D01*
X140157667Y-40987142D01*
X140157667Y-40796666D01*
X140119571Y-40644285D01*
X140081476Y-40568095D01*
X140043381Y-40530000D01*
X139967191Y-40491904D01*
X139205286Y-40491904D02*
X139129095Y-40491904D01*
X139052905Y-40530000D01*
X139014810Y-40568095D01*
X138976714Y-40644285D01*
X138938619Y-40796666D01*
X138938619Y-40987142D01*
X138976714Y-41139523D01*
X139014810Y-41215714D01*
X139052905Y-41253809D01*
X139129095Y-41291904D01*
X139205286Y-41291904D01*
X139281476Y-41253809D01*
X139319571Y-41215714D01*
X139357667Y-41139523D01*
X139395762Y-40987142D01*
X139395762Y-40796666D01*
X139357667Y-40644285D01*
X139319571Y-40568095D01*
X139281476Y-40530000D01*
X139205286Y-40491904D01*
X138633857Y-40568095D02*
X138595762Y-40530000D01*
X138519571Y-40491904D01*
X138329095Y-40491904D01*
X138252905Y-40530000D01*
X138214810Y-40568095D01*
X138176714Y-40644285D01*
X138176714Y-40720476D01*
X138214810Y-40834761D01*
X138671952Y-41291904D01*
X138176714Y-41291904D01*
X139967191Y-37951904D02*
X139891000Y-37951904D01*
X139814810Y-37990000D01*
X139776714Y-38028095D01*
X139738619Y-38104285D01*
X139700524Y-38256666D01*
X139700524Y-38447142D01*
X139738619Y-38599523D01*
X139776714Y-38675714D01*
X139814810Y-38713809D01*
X139891000Y-38751904D01*
X139967191Y-38751904D01*
X140043381Y-38713809D01*
X140081476Y-38675714D01*
X140119571Y-38599523D01*
X140157667Y-38447142D01*
X140157667Y-38256666D01*
X140119571Y-38104285D01*
X140081476Y-38028095D01*
X140043381Y-37990000D01*
X139967191Y-37951904D01*
X139395762Y-38028095D02*
X139357667Y-37990000D01*
X139281476Y-37951904D01*
X139091000Y-37951904D01*
X139014810Y-37990000D01*
X138976714Y-38028095D01*
X138938619Y-38104285D01*
X138938619Y-38180476D01*
X138976714Y-38294761D01*
X139433857Y-38751904D01*
X138938619Y-38751904D01*
X138557667Y-38751904D02*
X138405286Y-38751904D01*
X138329095Y-38713809D01*
X138291000Y-38675714D01*
X138214810Y-38561428D01*
X138176714Y-38409047D01*
X138176714Y-38104285D01*
X138214810Y-38028095D01*
X138252905Y-37990000D01*
X138329095Y-37951904D01*
X138481476Y-37951904D01*
X138557667Y-37990000D01*
X138595762Y-38028095D01*
X138633857Y-38104285D01*
X138633857Y-38294761D01*
X138595762Y-38370952D01*
X138557667Y-38409047D01*
X138481476Y-38447142D01*
X138329095Y-38447142D01*
X138252905Y-38409047D01*
X138214810Y-38370952D01*
X138176714Y-38294761D01*
X139656095Y-26051904D02*
X139922762Y-25670952D01*
X140113238Y-26051904D02*
X140113238Y-25251904D01*
X139808476Y-25251904D01*
X139732286Y-25290000D01*
X139694191Y-25328095D01*
X139656095Y-25404285D01*
X139656095Y-25518571D01*
X139694191Y-25594761D01*
X139732286Y-25632857D01*
X139808476Y-25670952D01*
X140113238Y-25670952D01*
X139351334Y-25823333D02*
X138970381Y-25823333D01*
X139427524Y-26051904D02*
X139160857Y-25251904D01*
X138894191Y-26051904D01*
X138703715Y-25251904D02*
X138513238Y-26051904D01*
X138360857Y-25480476D01*
X138208476Y-26051904D01*
X138018000Y-25251904D01*
X139694190Y-27830000D02*
X139770381Y-27791904D01*
X139884667Y-27791904D01*
X139998952Y-27830000D01*
X140075143Y-27906190D01*
X140113238Y-27982380D01*
X140151333Y-28134761D01*
X140151333Y-28249047D01*
X140113238Y-28401428D01*
X140075143Y-28477619D01*
X139998952Y-28553809D01*
X139884667Y-28591904D01*
X139808476Y-28591904D01*
X139694190Y-28553809D01*
X139656095Y-28515714D01*
X139656095Y-28249047D01*
X139808476Y-28249047D01*
X139313238Y-28591904D02*
X139313238Y-27791904D01*
X138856095Y-28591904D01*
X138856095Y-27791904D01*
X138475143Y-28591904D02*
X138475143Y-27791904D01*
X138284667Y-27791904D01*
X138170381Y-27830000D01*
X138094190Y-27906190D01*
X138056095Y-27982380D01*
X138018000Y-28134761D01*
X138018000Y-28249047D01*
X138056095Y-28401428D01*
X138094190Y-28477619D01*
X138170381Y-28553809D01*
X138284667Y-28591904D01*
X138475143Y-28591904D01*
X140233857Y-32871904D02*
X139967191Y-33671904D01*
X139700524Y-32871904D01*
X138976714Y-33595714D02*
X139014810Y-33633809D01*
X139129095Y-33671904D01*
X139205286Y-33671904D01*
X139319571Y-33633809D01*
X139395762Y-33557619D01*
X139433857Y-33481428D01*
X139471952Y-33329047D01*
X139471952Y-33214761D01*
X139433857Y-33062380D01*
X139395762Y-32986190D01*
X139319571Y-32910000D01*
X139205286Y-32871904D01*
X139129095Y-32871904D01*
X139014810Y-32910000D01*
X138976714Y-32948095D01*
X138176714Y-33595714D02*
X138214810Y-33633809D01*
X138329095Y-33671904D01*
X138405286Y-33671904D01*
X138519571Y-33633809D01*
X138595762Y-33557619D01*
X138633857Y-33481428D01*
X138671952Y-33329047D01*
X138671952Y-33214761D01*
X138633857Y-33062380D01*
X138595762Y-32986190D01*
X138519571Y-32910000D01*
X138405286Y-32871904D01*
X138329095Y-32871904D01*
X138214810Y-32910000D01*
X138176714Y-32948095D01*
X139967191Y-35411904D02*
X139891000Y-35411904D01*
X139814810Y-35450000D01*
X139776714Y-35488095D01*
X139738619Y-35564285D01*
X139700524Y-35716666D01*
X139700524Y-35907142D01*
X139738619Y-36059523D01*
X139776714Y-36135714D01*
X139814810Y-36173809D01*
X139891000Y-36211904D01*
X139967191Y-36211904D01*
X140043381Y-36173809D01*
X140081476Y-36135714D01*
X140119571Y-36059523D01*
X140157667Y-35907142D01*
X140157667Y-35716666D01*
X140119571Y-35564285D01*
X140081476Y-35488095D01*
X140043381Y-35450000D01*
X139967191Y-35411904D01*
X139433857Y-35411904D02*
X138938619Y-35411904D01*
X139205286Y-35716666D01*
X139091000Y-35716666D01*
X139014810Y-35754761D01*
X138976714Y-35792857D01*
X138938619Y-35869047D01*
X138938619Y-36059523D01*
X138976714Y-36135714D01*
X139014810Y-36173809D01*
X139091000Y-36211904D01*
X139319571Y-36211904D01*
X139395762Y-36173809D01*
X139433857Y-36135714D01*
X138176714Y-36211904D02*
X138633857Y-36211904D01*
X138405286Y-36211904D02*
X138405286Y-35411904D01*
X138481476Y-35526190D01*
X138557667Y-35602380D01*
X138633857Y-35640476D01*
X139700524Y-46371904D02*
X140157667Y-46371904D01*
X139929095Y-46371904D02*
X139929095Y-45571904D01*
X140005286Y-45686190D01*
X140081476Y-45762380D01*
X140157667Y-45800476D01*
X138938619Y-46371904D02*
X139395762Y-46371904D01*
X139167191Y-46371904D02*
X139167191Y-45571904D01*
X139243381Y-45686190D01*
X139319571Y-45762380D01*
X139395762Y-45800476D01*
X138671952Y-45571904D02*
X138176714Y-45571904D01*
X138443381Y-45876666D01*
X138329095Y-45876666D01*
X138252905Y-45914761D01*
X138214810Y-45952857D01*
X138176714Y-46029047D01*
X138176714Y-46219523D01*
X138214810Y-46295714D01*
X138252905Y-46333809D01*
X138329095Y-46371904D01*
X138557667Y-46371904D01*
X138633857Y-46333809D01*
X138671952Y-46295714D01*
X139700524Y-48911904D02*
X140157667Y-48911904D01*
X139929095Y-48911904D02*
X139929095Y-48111904D01*
X140005286Y-48226190D01*
X140081476Y-48302380D01*
X140157667Y-48340476D01*
X138938619Y-48911904D02*
X139395762Y-48911904D01*
X139167191Y-48911904D02*
X139167191Y-48111904D01*
X139243381Y-48226190D01*
X139319571Y-48302380D01*
X139395762Y-48340476D01*
X138176714Y-48911904D02*
X138633857Y-48911904D01*
X138405286Y-48911904D02*
X138405286Y-48111904D01*
X138481476Y-48226190D01*
X138557667Y-48302380D01*
X138633857Y-48340476D01*
X128626143Y-51451904D02*
X129083286Y-51451904D01*
X128854714Y-51451904D02*
X128854714Y-50651904D01*
X128930905Y-50766190D01*
X129007095Y-50842380D01*
X129083286Y-50880476D01*
X128130905Y-50651904D02*
X128054714Y-50651904D01*
X127978524Y-50690000D01*
X127940429Y-50728095D01*
X127902333Y-50804285D01*
X127864238Y-50956666D01*
X127864238Y-51147142D01*
X127902333Y-51299523D01*
X127940429Y-51375714D01*
X127978524Y-51413809D01*
X128054714Y-51451904D01*
X128130905Y-51451904D01*
X128207095Y-51413809D01*
X128245190Y-51375714D01*
X128283286Y-51299523D01*
X128321381Y-51147142D01*
X128321381Y-50956666D01*
X128283286Y-50804285D01*
X128245190Y-50728095D01*
X128207095Y-50690000D01*
X128130905Y-50651904D01*
X127178524Y-50918571D02*
X127178524Y-51451904D01*
X127369000Y-50613809D02*
X127559476Y-51185238D01*
X127064238Y-51185238D01*
X128626143Y-46371904D02*
X129083286Y-46371904D01*
X128854714Y-46371904D02*
X128854714Y-45571904D01*
X128930905Y-45686190D01*
X129007095Y-45762380D01*
X129083286Y-45800476D01*
X128130905Y-45571904D02*
X128054714Y-45571904D01*
X127978524Y-45610000D01*
X127940429Y-45648095D01*
X127902333Y-45724285D01*
X127864238Y-45876666D01*
X127864238Y-46067142D01*
X127902333Y-46219523D01*
X127940429Y-46295714D01*
X127978524Y-46333809D01*
X128054714Y-46371904D01*
X128130905Y-46371904D01*
X128207095Y-46333809D01*
X128245190Y-46295714D01*
X128283286Y-46219523D01*
X128321381Y-46067142D01*
X128321381Y-45876666D01*
X128283286Y-45724285D01*
X128245190Y-45648095D01*
X128207095Y-45610000D01*
X128130905Y-45571904D01*
X127369000Y-45571904D02*
X127292810Y-45571904D01*
X127216619Y-45610000D01*
X127178524Y-45648095D01*
X127140429Y-45724285D01*
X127102333Y-45876666D01*
X127102333Y-46067142D01*
X127140429Y-46219523D01*
X127178524Y-46295714D01*
X127216619Y-46333809D01*
X127292810Y-46371904D01*
X127369000Y-46371904D01*
X127445190Y-46333809D01*
X127483286Y-46295714D01*
X127521381Y-46219523D01*
X127559476Y-46067142D01*
X127559476Y-45876666D01*
X127521381Y-45724285D01*
X127483286Y-45648095D01*
X127445190Y-45610000D01*
X127369000Y-45571904D01*
X128892810Y-43021904D02*
X128816619Y-43021904D01*
X128740429Y-43060000D01*
X128702333Y-43098095D01*
X128664238Y-43174285D01*
X128626143Y-43326666D01*
X128626143Y-43517142D01*
X128664238Y-43669523D01*
X128702333Y-43745714D01*
X128740429Y-43783809D01*
X128816619Y-43821904D01*
X128892810Y-43821904D01*
X128969000Y-43783809D01*
X129007095Y-43745714D01*
X129045190Y-43669523D01*
X129083286Y-43517142D01*
X129083286Y-43326666D01*
X129045190Y-43174285D01*
X129007095Y-43098095D01*
X128969000Y-43060000D01*
X128892810Y-43021904D01*
X128321381Y-43098095D02*
X128283286Y-43060000D01*
X128207095Y-43021904D01*
X128016619Y-43021904D01*
X127940429Y-43060000D01*
X127902333Y-43098095D01*
X127864238Y-43174285D01*
X127864238Y-43250476D01*
X127902333Y-43364761D01*
X128359476Y-43821904D01*
X127864238Y-43821904D01*
X127178524Y-43288571D02*
X127178524Y-43821904D01*
X127369000Y-42983809D02*
X127559476Y-43555238D01*
X127064238Y-43555238D01*
X128892810Y-40521904D02*
X128816619Y-40521904D01*
X128740429Y-40560000D01*
X128702333Y-40598095D01*
X128664238Y-40674285D01*
X128626143Y-40826666D01*
X128626143Y-41017142D01*
X128664238Y-41169523D01*
X128702333Y-41245714D01*
X128740429Y-41283809D01*
X128816619Y-41321904D01*
X128892810Y-41321904D01*
X128969000Y-41283809D01*
X129007095Y-41245714D01*
X129045190Y-41169523D01*
X129083286Y-41017142D01*
X129083286Y-40826666D01*
X129045190Y-40674285D01*
X129007095Y-40598095D01*
X128969000Y-40560000D01*
X128892810Y-40521904D01*
X128321381Y-40598095D02*
X128283286Y-40560000D01*
X128207095Y-40521904D01*
X128016619Y-40521904D01*
X127940429Y-40560000D01*
X127902333Y-40598095D01*
X127864238Y-40674285D01*
X127864238Y-40750476D01*
X127902333Y-40864761D01*
X128359476Y-41321904D01*
X127864238Y-41321904D01*
X127559476Y-40598095D02*
X127521381Y-40560000D01*
X127445190Y-40521904D01*
X127254714Y-40521904D01*
X127178524Y-40560000D01*
X127140429Y-40598095D01*
X127102333Y-40674285D01*
X127102333Y-40750476D01*
X127140429Y-40864761D01*
X127597571Y-41321904D01*
X127102333Y-41321904D01*
X128778523Y-30370000D02*
X128854714Y-30331904D01*
X128969000Y-30331904D01*
X129083285Y-30370000D01*
X129159476Y-30446190D01*
X129197571Y-30522380D01*
X129235666Y-30674761D01*
X129235666Y-30789047D01*
X129197571Y-30941428D01*
X129159476Y-31017619D01*
X129083285Y-31093809D01*
X128969000Y-31131904D01*
X128892809Y-31131904D01*
X128778523Y-31093809D01*
X128740428Y-31055714D01*
X128740428Y-30789047D01*
X128892809Y-30789047D01*
X128397571Y-31131904D02*
X128397571Y-30331904D01*
X127940428Y-31131904D01*
X127940428Y-30331904D01*
X127559476Y-31131904D02*
X127559476Y-30331904D01*
X127369000Y-30331904D01*
X127254714Y-30370000D01*
X127178523Y-30446190D01*
X127140428Y-30522380D01*
X127102333Y-30674761D01*
X127102333Y-30789047D01*
X127140428Y-30941428D01*
X127178523Y-31017619D01*
X127254714Y-31093809D01*
X127369000Y-31131904D01*
X127559476Y-31131904D01*
X128778523Y-32910000D02*
X128854714Y-32871904D01*
X128969000Y-32871904D01*
X129083285Y-32910000D01*
X129159476Y-32986190D01*
X129197571Y-33062380D01*
X129235666Y-33214761D01*
X129235666Y-33329047D01*
X129197571Y-33481428D01*
X129159476Y-33557619D01*
X129083285Y-33633809D01*
X128969000Y-33671904D01*
X128892809Y-33671904D01*
X128778523Y-33633809D01*
X128740428Y-33595714D01*
X128740428Y-33329047D01*
X128892809Y-33329047D01*
X128397571Y-33671904D02*
X128397571Y-32871904D01*
X127940428Y-33671904D01*
X127940428Y-32871904D01*
X127559476Y-33671904D02*
X127559476Y-32871904D01*
X127369000Y-32871904D01*
X127254714Y-32910000D01*
X127178523Y-32986190D01*
X127140428Y-33062380D01*
X127102333Y-33214761D01*
X127102333Y-33329047D01*
X127140428Y-33481428D01*
X127178523Y-33557619D01*
X127254714Y-33633809D01*
X127369000Y-33671904D01*
X127559476Y-33671904D01*
X128892810Y-35411904D02*
X128816619Y-35411904D01*
X128740429Y-35450000D01*
X128702333Y-35488095D01*
X128664238Y-35564285D01*
X128626143Y-35716666D01*
X128626143Y-35907142D01*
X128664238Y-36059523D01*
X128702333Y-36135714D01*
X128740429Y-36173809D01*
X128816619Y-36211904D01*
X128892810Y-36211904D01*
X128969000Y-36173809D01*
X129007095Y-36135714D01*
X129045190Y-36059523D01*
X129083286Y-35907142D01*
X129083286Y-35716666D01*
X129045190Y-35564285D01*
X129007095Y-35488095D01*
X128969000Y-35450000D01*
X128892810Y-35411904D01*
X127864238Y-36211904D02*
X128321381Y-36211904D01*
X128092810Y-36211904D02*
X128092810Y-35411904D01*
X128169000Y-35526190D01*
X128245190Y-35602380D01*
X128321381Y-35640476D01*
X127597571Y-35411904D02*
X127064238Y-35411904D01*
X127407095Y-36211904D01*
X128892810Y-38021904D02*
X128816619Y-38021904D01*
X128740429Y-38060000D01*
X128702333Y-38098095D01*
X128664238Y-38174285D01*
X128626143Y-38326666D01*
X128626143Y-38517142D01*
X128664238Y-38669523D01*
X128702333Y-38745714D01*
X128740429Y-38783809D01*
X128816619Y-38821904D01*
X128892810Y-38821904D01*
X128969000Y-38783809D01*
X129007095Y-38745714D01*
X129045190Y-38669523D01*
X129083286Y-38517142D01*
X129083286Y-38326666D01*
X129045190Y-38174285D01*
X129007095Y-38098095D01*
X128969000Y-38060000D01*
X128892810Y-38021904D01*
X128321381Y-38098095D02*
X128283286Y-38060000D01*
X128207095Y-38021904D01*
X128016619Y-38021904D01*
X127940429Y-38060000D01*
X127902333Y-38098095D01*
X127864238Y-38174285D01*
X127864238Y-38250476D01*
X127902333Y-38364761D01*
X128359476Y-38821904D01*
X127864238Y-38821904D01*
X127369000Y-38021904D02*
X127292810Y-38021904D01*
X127216619Y-38060000D01*
X127178524Y-38098095D01*
X127140429Y-38174285D01*
X127102333Y-38326666D01*
X127102333Y-38517142D01*
X127140429Y-38669523D01*
X127178524Y-38745714D01*
X127216619Y-38783809D01*
X127292810Y-38821904D01*
X127369000Y-38821904D01*
X127445190Y-38783809D01*
X127483286Y-38745714D01*
X127521381Y-38669523D01*
X127559476Y-38517142D01*
X127559476Y-38326666D01*
X127521381Y-38174285D01*
X127483286Y-38098095D01*
X127445190Y-38060000D01*
X127369000Y-38021904D01*
X128892810Y-27721904D02*
X128816619Y-27721904D01*
X128740429Y-27760000D01*
X128702333Y-27798095D01*
X128664238Y-27874285D01*
X128626143Y-28026666D01*
X128626143Y-28217142D01*
X128664238Y-28369523D01*
X128702333Y-28445714D01*
X128740429Y-28483809D01*
X128816619Y-28521904D01*
X128892810Y-28521904D01*
X128969000Y-28483809D01*
X129007095Y-28445714D01*
X129045190Y-28369523D01*
X129083286Y-28217142D01*
X129083286Y-28026666D01*
X129045190Y-27874285D01*
X129007095Y-27798095D01*
X128969000Y-27760000D01*
X128892810Y-27721904D01*
X128130905Y-27721904D02*
X128054714Y-27721904D01*
X127978524Y-27760000D01*
X127940429Y-27798095D01*
X127902333Y-27874285D01*
X127864238Y-28026666D01*
X127864238Y-28217142D01*
X127902333Y-28369523D01*
X127940429Y-28445714D01*
X127978524Y-28483809D01*
X128054714Y-28521904D01*
X128130905Y-28521904D01*
X128207095Y-28483809D01*
X128245190Y-28445714D01*
X128283286Y-28369523D01*
X128321381Y-28217142D01*
X128321381Y-28026666D01*
X128283286Y-27874285D01*
X128245190Y-27798095D01*
X128207095Y-27760000D01*
X128130905Y-27721904D01*
X127407095Y-28064761D02*
X127483286Y-28026666D01*
X127521381Y-27988571D01*
X127559476Y-27912380D01*
X127559476Y-27874285D01*
X127521381Y-27798095D01*
X127483286Y-27760000D01*
X127407095Y-27721904D01*
X127254714Y-27721904D01*
X127178524Y-27760000D01*
X127140429Y-27798095D01*
X127102333Y-27874285D01*
X127102333Y-27912380D01*
X127140429Y-27988571D01*
X127178524Y-28026666D01*
X127254714Y-28064761D01*
X127407095Y-28064761D01*
X127483286Y-28102857D01*
X127521381Y-28140952D01*
X127559476Y-28217142D01*
X127559476Y-28369523D01*
X127521381Y-28445714D01*
X127483286Y-28483809D01*
X127407095Y-28521904D01*
X127254714Y-28521904D01*
X127178524Y-28483809D01*
X127140429Y-28445714D01*
X127102333Y-28369523D01*
X127102333Y-28217142D01*
X127140429Y-28140952D01*
X127178524Y-28102857D01*
X127254714Y-28064761D01*
%TO.C,*%
X139819047Y-23228571D02*
X139676190Y-23276190D01*
X139628571Y-23323809D01*
X139580952Y-23419047D01*
X139580952Y-23561904D01*
X139628571Y-23657142D01*
X139676190Y-23704761D01*
X139771428Y-23752380D01*
X140152380Y-23752380D01*
X140152380Y-22752380D01*
X139819047Y-22752380D01*
X139723809Y-22800000D01*
X139676190Y-22847619D01*
X139628571Y-22942857D01*
X139628571Y-23038095D01*
X139676190Y-23133333D01*
X139723809Y-23180952D01*
X139819047Y-23228571D01*
X140152380Y-23228571D01*
X139200000Y-23466666D02*
X138723809Y-23466666D01*
X139295238Y-23752380D02*
X138961904Y-22752380D01*
X138628571Y-23752380D01*
X138438095Y-22752380D02*
X137866666Y-22752380D01*
X138152380Y-23752380D02*
X138152380Y-22752380D01*
X137676190Y-22752380D02*
X137104761Y-22752380D01*
X137390476Y-23752380D02*
X137390476Y-22752380D01*
%TD*%
%LPC*%
D17*
%TO.C,K_W1*%
X65443800Y-27091000D03*
X54443800Y-27091000D03*
D18*
X65163800Y-31291000D03*
D19*
X54943800Y-23291000D03*
D20*
X59943800Y-27091000D03*
D19*
X64943800Y-23291000D03*
X59943800Y-21191000D03*
D18*
X54723800Y-31291000D03*
%TD*%
D17*
%TO.C,K_R1*%
X101638800Y-27091000D03*
X90638800Y-27091000D03*
D18*
X101358800Y-31291000D03*
D19*
X91138800Y-23291000D03*
D20*
X96138800Y-27091000D03*
D19*
X101138800Y-23291000D03*
X96138800Y-21191000D03*
D18*
X90918800Y-31291000D03*
%TD*%
D17*
%TO.C,K_A1*%
X47346200Y-51094000D03*
X36346200Y-51094000D03*
D18*
X47066200Y-55294000D03*
D19*
X36846200Y-47294000D03*
D20*
X41846200Y-51094000D03*
D19*
X46846200Y-47294000D03*
X41846200Y-45194000D03*
D18*
X36626200Y-55294000D03*
%TD*%
D17*
%TO.C,K_B1*%
X119736000Y-62905000D03*
X108736000Y-62905000D03*
D18*
X119456000Y-67105000D03*
D19*
X109236000Y-59105000D03*
D20*
X114236000Y-62905000D03*
D19*
X119236000Y-59105000D03*
X114236000Y-57005000D03*
D18*
X109016000Y-67105000D03*
%TD*%
D17*
%TO.C,K_C1*%
X83541200Y-58142500D03*
X72541200Y-58142500D03*
D18*
X83261200Y-62342500D03*
D19*
X73041200Y-54342500D03*
D20*
X78041200Y-58142500D03*
D19*
X83041200Y-54342500D03*
X78041200Y-52242500D03*
D18*
X72821200Y-62342500D03*
%TD*%
D17*
%TO.C,K_CAPS1*%
X29248800Y-51094000D03*
X18248800Y-51094000D03*
D18*
X28968800Y-55294000D03*
D19*
X18748800Y-47294000D03*
D20*
X23748800Y-51094000D03*
D19*
X28748800Y-47294000D03*
X23748800Y-45194000D03*
D18*
X18528800Y-55294000D03*
%TD*%
D17*
%TO.C,K_D1*%
X83541200Y-40997500D03*
X72541200Y-40997500D03*
D18*
X83261200Y-45197500D03*
D19*
X73041200Y-37197500D03*
D20*
X78041200Y-40997500D03*
D19*
X83041200Y-37197500D03*
X78041200Y-35097500D03*
D18*
X72821200Y-45197500D03*
%TD*%
D17*
%TO.C,K_E1*%
X83541200Y-23852500D03*
X72541200Y-23852500D03*
D18*
X83261200Y-28052500D03*
D19*
X73041200Y-20052500D03*
D20*
X78041200Y-23852500D03*
D19*
X83041200Y-20052500D03*
X78041200Y-17952500D03*
D18*
X72821200Y-28052500D03*
%TD*%
D17*
%TO.C,K_F1*%
X101638800Y-44236000D03*
X90638800Y-44236000D03*
D18*
X101358800Y-48436000D03*
D19*
X91138800Y-40436000D03*
D20*
X96138800Y-44236000D03*
D19*
X101138800Y-40436000D03*
X96138800Y-38336000D03*
D18*
X90918800Y-48436000D03*
%TD*%
D17*
%TO.C,K_G1*%
X119736000Y-45760000D03*
X108736000Y-45760000D03*
D18*
X119456000Y-49960000D03*
D19*
X109236000Y-41960000D03*
D20*
X114236000Y-45760000D03*
D19*
X119236000Y-41960000D03*
X114236000Y-39860000D03*
D18*
X109016000Y-49960000D03*
%TD*%
D17*
%TO.C,K_INNER1*%
X84109071Y-82460643D03*
X73150929Y-83419357D03*
D18*
X84196190Y-86669065D03*
D19*
X73317835Y-79590239D03*
D20*
X78630000Y-82940000D03*
D19*
X83279782Y-78718681D03*
X78115781Y-77062451D03*
D18*
X73795918Y-87578971D03*
%TD*%
D17*
%TO.C,K_OUTER1*%
X140046474Y-84595452D03*
X129153526Y-83064548D03*
D18*
X139184672Y-88715609D03*
D19*
X130177517Y-79371116D03*
D20*
X134600000Y-83830000D03*
D19*
X140080198Y-80762847D03*
X135421121Y-77987418D03*
D18*
X128846274Y-87262642D03*
%TD*%
D17*
%TO.C,K_Q1*%
X47346200Y-33949000D03*
X36346200Y-33949000D03*
D18*
X47066200Y-38149000D03*
D19*
X36846200Y-30149000D03*
D20*
X41846200Y-33949000D03*
D19*
X46846200Y-30149000D03*
X41846200Y-28049000D03*
D18*
X36626200Y-38149000D03*
%TD*%
D17*
%TO.C,K_S1*%
X65443800Y-44236000D03*
X54443800Y-44236000D03*
D18*
X65163800Y-48436000D03*
D19*
X54943800Y-40436000D03*
D20*
X59943800Y-44236000D03*
D19*
X64943800Y-40436000D03*
X59943800Y-38336000D03*
D18*
X54723800Y-48436000D03*
%TD*%
D17*
%TO.C,K_SHIFT1*%
X29248800Y-68239000D03*
X18248800Y-68239000D03*
D18*
X28968800Y-72439000D03*
D19*
X18748800Y-64439000D03*
D20*
X23748800Y-68239000D03*
D19*
X28748800Y-64439000D03*
X23748800Y-62339000D03*
D18*
X18528800Y-72439000D03*
%TD*%
D17*
%TO.C,K_T1*%
X119736000Y-28615000D03*
X108736000Y-28615000D03*
D18*
X119456000Y-32815000D03*
D19*
X109236000Y-24815000D03*
D20*
X114236000Y-28615000D03*
D19*
X119236000Y-24815000D03*
X114236000Y-22715000D03*
D18*
X109016000Y-32815000D03*
%TD*%
D17*
%TO.C,K_TAB1*%
X29248800Y-33949000D03*
X18248800Y-33949000D03*
D18*
X28968800Y-38149000D03*
D19*
X18748800Y-30149000D03*
D20*
X23748800Y-33949000D03*
D19*
X28748800Y-30149000D03*
X23748800Y-28049000D03*
D18*
X18528800Y-38149000D03*
%TD*%
D17*
%TO.C,K_THUMB1*%
X102546650Y-81638053D03*
X91553350Y-82021947D03*
D18*
X102413398Y-85845266D03*
D19*
X91920428Y-78206812D03*
D20*
X97050000Y-81830000D03*
D19*
X101914336Y-77857817D03*
X96844093Y-75933594D03*
D18*
X91979758Y-86209617D03*
%TD*%
D17*
%TO.C,K_THUMB2*%
X121382462Y-82287848D03*
X110397538Y-81712152D03*
D18*
X120883035Y-86467438D03*
D19*
X111095729Y-77943528D03*
D20*
X115890000Y-82000000D03*
D19*
X121082024Y-78466888D03*
X116198782Y-76108086D03*
D18*
X110457343Y-85921050D03*
%TD*%
D17*
%TO.C,K_V1*%
X101638800Y-61381000D03*
X90638800Y-61381000D03*
D18*
X101358800Y-65581000D03*
D19*
X91138800Y-57581000D03*
D20*
X96138800Y-61381000D03*
D19*
X101138800Y-57581000D03*
X96138800Y-55481000D03*
D18*
X90918800Y-65581000D03*
%TD*%
D17*
%TO.C,K_X1*%
X65443800Y-61381000D03*
X54443800Y-61381000D03*
D18*
X65163800Y-65581000D03*
D19*
X54943800Y-57581000D03*
D20*
X59943800Y-61381000D03*
D19*
X64943800Y-57581000D03*
X59943800Y-55481000D03*
D18*
X54723800Y-65581000D03*
%TD*%
D17*
%TO.C,K_Z1*%
X47346200Y-68239000D03*
X36346200Y-68239000D03*
D18*
X47066200Y-72439000D03*
D19*
X36846200Y-64439000D03*
D20*
X41846200Y-68239000D03*
D19*
X46846200Y-64439000D03*
X41846200Y-62339000D03*
D18*
X36626200Y-72439000D03*
%TD*%
D21*
%TO.C,U1*%
X141250000Y-25690000D03*
X126010000Y-53630000D03*
X141250000Y-28230000D03*
X141250000Y-30770000D03*
X141250000Y-33310000D03*
X141250000Y-35850000D03*
X141250000Y-38390000D03*
X141250000Y-40930000D03*
X141250000Y-43470000D03*
X141250000Y-46010000D03*
X141250000Y-48550000D03*
X141250000Y-51090000D03*
X141250000Y-53630000D03*
X126010000Y-51090000D03*
X126010000Y-48550000D03*
X126010000Y-46010000D03*
X126010000Y-43470000D03*
X126010000Y-40930000D03*
X126010000Y-38390000D03*
X126010000Y-35850000D03*
X126010000Y-33310000D03*
X126010000Y-30770000D03*
X126010000Y-28230000D03*
X126010000Y-25690000D03*
%TD*%
D22*
%TO.C,SW3*%
X54120000Y-79520000D03*
X65320000Y-79520000D03*
D23*
X57220000Y-72020000D03*
X59720000Y-72020000D03*
D24*
X62220000Y-72020000D03*
%TD*%
D25*
%TO.C,SW2*%
X135700000Y-73650000D03*
X135700000Y-61150000D03*
D26*
X135700000Y-64400000D03*
X135700000Y-70400000D03*
X135700000Y-67400000D03*
%TD*%
D27*
%TO.C,D_Z1*%
X50900000Y-61400000D03*
D28*
X50900000Y-69200000D03*
%TD*%
D27*
%TO.C,D_X1*%
X69000000Y-60100000D03*
D28*
X69000000Y-67900000D03*
%TD*%
D27*
%TO.C,D_W1*%
X56043800Y-35650000D03*
D28*
X63843800Y-35650000D03*
%TD*%
D27*
%TO.C,D_V1*%
X105200000Y-61200000D03*
D28*
X105200000Y-69000000D03*
%TD*%
D27*
%TO.C,D_THUMB2*%
X112205345Y-72095890D03*
D29*
G36*
X120887976Y-71699760D02*
G01*
X120799005Y-73397431D01*
X119101334Y-73308460D01*
X119190305Y-71610789D01*
X120887976Y-71699760D01*
G37*
%TD*%
D27*
%TO.C,D_THUMB1*%
X92702376Y-72536108D03*
D29*
G36*
X101317442Y-71384745D02*
G01*
X101376771Y-73083710D01*
X99677806Y-73143039D01*
X99618477Y-71444074D01*
X101317442Y-71384745D01*
G37*
%TD*%
D27*
%TO.C,D_TAB1*%
X19848800Y-42530000D03*
D28*
X27648800Y-42530000D03*
%TD*%
D27*
%TO.C,D_T1*%
X110336000Y-37200000D03*
D28*
X118136000Y-37200000D03*
%TD*%
D27*
%TO.C,D_SHIFT1*%
X32800000Y-66400000D03*
D28*
X32800000Y-74200000D03*
%TD*%
D27*
%TO.C,D_S1*%
X56043800Y-52800000D03*
D28*
X63843800Y-52800000D03*
%TD*%
D27*
%TO.C,D_R1*%
X92238800Y-35700000D03*
D28*
X100038800Y-35700000D03*
%TD*%
D27*
%TO.C,D_Q1*%
X37946200Y-42530000D03*
D28*
X45746200Y-42530000D03*
%TD*%
D27*
%TO.C,D_INNER1*%
X73814841Y-73839907D03*
D29*
G36*
X82357842Y-72239245D02*
G01*
X82506007Y-73932776D01*
X80812476Y-74080941D01*
X80664311Y-72387410D01*
X82357842Y-72239245D01*
G37*
%TD*%
D27*
%TO.C,D_G1*%
X110336000Y-54300000D03*
D28*
X118136000Y-54300000D03*
%TD*%
D27*
%TO.C,D_F1*%
X92238800Y-52830000D03*
D28*
X100038800Y-52830000D03*
%TD*%
D27*
%TO.C,D_E1*%
X74141200Y-32460000D03*
D28*
X81941200Y-32460000D03*
%TD*%
D27*
%TO.C,D_CAPS1*%
X19848800Y-59640000D03*
D28*
X27648800Y-59640000D03*
%TD*%
D27*
%TO.C,D_C1*%
X87100000Y-55300000D03*
D28*
X87100000Y-63100000D03*
%TD*%
D27*
%TO.C,D_B1*%
X123300000Y-61200000D03*
D28*
X123300000Y-69000000D03*
%TD*%
D27*
%TO.C,D_A1*%
X37946200Y-59640000D03*
D28*
X45746200Y-59640000D03*
%TD*%
D27*
%TO.C,D_D1*%
X74141200Y-49580000D03*
D28*
X81941200Y-49580000D03*
%TD*%
D27*
%TO.C,D_OUTER1*%
X126442775Y-75337955D03*
D29*
G36*
X126080656Y-84022070D02*
G01*
X124397200Y-83785476D01*
X124633794Y-82102020D01*
X126317250Y-82338614D01*
X126080656Y-84022070D01*
G37*
%TD*%
D30*
%TO.C,D1*%
X105600000Y-36390000D03*
D31*
X103550000Y-33990000D03*
X106850000Y-33990000D03*
X103550000Y-38790000D03*
X106850000Y-38790000D03*
D30*
X104800000Y-36390000D03*
%TD*%
D31*
%TO.C,D2*%
X67000000Y-33390000D03*
X70300000Y-38190000D03*
X67000000Y-38190000D03*
D30*
X68250000Y-35790000D03*
X69050000Y-35790000D03*
D31*
X70300000Y-33390000D03*
%TD*%
%TO.C,D3*%
X31150000Y-40120000D03*
X34450000Y-44920000D03*
X31150000Y-44920000D03*
D30*
X32400000Y-42520000D03*
X33200000Y-42520000D03*
D31*
X34450000Y-40120000D03*
%TD*%
%TO.C,D4*%
X34450000Y-62070000D03*
X31150000Y-57270000D03*
X34450000Y-57270000D03*
D30*
X33200000Y-59670000D03*
X32400000Y-59670000D03*
D31*
X31150000Y-62070000D03*
%TD*%
%TO.C,D5*%
X70300000Y-55340000D03*
X67000000Y-50540000D03*
X70300000Y-50540000D03*
D30*
X69050000Y-52940000D03*
X68250000Y-52940000D03*
D31*
X67000000Y-55340000D03*
%TD*%
%TO.C,D6*%
X106850000Y-56020000D03*
X103550000Y-51220000D03*
X106850000Y-51220000D03*
D30*
X105600000Y-53620000D03*
X104800000Y-53620000D03*
D31*
X103550000Y-56020000D03*
%TD*%
D32*
%TO.C,L1*%
X129820000Y-57900000D03*
X132360000Y-57900000D03*
X134900000Y-57900000D03*
D33*
X137440000Y-57900000D03*
%TD*%
%TO.C,C3*%
G36*
G01*
X32321738Y-46850000D02*
X33278262Y-46850000D01*
G75*
G02*
X33550000Y-47121738I0J-271738D01*
G01*
X33550000Y-47828262D01*
G75*
G02*
X33278262Y-48100000I-271738J0D01*
G01*
X32321738Y-48100000D01*
G75*
G02*
X32050000Y-47828262I0J271738D01*
G01*
X32050000Y-47121738D01*
G75*
G02*
X32321738Y-46850000I271738J0D01*
G01*
G37*
G36*
G01*
X32321738Y-48900000D02*
X33278262Y-48900000D01*
G75*
G02*
X33550000Y-49171738I0J-271738D01*
G01*
X33550000Y-49878262D01*
G75*
G02*
X33278262Y-50150000I-271738J0D01*
G01*
X32321738Y-50150000D01*
G75*
G02*
X32050000Y-49878262I0J271738D01*
G01*
X32050000Y-49171738D01*
G75*
G02*
X32321738Y-48900000I271738J0D01*
G01*
G37*
%TD*%
%TO.C,C1*%
G36*
G01*
X104721738Y-40850000D02*
X105678262Y-40850000D01*
G75*
G02*
X105950000Y-41121738I0J-271738D01*
G01*
X105950000Y-41828262D01*
G75*
G02*
X105678262Y-42100000I-271738J0D01*
G01*
X104721738Y-42100000D01*
G75*
G02*
X104450000Y-41828262I0J271738D01*
G01*
X104450000Y-41121738D01*
G75*
G02*
X104721738Y-40850000I271738J0D01*
G01*
G37*
G36*
G01*
X104721738Y-42900000D02*
X105678262Y-42900000D01*
G75*
G02*
X105950000Y-43171738I0J-271738D01*
G01*
X105950000Y-43878262D01*
G75*
G02*
X105678262Y-44150000I-271738J0D01*
G01*
X104721738Y-44150000D01*
G75*
G02*
X104450000Y-43878262I0J271738D01*
G01*
X104450000Y-43171738D01*
G75*
G02*
X104721738Y-42900000I271738J0D01*
G01*
G37*
%TD*%
%TO.C,C2*%
G36*
G01*
X68171738Y-40350000D02*
X69128262Y-40350000D01*
G75*
G02*
X69400000Y-40621738I0J-271738D01*
G01*
X69400000Y-41328262D01*
G75*
G02*
X69128262Y-41600000I-271738J0D01*
G01*
X68171738Y-41600000D01*
G75*
G02*
X67900000Y-41328262I0J271738D01*
G01*
X67900000Y-40621738D01*
G75*
G02*
X68171738Y-40350000I271738J0D01*
G01*
G37*
G36*
G01*
X68171738Y-42400000D02*
X69128262Y-42400000D01*
G75*
G02*
X69400000Y-42671738I0J-271738D01*
G01*
X69400000Y-43378262D01*
G75*
G02*
X69128262Y-43650000I-271738J0D01*
G01*
X68171738Y-43650000D01*
G75*
G02*
X67900000Y-43378262I0J271738D01*
G01*
X67900000Y-42671738D01*
G75*
G02*
X68171738Y-42400000I271738J0D01*
G01*
G37*
%TD*%
%TO.C,C4*%
G36*
G01*
X33278262Y-55150000D02*
X32321738Y-55150000D01*
G75*
G02*
X32050000Y-54878262I0J271738D01*
G01*
X32050000Y-54171738D01*
G75*
G02*
X32321738Y-53900000I271738J0D01*
G01*
X33278262Y-53900000D01*
G75*
G02*
X33550000Y-54171738I0J-271738D01*
G01*
X33550000Y-54878262D01*
G75*
G02*
X33278262Y-55150000I-271738J0D01*
G01*
G37*
G36*
G01*
X33278262Y-53100000D02*
X32321738Y-53100000D01*
G75*
G02*
X32050000Y-52828262I0J271738D01*
G01*
X32050000Y-52121738D01*
G75*
G02*
X32321738Y-51850000I271738J0D01*
G01*
X33278262Y-51850000D01*
G75*
G02*
X33550000Y-52121738I0J-271738D01*
G01*
X33550000Y-52828262D01*
G75*
G02*
X33278262Y-53100000I-271738J0D01*
G01*
G37*
%TD*%
%TO.C,C5*%
G36*
G01*
X69128262Y-48650000D02*
X68171738Y-48650000D01*
G75*
G02*
X67900000Y-48378262I0J271738D01*
G01*
X67900000Y-47671738D01*
G75*
G02*
X68171738Y-47400000I271738J0D01*
G01*
X69128262Y-47400000D01*
G75*
G02*
X69400000Y-47671738I0J-271738D01*
G01*
X69400000Y-48378262D01*
G75*
G02*
X69128262Y-48650000I-271738J0D01*
G01*
G37*
G36*
G01*
X69128262Y-46600000D02*
X68171738Y-46600000D01*
G75*
G02*
X67900000Y-46328262I0J271738D01*
G01*
X67900000Y-45621738D01*
G75*
G02*
X68171738Y-45350000I271738J0D01*
G01*
X69128262Y-45350000D01*
G75*
G02*
X69400000Y-45621738I0J-271738D01*
G01*
X69400000Y-46328262D01*
G75*
G02*
X69128262Y-46600000I-271738J0D01*
G01*
G37*
%TD*%
%TO.C,C6*%
G36*
G01*
X105678262Y-49150000D02*
X104721738Y-49150000D01*
G75*
G02*
X104450000Y-48878262I0J271738D01*
G01*
X104450000Y-48171738D01*
G75*
G02*
X104721738Y-47900000I271738J0D01*
G01*
X105678262Y-47900000D01*
G75*
G02*
X105950000Y-48171738I0J-271738D01*
G01*
X105950000Y-48878262D01*
G75*
G02*
X105678262Y-49150000I-271738J0D01*
G01*
G37*
G36*
G01*
X105678262Y-47100000D02*
X104721738Y-47100000D01*
G75*
G02*
X104450000Y-46828262I0J271738D01*
G01*
X104450000Y-46121738D01*
G75*
G02*
X104721738Y-45850000I271738J0D01*
G01*
X105678262Y-45850000D01*
G75*
G02*
X105950000Y-46121738I0J-271738D01*
G01*
X105950000Y-46828262D01*
G75*
G02*
X105678262Y-47100000I-271738J0D01*
G01*
G37*
%TD*%
%TO.C,R1*%
G36*
G01*
X135105000Y-32518750D02*
X135105000Y-33481250D01*
G75*
G02*
X134836250Y-33750000I-268750J0D01*
G01*
X134298750Y-33750000D01*
G75*
G02*
X134030000Y-33481250I0J268750D01*
G01*
X134030000Y-32518750D01*
G75*
G02*
X134298750Y-32250000I268750J0D01*
G01*
X134836250Y-32250000D01*
G75*
G02*
X135105000Y-32518750I0J-268750D01*
G01*
G37*
G36*
G01*
X133230000Y-32518750D02*
X133230000Y-33481250D01*
G75*
G02*
X132961250Y-33750000I-268750J0D01*
G01*
X132423750Y-33750000D01*
G75*
G02*
X132155000Y-33481250I0J268750D01*
G01*
X132155000Y-32518750D01*
G75*
G02*
X132423750Y-32250000I268750J0D01*
G01*
X132961250Y-32250000D01*
G75*
G02*
X133230000Y-32518750I0J-268750D01*
G01*
G37*
%TD*%
D34*
%TO.C,Hole7*%
X129400000Y-66100000D03*
%TD*%
%TO.C,Hole6*%
X105500000Y-20300000D03*
%TD*%
%TO.C,Hole5*%
X77500000Y-69500000D03*
%TD*%
%TO.C,Hole4*%
X48100000Y-22500000D03*
%TD*%
%TO.C,Hole3*%
X47800000Y-81200000D03*
%TD*%
D26*
%TO.C,BATT*%
X141200000Y-23300000D03*
%TD*%
D34*
%TO.C,Hole1*%
X127400000Y-71500000D03*
%TD*%
%TO.C,Hole2*%
X141400000Y-73500000D03*
%TD*%
D35*
%TO.C,SW1*%
X130480000Y-41900000D03*
X136780000Y-41900000D03*
X130480000Y-38100000D03*
X136780000Y-38100000D03*
%TD*%
D36*
%TO.C,JP_B_GND1*%
X125460000Y-56190000D03*
X126760000Y-56190000D03*
%TD*%
%TO.C,JP_B_SCL1*%
X140500000Y-58360000D03*
X141800000Y-58360000D03*
%TD*%
%TO.C,JP_B_SDA1*%
X141800000Y-56190000D03*
X140500000Y-56190000D03*
%TD*%
%TO.C,JP_B_VCC1*%
X126760000Y-58360000D03*
X125460000Y-58360000D03*
%TD*%
M02*
