%TF.GenerationSoftware,KiCad,Pcbnew,(5.1.6)-1*%
%TF.CreationDate,2022-08-18T21:09:05-07:00*%
%TF.ProjectId,split-40-final,73706c69-742d-4343-902d-66696e616c2e,rev?*%
%TF.SameCoordinates,Original*%
%TF.FileFunction,Paste,Bot*%
%TF.FilePolarity,Positive*%
%FSLAX46Y46*%
G04 Gerber Fmt 4.6, Leading zero omitted, Abs format (unit mm)*
G04 Created by KiCad (PCBNEW (5.1.6)-1) date 2022-08-18 21:09:05*
%MOMM*%
%LPD*%
G01*
G04 APERTURE LIST*
%ADD10R,1.400000X1.800000*%
%ADD11R,1.700000X1.000000*%
G04 APERTURE END LIST*
D10*
%TO.C,D1*%
X103550000Y-33990000D03*
X106850000Y-33990000D03*
X103550000Y-38790000D03*
X106850000Y-38790000D03*
%TD*%
%TO.C,D2*%
X67000000Y-33390000D03*
X70300000Y-38190000D03*
X67000000Y-38190000D03*
X70300000Y-33390000D03*
%TD*%
%TO.C,D3*%
X31150000Y-40120000D03*
X34450000Y-44920000D03*
X31150000Y-44920000D03*
X34450000Y-40120000D03*
%TD*%
%TO.C,D4*%
X34450000Y-62070000D03*
X31150000Y-57270000D03*
X34450000Y-57270000D03*
X31150000Y-62070000D03*
%TD*%
%TO.C,D5*%
X70300000Y-55340000D03*
X67000000Y-50540000D03*
X70300000Y-50540000D03*
X67000000Y-55340000D03*
%TD*%
%TO.C,D6*%
X106850000Y-56020000D03*
X103550000Y-51220000D03*
X106850000Y-51220000D03*
X103550000Y-56020000D03*
%TD*%
%TO.C,C3*%
G36*
G01*
X32349999Y-46900000D02*
X33250001Y-46900000D01*
G75*
G02*
X33500000Y-47149999I0J-249999D01*
G01*
X33500000Y-47800001D01*
G75*
G02*
X33250001Y-48050000I-249999J0D01*
G01*
X32349999Y-48050000D01*
G75*
G02*
X32100000Y-47800001I0J249999D01*
G01*
X32100000Y-47149999D01*
G75*
G02*
X32349999Y-46900000I249999J0D01*
G01*
G37*
G36*
G01*
X32349999Y-48950000D02*
X33250001Y-48950000D01*
G75*
G02*
X33500000Y-49199999I0J-249999D01*
G01*
X33500000Y-49850001D01*
G75*
G02*
X33250001Y-50100000I-249999J0D01*
G01*
X32349999Y-50100000D01*
G75*
G02*
X32100000Y-49850001I0J249999D01*
G01*
X32100000Y-49199999D01*
G75*
G02*
X32349999Y-48950000I249999J0D01*
G01*
G37*
%TD*%
%TO.C,C1*%
G36*
G01*
X104749999Y-40900000D02*
X105650001Y-40900000D01*
G75*
G02*
X105900000Y-41149999I0J-249999D01*
G01*
X105900000Y-41800001D01*
G75*
G02*
X105650001Y-42050000I-249999J0D01*
G01*
X104749999Y-42050000D01*
G75*
G02*
X104500000Y-41800001I0J249999D01*
G01*
X104500000Y-41149999D01*
G75*
G02*
X104749999Y-40900000I249999J0D01*
G01*
G37*
G36*
G01*
X104749999Y-42950000D02*
X105650001Y-42950000D01*
G75*
G02*
X105900000Y-43199999I0J-249999D01*
G01*
X105900000Y-43850001D01*
G75*
G02*
X105650001Y-44100000I-249999J0D01*
G01*
X104749999Y-44100000D01*
G75*
G02*
X104500000Y-43850001I0J249999D01*
G01*
X104500000Y-43199999D01*
G75*
G02*
X104749999Y-42950000I249999J0D01*
G01*
G37*
%TD*%
%TO.C,C2*%
G36*
G01*
X68199999Y-40400000D02*
X69100001Y-40400000D01*
G75*
G02*
X69350000Y-40649999I0J-249999D01*
G01*
X69350000Y-41300001D01*
G75*
G02*
X69100001Y-41550000I-249999J0D01*
G01*
X68199999Y-41550000D01*
G75*
G02*
X67950000Y-41300001I0J249999D01*
G01*
X67950000Y-40649999D01*
G75*
G02*
X68199999Y-40400000I249999J0D01*
G01*
G37*
G36*
G01*
X68199999Y-42450000D02*
X69100001Y-42450000D01*
G75*
G02*
X69350000Y-42699999I0J-249999D01*
G01*
X69350000Y-43350001D01*
G75*
G02*
X69100001Y-43600000I-249999J0D01*
G01*
X68199999Y-43600000D01*
G75*
G02*
X67950000Y-43350001I0J249999D01*
G01*
X67950000Y-42699999D01*
G75*
G02*
X68199999Y-42450000I249999J0D01*
G01*
G37*
%TD*%
%TO.C,C4*%
G36*
G01*
X33250001Y-55100000D02*
X32349999Y-55100000D01*
G75*
G02*
X32100000Y-54850001I0J249999D01*
G01*
X32100000Y-54199999D01*
G75*
G02*
X32349999Y-53950000I249999J0D01*
G01*
X33250001Y-53950000D01*
G75*
G02*
X33500000Y-54199999I0J-249999D01*
G01*
X33500000Y-54850001D01*
G75*
G02*
X33250001Y-55100000I-249999J0D01*
G01*
G37*
G36*
G01*
X33250001Y-53050000D02*
X32349999Y-53050000D01*
G75*
G02*
X32100000Y-52800001I0J249999D01*
G01*
X32100000Y-52149999D01*
G75*
G02*
X32349999Y-51900000I249999J0D01*
G01*
X33250001Y-51900000D01*
G75*
G02*
X33500000Y-52149999I0J-249999D01*
G01*
X33500000Y-52800001D01*
G75*
G02*
X33250001Y-53050000I-249999J0D01*
G01*
G37*
%TD*%
%TO.C,C5*%
G36*
G01*
X69100001Y-48600000D02*
X68199999Y-48600000D01*
G75*
G02*
X67950000Y-48350001I0J249999D01*
G01*
X67950000Y-47699999D01*
G75*
G02*
X68199999Y-47450000I249999J0D01*
G01*
X69100001Y-47450000D01*
G75*
G02*
X69350000Y-47699999I0J-249999D01*
G01*
X69350000Y-48350001D01*
G75*
G02*
X69100001Y-48600000I-249999J0D01*
G01*
G37*
G36*
G01*
X69100001Y-46550000D02*
X68199999Y-46550000D01*
G75*
G02*
X67950000Y-46300001I0J249999D01*
G01*
X67950000Y-45649999D01*
G75*
G02*
X68199999Y-45400000I249999J0D01*
G01*
X69100001Y-45400000D01*
G75*
G02*
X69350000Y-45649999I0J-249999D01*
G01*
X69350000Y-46300001D01*
G75*
G02*
X69100001Y-46550000I-249999J0D01*
G01*
G37*
%TD*%
%TO.C,C6*%
G36*
G01*
X105650001Y-49100000D02*
X104749999Y-49100000D01*
G75*
G02*
X104500000Y-48850001I0J249999D01*
G01*
X104500000Y-48199999D01*
G75*
G02*
X104749999Y-47950000I249999J0D01*
G01*
X105650001Y-47950000D01*
G75*
G02*
X105900000Y-48199999I0J-249999D01*
G01*
X105900000Y-48850001D01*
G75*
G02*
X105650001Y-49100000I-249999J0D01*
G01*
G37*
G36*
G01*
X105650001Y-47050000D02*
X104749999Y-47050000D01*
G75*
G02*
X104500000Y-46800001I0J249999D01*
G01*
X104500000Y-46149999D01*
G75*
G02*
X104749999Y-45900000I249999J0D01*
G01*
X105650001Y-45900000D01*
G75*
G02*
X105900000Y-46149999I0J-249999D01*
G01*
X105900000Y-46800001D01*
G75*
G02*
X105650001Y-47050000I-249999J0D01*
G01*
G37*
%TD*%
%TO.C,R1*%
G36*
G01*
X135055000Y-32543750D02*
X135055000Y-33456250D01*
G75*
G02*
X134811250Y-33700000I-243750J0D01*
G01*
X134323750Y-33700000D01*
G75*
G02*
X134080000Y-33456250I0J243750D01*
G01*
X134080000Y-32543750D01*
G75*
G02*
X134323750Y-32300000I243750J0D01*
G01*
X134811250Y-32300000D01*
G75*
G02*
X135055000Y-32543750I0J-243750D01*
G01*
G37*
G36*
G01*
X133180000Y-32543750D02*
X133180000Y-33456250D01*
G75*
G02*
X132936250Y-33700000I-243750J0D01*
G01*
X132448750Y-33700000D01*
G75*
G02*
X132205000Y-33456250I0J243750D01*
G01*
X132205000Y-32543750D01*
G75*
G02*
X132448750Y-32300000I243750J0D01*
G01*
X132936250Y-32300000D01*
G75*
G02*
X133180000Y-32543750I0J-243750D01*
G01*
G37*
%TD*%
D11*
%TO.C,SW1*%
X130480000Y-41900000D03*
X136780000Y-41900000D03*
X130480000Y-38100000D03*
X136780000Y-38100000D03*
%TD*%
M02*
