M48
; DRILL file {KiCad (5.1.6)-1} date 08/18/22 21:09:07
; FORMAT={-:-/ absolute / metric / decimal}
; #@! TF.CreationDate,2022-08-18T21:09:07-07:00
; #@! TF.GenerationSoftware,Kicad,Pcbnew,(5.1.6)-1
FMAT,2
METRIC
T1C0.400
T2C0.700
T3C0.762
T4C1.000
T5C1.092
T6C1.270
T7C2.000
T8C0.991
T9C1.702
T10C2.200
T11C3.429
%
G90
G05
T1
X32.8Y-40.015
X32.8Y-45.0
X32.8Y-57.2
X33.2Y-41.42
X33.2Y-43.62
X33.2Y-58.57
X33.204Y-60.77
X35.383Y-55.056
X51.32Y-50.219
X66.13Y-36.652
X68.271Y-57.233
X68.418Y-33.724
X68.56Y-50.54
X68.7Y-38.2
X69.0Y-34.69
X69.0Y-36.89
X69.0Y-51.84
X69.072Y-54.04
X72.099Y-60.315
X74.711Y-48.0
X75.698Y-30.987
X95.8Y-34.0
X99.459Y-69.526
X104.531Y-40.294
X104.842Y-45.0
X105.166Y-56.234
X105.2Y-34.1
X105.2Y-51.1
X105.6Y-35.29
X105.6Y-37.49
X105.6Y-52.52
X105.644Y-54.72
X107.593Y-24.776
X116.086Y-56.334
X121.679Y-66.498
X123.368Y-52.509
X127.85Y-59.802
X130.1Y-61.319
X132.367Y-60.594
X133.5Y-41.9
X133.76Y-56.178
X138.426Y-55.595
X138.854Y-42.258
X140.254Y-64.053
T2
X69.0Y-60.1
X69.0Y-67.9
X87.1Y-55.3
X87.1Y-63.1
X73.815Y-73.84
X81.585Y-73.16
X74.141Y-32.46
X81.941Y-32.46
X125.357Y-83.062
X126.443Y-75.338
X50.9Y-61.4
X50.9Y-69.2
X56.044Y-35.65
X63.844Y-35.65
X37.946Y-59.64
X45.746Y-59.64
X56.044Y-52.8
X63.844Y-52.8
X92.239Y-35.7
X100.039Y-35.7
X32.8Y-66.4
X32.8Y-74.2
X19.849Y-42.53
X27.649Y-42.53
X92.702Y-72.536
X100.498Y-72.264
X19.849Y-59.64
X27.649Y-59.64
X37.946Y-42.53
X45.746Y-42.53
X110.336Y-54.3
X118.136Y-54.3
X92.239Y-52.83
X100.039Y-52.83
X112.205Y-72.096
X119.995Y-72.504
X74.141Y-49.58
X81.941Y-49.58
X105.2Y-61.2
X105.2Y-69.0
X123.3Y-61.2
X123.3Y-69.0
X110.336Y-37.2
X118.136Y-37.2
T3
X135.7Y-64.4
X135.7Y-67.4
X135.7Y-70.4
X141.2Y-23.3
T4
X57.22Y-72.02
X59.72Y-72.02
X62.22Y-72.02
X129.82Y-57.9
X132.36Y-57.9
X134.9Y-57.9
X137.44Y-57.9
T5
X126.01Y-25.69
X126.01Y-28.23
X126.01Y-30.77
X126.01Y-33.31
X126.01Y-35.85
X126.01Y-38.39
X126.01Y-40.93
X126.01Y-43.47
X126.01Y-46.01
X126.01Y-48.55
X126.01Y-51.09
X126.01Y-53.63
X141.25Y-25.69
X141.25Y-28.23
X141.25Y-30.77
X141.25Y-33.31
X141.25Y-35.85
X141.25Y-38.39
X141.25Y-40.93
X141.25Y-43.47
X141.25Y-46.01
X141.25Y-48.55
X141.25Y-51.09
X141.25Y-53.63
T6
X91.139Y-57.581
X96.139Y-55.481
X101.139Y-57.581
X54.944Y-23.291
X59.944Y-21.191
X64.944Y-23.291
X109.236Y-24.815
X114.236Y-22.715
X119.236Y-24.815
X91.139Y-40.436
X96.139Y-38.336
X101.139Y-40.436
X91.139Y-23.291
X96.139Y-21.191
X101.139Y-23.291
X109.236Y-41.96
X114.236Y-39.86
X119.236Y-41.96
X130.178Y-79.371
X135.421Y-77.987
X140.08Y-80.763
X73.041Y-37.197
X78.041Y-35.097
X83.041Y-37.197
X18.749Y-30.149
X23.749Y-28.049
X28.749Y-30.149
X54.944Y-57.581
X59.944Y-55.481
X64.944Y-57.581
X36.846Y-47.294
X41.846Y-45.194
X46.846Y-47.294
X36.846Y-30.149
X41.846Y-28.049
X46.846Y-30.149
X73.041Y-54.342
X78.041Y-52.242
X83.041Y-54.342
X111.096Y-77.944
X116.199Y-76.108
X121.082Y-78.467
X91.92Y-78.207
X96.844Y-75.934
X101.914Y-77.858
X73.041Y-20.052
X78.041Y-17.953
X83.041Y-20.052
X18.749Y-64.439
X23.749Y-62.339
X28.749Y-64.439
X54.944Y-40.436
X59.944Y-38.336
X64.944Y-40.436
X109.236Y-59.105
X114.236Y-57.005
X119.236Y-59.105
X18.749Y-47.294
X23.749Y-45.194
X28.749Y-47.294
X36.846Y-64.439
X41.846Y-62.339
X46.846Y-64.439
X73.318Y-79.59
X78.116Y-77.062
X83.28Y-78.719
T8
X90.919Y-31.291
X101.359Y-31.291
X109.016Y-49.96
X119.456Y-49.96
X128.846Y-87.263
X139.185Y-88.716
X72.821Y-45.197
X83.261Y-45.197
X18.529Y-38.149
X28.969Y-38.149
X54.724Y-65.581
X65.164Y-65.581
X36.626Y-55.294
X47.066Y-55.294
X36.626Y-38.149
X47.066Y-38.149
X72.821Y-62.342
X83.261Y-62.342
X110.457Y-85.921
X120.883Y-86.467
X91.98Y-86.21
X102.413Y-85.845
X72.821Y-28.052
X83.261Y-28.052
X18.529Y-72.439
X28.969Y-72.439
X54.724Y-48.436
X65.164Y-48.436
X109.016Y-67.105
X119.456Y-67.105
X18.529Y-55.294
X28.969Y-55.294
X36.626Y-72.439
X47.066Y-72.439
X73.796Y-87.579
X84.196Y-86.669
X90.919Y-65.581
X101.359Y-65.581
X54.724Y-31.291
X65.164Y-31.291
X109.016Y-32.815
X119.456Y-32.815
X90.919Y-48.436
X101.359Y-48.436
T9
X54.444Y-61.381
X65.444Y-61.381
X36.346Y-51.094
X47.346Y-51.094
X36.346Y-33.949
X47.346Y-33.949
X72.541Y-58.142
X83.541Y-58.142
X110.398Y-81.712
X121.382Y-82.288
X91.553Y-82.022
X102.547Y-81.638
X72.541Y-23.852
X83.541Y-23.852
X18.249Y-68.239
X29.249Y-68.239
X54.444Y-44.236
X65.444Y-44.236
X108.736Y-62.905
X119.736Y-62.905
X18.249Y-51.094
X29.249Y-51.094
X36.346Y-68.239
X47.346Y-68.239
X73.151Y-83.419
X84.109Y-82.461
X90.639Y-61.381
X101.639Y-61.381
X54.444Y-27.091
X65.444Y-27.091
X108.736Y-28.615
X119.736Y-28.615
X90.639Y-44.236
X101.639Y-44.236
X90.639Y-27.091
X101.639Y-27.091
X108.736Y-45.76
X119.736Y-45.76
X129.154Y-83.065
X140.046Y-84.595
X72.541Y-40.997
X83.541Y-40.997
X18.249Y-33.949
X29.249Y-33.949
T10
X48.1Y-22.5
X77.5Y-69.5
X105.5Y-20.3
X129.4Y-66.1
X141.4Y-73.5
X47.8Y-81.2
X127.4Y-71.5
T11
X59.944Y-61.381
X41.846Y-51.094
X41.846Y-33.949
X78.041Y-58.142
X115.89Y-82.0
X97.05Y-81.83
X78.041Y-23.852
X23.749Y-68.239
X59.944Y-44.236
X114.236Y-62.905
X23.749Y-51.094
X41.846Y-68.239
X78.63Y-82.94
X96.139Y-61.381
X59.944Y-27.091
X114.236Y-28.615
X96.139Y-44.236
X96.139Y-27.091
X114.236Y-45.76
X134.6Y-83.83
X78.041Y-40.997
X23.749Y-33.949
T3
X136.419Y-61.15G85X134.981Y-61.15
G05
X134.981Y-73.65G85X136.419Y-73.65
G05
T7
X54.12Y-79.27G85X54.12Y-79.77
G05
X65.32Y-79.27G85X65.32Y-79.77
G05
T0
M30
