%TF.GenerationSoftware,KiCad,Pcbnew,(5.1.6)-1*%
%TF.CreationDate,2022-08-18T21:09:05-07:00*%
%TF.ProjectId,split-40-final,73706c69-742d-4343-902d-66696e616c2e,rev?*%
%TF.SameCoordinates,Original*%
%TF.FileFunction,Soldermask,Bot*%
%TF.FilePolarity,Negative*%
%FSLAX46Y46*%
G04 Gerber Fmt 4.6, Leading zero omitted, Abs format (unit mm)*
G04 Created by KiCad (PCBNEW (5.1.6)-1) date 2022-08-18 21:09:05*
%MOMM*%
%LPD*%
G01*
G04 APERTURE LIST*
%ADD10C,1.801800*%
%ADD11C,1.090600*%
%ADD12C,2.132000*%
%ADD13C,3.529000*%
%ADD14C,1.852600*%
%ADD15R,2.600000X3.100000*%
%ADD16C,2.100000*%
%ADD17R,2.100000X2.100000*%
%ADD18O,3.100000X1.624000*%
%ADD19C,1.624000*%
%ADD20C,1.700000*%
%ADD21R,1.700000X1.700000*%
%ADD22C,0.100000*%
%ADD23R,0.600000X1.100000*%
%ADD24R,1.500000X1.900000*%
%ADD25O,1.800000X1.800000*%
%ADD26R,1.800000X1.800000*%
%ADD27C,2.300000*%
%ADD28R,1.800000X1.100000*%
%ADD29R,1.100000X1.600000*%
G04 APERTURE END LIST*
D10*
%TO.C,K_W1*%
X65443800Y-27091000D03*
X54443800Y-27091000D03*
D11*
X65163800Y-31291000D03*
D12*
X54943800Y-23291000D03*
D13*
X59943800Y-27091000D03*
D12*
X64943800Y-23291000D03*
X59943800Y-21191000D03*
D11*
X54723800Y-31291000D03*
%TD*%
D10*
%TO.C,K_R1*%
X101638800Y-27091000D03*
X90638800Y-27091000D03*
D11*
X101358800Y-31291000D03*
D12*
X91138800Y-23291000D03*
D13*
X96138800Y-27091000D03*
D12*
X101138800Y-23291000D03*
X96138800Y-21191000D03*
D11*
X90918800Y-31291000D03*
%TD*%
D10*
%TO.C,K_A1*%
X47346200Y-51094000D03*
X36346200Y-51094000D03*
D11*
X47066200Y-55294000D03*
D12*
X36846200Y-47294000D03*
D13*
X41846200Y-51094000D03*
D12*
X46846200Y-47294000D03*
X41846200Y-45194000D03*
D11*
X36626200Y-55294000D03*
%TD*%
D10*
%TO.C,K_B1*%
X119736000Y-62905000D03*
X108736000Y-62905000D03*
D11*
X119456000Y-67105000D03*
D12*
X109236000Y-59105000D03*
D13*
X114236000Y-62905000D03*
D12*
X119236000Y-59105000D03*
X114236000Y-57005000D03*
D11*
X109016000Y-67105000D03*
%TD*%
D10*
%TO.C,K_C1*%
X83541200Y-58142500D03*
X72541200Y-58142500D03*
D11*
X83261200Y-62342500D03*
D12*
X73041200Y-54342500D03*
D13*
X78041200Y-58142500D03*
D12*
X83041200Y-54342500D03*
X78041200Y-52242500D03*
D11*
X72821200Y-62342500D03*
%TD*%
D10*
%TO.C,K_CAPS1*%
X29248800Y-51094000D03*
X18248800Y-51094000D03*
D11*
X28968800Y-55294000D03*
D12*
X18748800Y-47294000D03*
D13*
X23748800Y-51094000D03*
D12*
X28748800Y-47294000D03*
X23748800Y-45194000D03*
D11*
X18528800Y-55294000D03*
%TD*%
D10*
%TO.C,K_D1*%
X83541200Y-40997500D03*
X72541200Y-40997500D03*
D11*
X83261200Y-45197500D03*
D12*
X73041200Y-37197500D03*
D13*
X78041200Y-40997500D03*
D12*
X83041200Y-37197500D03*
X78041200Y-35097500D03*
D11*
X72821200Y-45197500D03*
%TD*%
D10*
%TO.C,K_E1*%
X83541200Y-23852500D03*
X72541200Y-23852500D03*
D11*
X83261200Y-28052500D03*
D12*
X73041200Y-20052500D03*
D13*
X78041200Y-23852500D03*
D12*
X83041200Y-20052500D03*
X78041200Y-17952500D03*
D11*
X72821200Y-28052500D03*
%TD*%
D10*
%TO.C,K_F1*%
X101638800Y-44236000D03*
X90638800Y-44236000D03*
D11*
X101358800Y-48436000D03*
D12*
X91138800Y-40436000D03*
D13*
X96138800Y-44236000D03*
D12*
X101138800Y-40436000D03*
X96138800Y-38336000D03*
D11*
X90918800Y-48436000D03*
%TD*%
D10*
%TO.C,K_G1*%
X119736000Y-45760000D03*
X108736000Y-45760000D03*
D11*
X119456000Y-49960000D03*
D12*
X109236000Y-41960000D03*
D13*
X114236000Y-45760000D03*
D12*
X119236000Y-41960000D03*
X114236000Y-39860000D03*
D11*
X109016000Y-49960000D03*
%TD*%
D10*
%TO.C,K_INNER1*%
X84109071Y-82460643D03*
X73150929Y-83419357D03*
D11*
X84196190Y-86669065D03*
D12*
X73317835Y-79590239D03*
D13*
X78630000Y-82940000D03*
D12*
X83279782Y-78718681D03*
X78115781Y-77062451D03*
D11*
X73795918Y-87578971D03*
%TD*%
D10*
%TO.C,K_OUTER1*%
X140046474Y-84595452D03*
X129153526Y-83064548D03*
D11*
X139184672Y-88715609D03*
D12*
X130177517Y-79371116D03*
D13*
X134600000Y-83830000D03*
D12*
X140080198Y-80762847D03*
X135421121Y-77987418D03*
D11*
X128846274Y-87262642D03*
%TD*%
D10*
%TO.C,K_Q1*%
X47346200Y-33949000D03*
X36346200Y-33949000D03*
D11*
X47066200Y-38149000D03*
D12*
X36846200Y-30149000D03*
D13*
X41846200Y-33949000D03*
D12*
X46846200Y-30149000D03*
X41846200Y-28049000D03*
D11*
X36626200Y-38149000D03*
%TD*%
D10*
%TO.C,K_S1*%
X65443800Y-44236000D03*
X54443800Y-44236000D03*
D11*
X65163800Y-48436000D03*
D12*
X54943800Y-40436000D03*
D13*
X59943800Y-44236000D03*
D12*
X64943800Y-40436000D03*
X59943800Y-38336000D03*
D11*
X54723800Y-48436000D03*
%TD*%
D10*
%TO.C,K_SHIFT1*%
X29248800Y-68239000D03*
X18248800Y-68239000D03*
D11*
X28968800Y-72439000D03*
D12*
X18748800Y-64439000D03*
D13*
X23748800Y-68239000D03*
D12*
X28748800Y-64439000D03*
X23748800Y-62339000D03*
D11*
X18528800Y-72439000D03*
%TD*%
D10*
%TO.C,K_T1*%
X119736000Y-28615000D03*
X108736000Y-28615000D03*
D11*
X119456000Y-32815000D03*
D12*
X109236000Y-24815000D03*
D13*
X114236000Y-28615000D03*
D12*
X119236000Y-24815000D03*
X114236000Y-22715000D03*
D11*
X109016000Y-32815000D03*
%TD*%
D10*
%TO.C,K_TAB1*%
X29248800Y-33949000D03*
X18248800Y-33949000D03*
D11*
X28968800Y-38149000D03*
D12*
X18748800Y-30149000D03*
D13*
X23748800Y-33949000D03*
D12*
X28748800Y-30149000D03*
X23748800Y-28049000D03*
D11*
X18528800Y-38149000D03*
%TD*%
D10*
%TO.C,K_THUMB1*%
X102546650Y-81638053D03*
X91553350Y-82021947D03*
D11*
X102413398Y-85845266D03*
D12*
X91920428Y-78206812D03*
D13*
X97050000Y-81830000D03*
D12*
X101914336Y-77857817D03*
X96844093Y-75933594D03*
D11*
X91979758Y-86209617D03*
%TD*%
D10*
%TO.C,K_THUMB2*%
X121382462Y-82287848D03*
X110397538Y-81712152D03*
D11*
X120883035Y-86467438D03*
D12*
X111095729Y-77943528D03*
D13*
X115890000Y-82000000D03*
D12*
X121082024Y-78466888D03*
X116198782Y-76108086D03*
D11*
X110457343Y-85921050D03*
%TD*%
D10*
%TO.C,K_V1*%
X101638800Y-61381000D03*
X90638800Y-61381000D03*
D11*
X101358800Y-65581000D03*
D12*
X91138800Y-57581000D03*
D13*
X96138800Y-61381000D03*
D12*
X101138800Y-57581000D03*
X96138800Y-55481000D03*
D11*
X90918800Y-65581000D03*
%TD*%
D10*
%TO.C,K_X1*%
X65443800Y-61381000D03*
X54443800Y-61381000D03*
D11*
X65163800Y-65581000D03*
D12*
X54943800Y-57581000D03*
D13*
X59943800Y-61381000D03*
D12*
X64943800Y-57581000D03*
X59943800Y-55481000D03*
D11*
X54723800Y-65581000D03*
%TD*%
D10*
%TO.C,K_Z1*%
X47346200Y-68239000D03*
X36346200Y-68239000D03*
D11*
X47066200Y-72439000D03*
D12*
X36846200Y-64439000D03*
D13*
X41846200Y-68239000D03*
D12*
X46846200Y-64439000D03*
X41846200Y-62339000D03*
D11*
X36626200Y-72439000D03*
%TD*%
D14*
%TO.C,U1*%
X141250000Y-25690000D03*
X126010000Y-53630000D03*
X141250000Y-28230000D03*
X141250000Y-30770000D03*
X141250000Y-33310000D03*
X141250000Y-35850000D03*
X141250000Y-38390000D03*
X141250000Y-40930000D03*
X141250000Y-43470000D03*
X141250000Y-46010000D03*
X141250000Y-48550000D03*
X141250000Y-51090000D03*
X141250000Y-53630000D03*
X126010000Y-51090000D03*
X126010000Y-48550000D03*
X126010000Y-46010000D03*
X126010000Y-43470000D03*
X126010000Y-40930000D03*
X126010000Y-38390000D03*
X126010000Y-35850000D03*
X126010000Y-33310000D03*
X126010000Y-30770000D03*
X126010000Y-28230000D03*
X126010000Y-25690000D03*
%TD*%
D15*
%TO.C,SW3*%
X54120000Y-79520000D03*
X65320000Y-79520000D03*
D16*
X57220000Y-72020000D03*
X59720000Y-72020000D03*
D17*
X62220000Y-72020000D03*
%TD*%
D18*
%TO.C,SW2*%
X135700000Y-73650000D03*
X135700000Y-61150000D03*
D19*
X135700000Y-64400000D03*
X135700000Y-70400000D03*
X135700000Y-67400000D03*
%TD*%
D20*
%TO.C,D_Z1*%
X50900000Y-61400000D03*
D21*
X50900000Y-69200000D03*
%TD*%
D20*
%TO.C,D_X1*%
X69000000Y-60100000D03*
D21*
X69000000Y-67900000D03*
%TD*%
D20*
%TO.C,D_W1*%
X56043800Y-35650000D03*
D21*
X63843800Y-35650000D03*
%TD*%
D20*
%TO.C,D_V1*%
X105200000Y-61200000D03*
D21*
X105200000Y-69000000D03*
%TD*%
D20*
%TO.C,D_THUMB2*%
X112205345Y-72095890D03*
D22*
G36*
X120887976Y-71699760D02*
G01*
X120799005Y-73397431D01*
X119101334Y-73308460D01*
X119190305Y-71610789D01*
X120887976Y-71699760D01*
G37*
%TD*%
D20*
%TO.C,D_THUMB1*%
X92702376Y-72536108D03*
D22*
G36*
X101317442Y-71384745D02*
G01*
X101376771Y-73083710D01*
X99677806Y-73143039D01*
X99618477Y-71444074D01*
X101317442Y-71384745D01*
G37*
%TD*%
D20*
%TO.C,D_TAB1*%
X19848800Y-42530000D03*
D21*
X27648800Y-42530000D03*
%TD*%
D20*
%TO.C,D_T1*%
X110336000Y-37200000D03*
D21*
X118136000Y-37200000D03*
%TD*%
D20*
%TO.C,D_SHIFT1*%
X32800000Y-66400000D03*
D21*
X32800000Y-74200000D03*
%TD*%
D20*
%TO.C,D_S1*%
X56043800Y-52800000D03*
D21*
X63843800Y-52800000D03*
%TD*%
D20*
%TO.C,D_R1*%
X92238800Y-35700000D03*
D21*
X100038800Y-35700000D03*
%TD*%
D20*
%TO.C,D_Q1*%
X37946200Y-42530000D03*
D21*
X45746200Y-42530000D03*
%TD*%
D20*
%TO.C,D_INNER1*%
X73814841Y-73839907D03*
D22*
G36*
X82357842Y-72239245D02*
G01*
X82506007Y-73932776D01*
X80812476Y-74080941D01*
X80664311Y-72387410D01*
X82357842Y-72239245D01*
G37*
%TD*%
D20*
%TO.C,D_G1*%
X110336000Y-54300000D03*
D21*
X118136000Y-54300000D03*
%TD*%
D20*
%TO.C,D_F1*%
X92238800Y-52830000D03*
D21*
X100038800Y-52830000D03*
%TD*%
D20*
%TO.C,D_E1*%
X74141200Y-32460000D03*
D21*
X81941200Y-32460000D03*
%TD*%
D20*
%TO.C,D_CAPS1*%
X19848800Y-59640000D03*
D21*
X27648800Y-59640000D03*
%TD*%
D20*
%TO.C,D_C1*%
X87100000Y-55300000D03*
D21*
X87100000Y-63100000D03*
%TD*%
D20*
%TO.C,D_B1*%
X123300000Y-61200000D03*
D21*
X123300000Y-69000000D03*
%TD*%
D20*
%TO.C,D_A1*%
X37946200Y-59640000D03*
D21*
X45746200Y-59640000D03*
%TD*%
D20*
%TO.C,D_D1*%
X74141200Y-49580000D03*
D21*
X81941200Y-49580000D03*
%TD*%
D20*
%TO.C,D_OUTER1*%
X126442775Y-75337955D03*
D22*
G36*
X126080656Y-84022070D02*
G01*
X124397200Y-83785476D01*
X124633794Y-82102020D01*
X126317250Y-82338614D01*
X126080656Y-84022070D01*
G37*
%TD*%
D23*
%TO.C,D1*%
X105600000Y-36390000D03*
D24*
X103550000Y-33990000D03*
X106850000Y-33990000D03*
X103550000Y-38790000D03*
X106850000Y-38790000D03*
D23*
X104800000Y-36390000D03*
%TD*%
D24*
%TO.C,D2*%
X67000000Y-33390000D03*
X70300000Y-38190000D03*
X67000000Y-38190000D03*
D23*
X68250000Y-35790000D03*
X69050000Y-35790000D03*
D24*
X70300000Y-33390000D03*
%TD*%
%TO.C,D3*%
X31150000Y-40120000D03*
X34450000Y-44920000D03*
X31150000Y-44920000D03*
D23*
X32400000Y-42520000D03*
X33200000Y-42520000D03*
D24*
X34450000Y-40120000D03*
%TD*%
%TO.C,D4*%
X34450000Y-62070000D03*
X31150000Y-57270000D03*
X34450000Y-57270000D03*
D23*
X33200000Y-59670000D03*
X32400000Y-59670000D03*
D24*
X31150000Y-62070000D03*
%TD*%
%TO.C,D5*%
X70300000Y-55340000D03*
X67000000Y-50540000D03*
X70300000Y-50540000D03*
D23*
X69050000Y-52940000D03*
X68250000Y-52940000D03*
D24*
X67000000Y-55340000D03*
%TD*%
%TO.C,D6*%
X106850000Y-56020000D03*
X103550000Y-51220000D03*
X106850000Y-51220000D03*
D23*
X105600000Y-53620000D03*
X104800000Y-53620000D03*
D24*
X103550000Y-56020000D03*
%TD*%
D25*
%TO.C,L1*%
X129820000Y-57900000D03*
X132360000Y-57900000D03*
X134900000Y-57900000D03*
D26*
X137440000Y-57900000D03*
%TD*%
%TO.C,C3*%
G36*
G01*
X32321738Y-46850000D02*
X33278262Y-46850000D01*
G75*
G02*
X33550000Y-47121738I0J-271738D01*
G01*
X33550000Y-47828262D01*
G75*
G02*
X33278262Y-48100000I-271738J0D01*
G01*
X32321738Y-48100000D01*
G75*
G02*
X32050000Y-47828262I0J271738D01*
G01*
X32050000Y-47121738D01*
G75*
G02*
X32321738Y-46850000I271738J0D01*
G01*
G37*
G36*
G01*
X32321738Y-48900000D02*
X33278262Y-48900000D01*
G75*
G02*
X33550000Y-49171738I0J-271738D01*
G01*
X33550000Y-49878262D01*
G75*
G02*
X33278262Y-50150000I-271738J0D01*
G01*
X32321738Y-50150000D01*
G75*
G02*
X32050000Y-49878262I0J271738D01*
G01*
X32050000Y-49171738D01*
G75*
G02*
X32321738Y-48900000I271738J0D01*
G01*
G37*
%TD*%
%TO.C,C1*%
G36*
G01*
X104721738Y-40850000D02*
X105678262Y-40850000D01*
G75*
G02*
X105950000Y-41121738I0J-271738D01*
G01*
X105950000Y-41828262D01*
G75*
G02*
X105678262Y-42100000I-271738J0D01*
G01*
X104721738Y-42100000D01*
G75*
G02*
X104450000Y-41828262I0J271738D01*
G01*
X104450000Y-41121738D01*
G75*
G02*
X104721738Y-40850000I271738J0D01*
G01*
G37*
G36*
G01*
X104721738Y-42900000D02*
X105678262Y-42900000D01*
G75*
G02*
X105950000Y-43171738I0J-271738D01*
G01*
X105950000Y-43878262D01*
G75*
G02*
X105678262Y-44150000I-271738J0D01*
G01*
X104721738Y-44150000D01*
G75*
G02*
X104450000Y-43878262I0J271738D01*
G01*
X104450000Y-43171738D01*
G75*
G02*
X104721738Y-42900000I271738J0D01*
G01*
G37*
%TD*%
%TO.C,C2*%
G36*
G01*
X68171738Y-40350000D02*
X69128262Y-40350000D01*
G75*
G02*
X69400000Y-40621738I0J-271738D01*
G01*
X69400000Y-41328262D01*
G75*
G02*
X69128262Y-41600000I-271738J0D01*
G01*
X68171738Y-41600000D01*
G75*
G02*
X67900000Y-41328262I0J271738D01*
G01*
X67900000Y-40621738D01*
G75*
G02*
X68171738Y-40350000I271738J0D01*
G01*
G37*
G36*
G01*
X68171738Y-42400000D02*
X69128262Y-42400000D01*
G75*
G02*
X69400000Y-42671738I0J-271738D01*
G01*
X69400000Y-43378262D01*
G75*
G02*
X69128262Y-43650000I-271738J0D01*
G01*
X68171738Y-43650000D01*
G75*
G02*
X67900000Y-43378262I0J271738D01*
G01*
X67900000Y-42671738D01*
G75*
G02*
X68171738Y-42400000I271738J0D01*
G01*
G37*
%TD*%
%TO.C,C4*%
G36*
G01*
X33278262Y-55150000D02*
X32321738Y-55150000D01*
G75*
G02*
X32050000Y-54878262I0J271738D01*
G01*
X32050000Y-54171738D01*
G75*
G02*
X32321738Y-53900000I271738J0D01*
G01*
X33278262Y-53900000D01*
G75*
G02*
X33550000Y-54171738I0J-271738D01*
G01*
X33550000Y-54878262D01*
G75*
G02*
X33278262Y-55150000I-271738J0D01*
G01*
G37*
G36*
G01*
X33278262Y-53100000D02*
X32321738Y-53100000D01*
G75*
G02*
X32050000Y-52828262I0J271738D01*
G01*
X32050000Y-52121738D01*
G75*
G02*
X32321738Y-51850000I271738J0D01*
G01*
X33278262Y-51850000D01*
G75*
G02*
X33550000Y-52121738I0J-271738D01*
G01*
X33550000Y-52828262D01*
G75*
G02*
X33278262Y-53100000I-271738J0D01*
G01*
G37*
%TD*%
%TO.C,C5*%
G36*
G01*
X69128262Y-48650000D02*
X68171738Y-48650000D01*
G75*
G02*
X67900000Y-48378262I0J271738D01*
G01*
X67900000Y-47671738D01*
G75*
G02*
X68171738Y-47400000I271738J0D01*
G01*
X69128262Y-47400000D01*
G75*
G02*
X69400000Y-47671738I0J-271738D01*
G01*
X69400000Y-48378262D01*
G75*
G02*
X69128262Y-48650000I-271738J0D01*
G01*
G37*
G36*
G01*
X69128262Y-46600000D02*
X68171738Y-46600000D01*
G75*
G02*
X67900000Y-46328262I0J271738D01*
G01*
X67900000Y-45621738D01*
G75*
G02*
X68171738Y-45350000I271738J0D01*
G01*
X69128262Y-45350000D01*
G75*
G02*
X69400000Y-45621738I0J-271738D01*
G01*
X69400000Y-46328262D01*
G75*
G02*
X69128262Y-46600000I-271738J0D01*
G01*
G37*
%TD*%
%TO.C,C6*%
G36*
G01*
X105678262Y-49150000D02*
X104721738Y-49150000D01*
G75*
G02*
X104450000Y-48878262I0J271738D01*
G01*
X104450000Y-48171738D01*
G75*
G02*
X104721738Y-47900000I271738J0D01*
G01*
X105678262Y-47900000D01*
G75*
G02*
X105950000Y-48171738I0J-271738D01*
G01*
X105950000Y-48878262D01*
G75*
G02*
X105678262Y-49150000I-271738J0D01*
G01*
G37*
G36*
G01*
X105678262Y-47100000D02*
X104721738Y-47100000D01*
G75*
G02*
X104450000Y-46828262I0J271738D01*
G01*
X104450000Y-46121738D01*
G75*
G02*
X104721738Y-45850000I271738J0D01*
G01*
X105678262Y-45850000D01*
G75*
G02*
X105950000Y-46121738I0J-271738D01*
G01*
X105950000Y-46828262D01*
G75*
G02*
X105678262Y-47100000I-271738J0D01*
G01*
G37*
%TD*%
%TO.C,R1*%
G36*
G01*
X135105000Y-32518750D02*
X135105000Y-33481250D01*
G75*
G02*
X134836250Y-33750000I-268750J0D01*
G01*
X134298750Y-33750000D01*
G75*
G02*
X134030000Y-33481250I0J268750D01*
G01*
X134030000Y-32518750D01*
G75*
G02*
X134298750Y-32250000I268750J0D01*
G01*
X134836250Y-32250000D01*
G75*
G02*
X135105000Y-32518750I0J-268750D01*
G01*
G37*
G36*
G01*
X133230000Y-32518750D02*
X133230000Y-33481250D01*
G75*
G02*
X132961250Y-33750000I-268750J0D01*
G01*
X132423750Y-33750000D01*
G75*
G02*
X132155000Y-33481250I0J268750D01*
G01*
X132155000Y-32518750D01*
G75*
G02*
X132423750Y-32250000I268750J0D01*
G01*
X132961250Y-32250000D01*
G75*
G02*
X133230000Y-32518750I0J-268750D01*
G01*
G37*
%TD*%
D27*
%TO.C,Hole7*%
X129400000Y-66100000D03*
%TD*%
%TO.C,Hole6*%
X105500000Y-20300000D03*
%TD*%
%TO.C,Hole5*%
X77500000Y-69500000D03*
%TD*%
%TO.C,Hole4*%
X48100000Y-22500000D03*
%TD*%
%TO.C,Hole3*%
X47800000Y-81200000D03*
%TD*%
D19*
%TO.C,BATT*%
X141200000Y-23300000D03*
%TD*%
D27*
%TO.C,Hole1*%
X127400000Y-71500000D03*
%TD*%
%TO.C,Hole2*%
X141400000Y-73500000D03*
%TD*%
D28*
%TO.C,SW1*%
X130480000Y-41900000D03*
X136780000Y-41900000D03*
X130480000Y-38100000D03*
X136780000Y-38100000D03*
%TD*%
D29*
%TO.C,JP_B_GND1*%
X125460000Y-56190000D03*
X126760000Y-56190000D03*
%TD*%
%TO.C,JP_B_SCL1*%
X140500000Y-58360000D03*
X141800000Y-58360000D03*
%TD*%
%TO.C,JP_B_SDA1*%
X141800000Y-56190000D03*
X140500000Y-56190000D03*
%TD*%
%TO.C,JP_B_VCC1*%
X126760000Y-58360000D03*
X125460000Y-58360000D03*
%TD*%
M02*
